<?xml version="1.0" encoding="utf-8" standalone="no"?>
<!DOCTYPE svg PUBLIC "-//W3C//DTD SVG 1.1//EN"
  "http://www.w3.org/Graphics/SVG/1.1/DTD/svg11.dtd">
<svg xmlns:xlink="http://www.w3.org/1999/xlink" width="390.982812pt" height="377.39625pt" viewBox="0 0 390.982812 377.39625" xmlns="http://www.w3.org/2000/svg" version="1.1">
 <metadata>
  <rdf:RDF xmlns:dc="http://purl.org/dc/elements/1.1/" xmlns:cc="http://creativecommons.org/ns#" xmlns:rdf="http://www.w3.org/1999/02/22-rdf-syntax-ns#">
   <cc:Work>
    <dc:type rdf:resource="http://purl.org/dc/dcmitype/StillImage"/>
    <dc:date>2024-06-17T13:50:25.619811</dc:date>
    <dc:format>image/svg+xml</dc:format>
    <dc:creator>
     <cc:Agent>
      <dc:title>Matplotlib v3.7.2, https://matplotlib.org/</dc:title>
     </cc:Agent>
    </dc:creator>
   </cc:Work>
  </rdf:RDF>
 </metadata>
 <defs>
  <style type="text/css">*{stroke-linejoin: round; stroke-linecap: butt}</style>
 </defs>
 <g id="figure_1">
  <g id="patch_1">
   <path d="M 0 377.39625 
L 390.982812 377.39625 
L 390.982812 0 
L 0 0 
L 0 377.39625 
z
" style="fill: none"/>
  </g>
  <g id="axes_1">
   <g id="patch_2">
    <path d="M 48.982813 339.84 
L 383.782813 339.84 
L 383.782813 7.2 
L 48.982813 7.2 
L 48.982813 339.84 
z
" style="fill: none"/>
   </g>
   <g id="PolyCollection_1">
    <defs>
     <path id="mab43abd8b7" d="M 139.150988 -35.497489 
L 126.214637 -35.497489 
L 119.478773 -38.89908 
L 109.640837 -42.300671 
L 98.309544 -45.702262 
L 88.848702 -49.103853 
L 84.896283 -52.505444 
L 88.14093 -55.907035 
L 97.152816 -59.308627 
L 108.301433 -62.710218 
L 117.860937 -66.111809 
L 123.490088 -69.5134 
L 124.282738 -72.914991 
L 120.143852 -76.316582 
L 111.653958 -79.718173 
L 100.629631 -83.119765 
L 90.400612 -86.521356 
L 84.741029 -89.922947 
L 85.734744 -93.324538 
L 92.294596 -96.726129 
L 100.795964 -100.12772 
L 107.360129 -103.529311 
L 109.821342 -106.930902 
L 107.938011 -110.332494 
L 102.267483 -113.734085 
L 93.353872 -117.135676 
L 82.272799 -120.537267 
L 71.716718 -123.938858 
L 65.722813 -127.340449 
L 67.40002 -130.74204 
L 76.477183 -134.143632 
L 89.171792 -137.545223 
L 100.711601 -140.946814 
L 108.301776 -144.348405 
L 112.188612 -147.749996 
L 114.466797 -151.151587 
L 117.083185 -154.553178 
L 120.649783 -157.95477 
L 124.586065 -161.356361 
L 127.990694 -164.757952 
L 130.352026 -168.159543 
L 131.691385 -171.561134 
L 132.317894 -174.962725 
L 132.546279 -178.364316 
L 132.546406 -181.765908 
L 132.280994 -185.167499 
L 131.429053 -188.56909 
L 129.281175 -191.970681 
L 124.76146 -195.372272 
L 116.841948 -198.773863 
L 105.42719 -202.175454 
L 92.225186 -205.577046 
L 80.687292 -208.978637 
L 74.563767 -212.380228 
L 75.878392 -215.781819 
L 83.853595 -219.18341 
L 95.546746 -222.585001 
L 107.503303 -225.986592 
L 117.148598 -229.388184 
L 123.252063 -232.789775 
L 125.674162 -236.191366 
L 124.957927 -239.592957 
L 122.107353 -242.994548 
L 118.45634 -246.396139 
L 115.325237 -249.79773 
L 113.456923 -253.199322 
L 112.702112 -256.600913 
L 112.373689 -260.002504 
L 111.986991 -263.404095 
L 111.609754 -266.805686 
L 111.512608 -270.207277 
L 111.697137 -273.608868 
L 111.981755 -277.01046 
L 112.492432 -280.412051 
L 113.800954 -283.813642 
L 116.41397 -287.215233 
L 120.179704 -290.616824 
L 124.284431 -294.018415 
L 127.806893 -297.420006 
L 130.249835 -300.821598 
L 131.642342 -304.223189 
L 132.301966 -307.62478 
L 132.563546 -311.026371 
L 132.650673 -314.427962 
L 132.674191 -317.829553 
L 132.67461 -321.231144 
L 132.652761 -324.632735 
L 132.570593 -328.034327 
L 132.321934 -331.435918 
L 131.690461 -334.837509 
L 130.350095 -338.2391 
L 127.995254 -341.640691 
L 124.630525 -345.042282 
L 120.8584 -348.443873 
L 117.839607 -351.845465 
L 116.754725 -355.247056 
L 118.071562 -358.648647 
L 121.225073 -362.050238 
L 125.002156 -365.451829 
L 128.281466 -368.85342 
L 130.526754 -372.255011 
L 134.838871 -372.255011 
L 134.838871 -372.255011 
L 137.084159 -368.85342 
L 140.363469 -365.451829 
L 144.140552 -362.050238 
L 147.294063 -358.648647 
L 148.6109 -355.247056 
L 147.526018 -351.845465 
L 144.507225 -348.443873 
L 140.7351 -345.042282 
L 137.370371 -341.640691 
L 135.01553 -338.2391 
L 133.675164 -334.837509 
L 133.043691 -331.435918 
L 132.795032 -328.034327 
L 132.712864 -324.632735 
L 132.691015 -321.231144 
L 132.691434 -317.829553 
L 132.714952 -314.427962 
L 132.802079 -311.026371 
L 133.063659 -307.62478 
L 133.723283 -304.223189 
L 135.11579 -300.821598 
L 137.558732 -297.420006 
L 141.081194 -294.018415 
L 145.185921 -290.616824 
L 148.951655 -287.215233 
L 151.564671 -283.813642 
L 152.873193 -280.412051 
L 153.38387 -277.01046 
L 153.668488 -273.608868 
L 153.853017 -270.207277 
L 153.755871 -266.805686 
L 153.378634 -263.404095 
L 152.991936 -260.002504 
L 152.663513 -256.600913 
L 151.908702 -253.199322 
L 150.040388 -249.79773 
L 146.909285 -246.396139 
L 143.258272 -242.994548 
L 140.407698 -239.592957 
L 139.691463 -236.191366 
L 142.113562 -232.789775 
L 148.217027 -229.388184 
L 157.862322 -225.986592 
L 169.818879 -222.585001 
L 181.51203 -219.18341 
L 189.487233 -215.781819 
L 190.801858 -212.380228 
L 184.678333 -208.978637 
L 173.140439 -205.577046 
L 159.938435 -202.175454 
L 148.523677 -198.773863 
L 140.604165 -195.372272 
L 136.08445 -191.970681 
L 133.936572 -188.56909 
L 133.084631 -185.167499 
L 132.819219 -181.765908 
L 132.819346 -178.364316 
L 133.047731 -174.962725 
L 133.67424 -171.561134 
L 135.013599 -168.159543 
L 137.374931 -164.757952 
L 140.77956 -161.356361 
L 144.715842 -157.95477 
L 148.28244 -154.553178 
L 150.898828 -151.151587 
L 153.177013 -147.749996 
L 157.063849 -144.348405 
L 164.654024 -140.946814 
L 176.193833 -137.545223 
L 188.888442 -134.143632 
L 197.965605 -130.74204 
L 199.642813 -127.340449 
L 193.648907 -123.938858 
L 183.092826 -120.537267 
L 172.011753 -117.135676 
L 163.098142 -113.734085 
L 157.427614 -110.332494 
L 155.544283 -106.930902 
L 158.005496 -103.529311 
L 164.569661 -100.12772 
L 173.071029 -96.726129 
L 179.630881 -93.324538 
L 180.624596 -89.922947 
L 174.965013 -86.521356 
L 164.735994 -83.119765 
L 153.711667 -79.718173 
L 145.221773 -76.316582 
L 141.082887 -72.914991 
L 141.875537 -69.5134 
L 147.504688 -66.111809 
L 157.064192 -62.710218 
L 168.212809 -59.308627 
L 177.224695 -55.907035 
L 180.469342 -52.505444 
L 176.516923 -49.103853 
L 167.056081 -45.702262 
L 155.724788 -42.300671 
L 145.886852 -38.89908 
L 139.150988 -35.497489 
z
" style="stroke: #363636; stroke-width: 1.5"/>
    </defs>
    <g clip-path="url(#pa3f2ca2a87)">
     <use xlink:href="#mab43abd8b7" x="0" y="377.39625" style="fill: #d3d3d3; stroke: #363636; stroke-width: 1.5"/>
    </g>
   </g>
   <g id="matplotlib.axis_1">
    <g id="xtick_1">
     <g id="line2d_1">
      <defs>
       <path id="mb0b3080325" d="M 0 0 
L 0 3.5 
" style="stroke: #000000; stroke-width: 0.8"/>
      </defs>
      <g>
       <use xlink:href="#mb0b3080325" x="132.682813" y="339.84" style="stroke: #000000; stroke-width: 0.8"/>
      </g>
     </g>
     <g id="text_1">
      <!-- Neutral -->
      <g transform="translate(114.228125 354.438437) scale(0.1 -0.1)">
       <defs>
        <path id="DejaVuSans-4e" d="M 628 4666 
L 1478 4666 
L 3547 763 
L 3547 4666 
L 4159 4666 
L 4159 0 
L 3309 0 
L 1241 3903 
L 1241 0 
L 628 0 
L 628 4666 
z
" transform="scale(0.015625)"/>
        <path id="DejaVuSans-65" d="M 3597 1894 
L 3597 1613 
L 953 1613 
Q 991 1019 1311 708 
Q 1631 397 2203 397 
Q 2534 397 2845 478 
Q 3156 559 3463 722 
L 3463 178 
Q 3153 47 2828 -22 
Q 2503 -91 2169 -91 
Q 1331 -91 842 396 
Q 353 884 353 1716 
Q 353 2575 817 3079 
Q 1281 3584 2069 3584 
Q 2775 3584 3186 3129 
Q 3597 2675 3597 1894 
z
M 3022 2063 
Q 3016 2534 2758 2815 
Q 2500 3097 2075 3097 
Q 1594 3097 1305 2825 
Q 1016 2553 972 2059 
L 3022 2063 
z
" transform="scale(0.015625)"/>
        <path id="DejaVuSans-75" d="M 544 1381 
L 544 3500 
L 1119 3500 
L 1119 1403 
Q 1119 906 1312 657 
Q 1506 409 1894 409 
Q 2359 409 2629 706 
Q 2900 1003 2900 1516 
L 2900 3500 
L 3475 3500 
L 3475 0 
L 2900 0 
L 2900 538 
Q 2691 219 2414 64 
Q 2138 -91 1772 -91 
Q 1169 -91 856 284 
Q 544 659 544 1381 
z
M 1991 3584 
L 1991 3584 
z
" transform="scale(0.015625)"/>
        <path id="DejaVuSans-74" d="M 1172 4494 
L 1172 3500 
L 2356 3500 
L 2356 3053 
L 1172 3053 
L 1172 1153 
Q 1172 725 1289 603 
Q 1406 481 1766 481 
L 2356 481 
L 2356 0 
L 1766 0 
Q 1100 0 847 248 
Q 594 497 594 1153 
L 594 3053 
L 172 3053 
L 172 3500 
L 594 3500 
L 594 4494 
L 1172 4494 
z
" transform="scale(0.015625)"/>
        <path id="DejaVuSans-72" d="M 2631 2963 
Q 2534 3019 2420 3045 
Q 2306 3072 2169 3072 
Q 1681 3072 1420 2755 
Q 1159 2438 1159 1844 
L 1159 0 
L 581 0 
L 581 3500 
L 1159 3500 
L 1159 2956 
Q 1341 3275 1631 3429 
Q 1922 3584 2338 3584 
Q 2397 3584 2469 3576 
Q 2541 3569 2628 3553 
L 2631 2963 
z
" transform="scale(0.015625)"/>
        <path id="DejaVuSans-61" d="M 2194 1759 
Q 1497 1759 1228 1600 
Q 959 1441 959 1056 
Q 959 750 1161 570 
Q 1363 391 1709 391 
Q 2188 391 2477 730 
Q 2766 1069 2766 1631 
L 2766 1759 
L 2194 1759 
z
M 3341 1997 
L 3341 0 
L 2766 0 
L 2766 531 
Q 2569 213 2275 61 
Q 1981 -91 1556 -91 
Q 1019 -91 701 211 
Q 384 513 384 1019 
Q 384 1609 779 1909 
Q 1175 2209 1959 2209 
L 2766 2209 
L 2766 2266 
Q 2766 2663 2505 2880 
Q 2244 3097 1772 3097 
Q 1472 3097 1187 3025 
Q 903 2953 641 2809 
L 641 3341 
Q 956 3463 1253 3523 
Q 1550 3584 1831 3584 
Q 2591 3584 2966 3190 
Q 3341 2797 3341 1997 
z
" transform="scale(0.015625)"/>
        <path id="DejaVuSans-6c" d="M 603 4863 
L 1178 4863 
L 1178 0 
L 603 0 
L 603 4863 
z
" transform="scale(0.015625)"/>
       </defs>
       <use xlink:href="#DejaVuSans-4e"/>
       <use xlink:href="#DejaVuSans-65" x="74.804688"/>
       <use xlink:href="#DejaVuSans-75" x="136.328125"/>
       <use xlink:href="#DejaVuSans-74" x="199.707031"/>
       <use xlink:href="#DejaVuSans-72" x="238.916016"/>
       <use xlink:href="#DejaVuSans-61" x="280.029297"/>
       <use xlink:href="#DejaVuSans-6c" x="341.308594"/>
      </g>
     </g>
    </g>
    <g id="xtick_2">
     <g id="line2d_2">
      <g>
       <use xlink:href="#mb0b3080325" x="300.082813" y="339.84" style="stroke: #000000; stroke-width: 0.8"/>
      </g>
     </g>
     <g id="text_2">
      <!-- Deleterious -->
      <g transform="translate(271.376563 354.438437) scale(0.1 -0.1)">
       <defs>
        <path id="DejaVuSans-44" d="M 1259 4147 
L 1259 519 
L 2022 519 
Q 2988 519 3436 956 
Q 3884 1394 3884 2338 
Q 3884 3275 3436 3711 
Q 2988 4147 2022 4147 
L 1259 4147 
z
M 628 4666 
L 1925 4666 
Q 3281 4666 3915 4102 
Q 4550 3538 4550 2338 
Q 4550 1131 3912 565 
Q 3275 0 1925 0 
L 628 0 
L 628 4666 
z
" transform="scale(0.015625)"/>
        <path id="DejaVuSans-69" d="M 603 3500 
L 1178 3500 
L 1178 0 
L 603 0 
L 603 3500 
z
M 603 4863 
L 1178 4863 
L 1178 4134 
L 603 4134 
L 603 4863 
z
" transform="scale(0.015625)"/>
        <path id="DejaVuSans-6f" d="M 1959 3097 
Q 1497 3097 1228 2736 
Q 959 2375 959 1747 
Q 959 1119 1226 758 
Q 1494 397 1959 397 
Q 2419 397 2687 759 
Q 2956 1122 2956 1747 
Q 2956 2369 2687 2733 
Q 2419 3097 1959 3097 
z
M 1959 3584 
Q 2709 3584 3137 3096 
Q 3566 2609 3566 1747 
Q 3566 888 3137 398 
Q 2709 -91 1959 -91 
Q 1206 -91 779 398 
Q 353 888 353 1747 
Q 353 2609 779 3096 
Q 1206 3584 1959 3584 
z
" transform="scale(0.015625)"/>
        <path id="DejaVuSans-73" d="M 2834 3397 
L 2834 2853 
Q 2591 2978 2328 3040 
Q 2066 3103 1784 3103 
Q 1356 3103 1142 2972 
Q 928 2841 928 2578 
Q 928 2378 1081 2264 
Q 1234 2150 1697 2047 
L 1894 2003 
Q 2506 1872 2764 1633 
Q 3022 1394 3022 966 
Q 3022 478 2636 193 
Q 2250 -91 1575 -91 
Q 1294 -91 989 -36 
Q 684 19 347 128 
L 347 722 
Q 666 556 975 473 
Q 1284 391 1588 391 
Q 1994 391 2212 530 
Q 2431 669 2431 922 
Q 2431 1156 2273 1281 
Q 2116 1406 1581 1522 
L 1381 1569 
Q 847 1681 609 1914 
Q 372 2147 372 2553 
Q 372 3047 722 3315 
Q 1072 3584 1716 3584 
Q 2034 3584 2315 3537 
Q 2597 3491 2834 3397 
z
" transform="scale(0.015625)"/>
       </defs>
       <use xlink:href="#DejaVuSans-44"/>
       <use xlink:href="#DejaVuSans-65" x="77.001953"/>
       <use xlink:href="#DejaVuSans-6c" x="138.525391"/>
       <use xlink:href="#DejaVuSans-65" x="166.308594"/>
       <use xlink:href="#DejaVuSans-74" x="227.832031"/>
       <use xlink:href="#DejaVuSans-65" x="267.041016"/>
       <use xlink:href="#DejaVuSans-72" x="328.564453"/>
       <use xlink:href="#DejaVuSans-69" x="369.677734"/>
       <use xlink:href="#DejaVuSans-6f" x="397.460938"/>
       <use xlink:href="#DejaVuSans-75" x="458.642578"/>
       <use xlink:href="#DejaVuSans-73" x="522.021484"/>
      </g>
     </g>
    </g>
    <g id="text_3">
     <!-- Classification in the control condition -->
     <g transform="translate(123.733594 368.116562) scale(0.1 -0.1)">
      <defs>
       <path id="DejaVuSans-43" d="M 4122 4306 
L 4122 3641 
Q 3803 3938 3442 4084 
Q 3081 4231 2675 4231 
Q 1875 4231 1450 3742 
Q 1025 3253 1025 2328 
Q 1025 1406 1450 917 
Q 1875 428 2675 428 
Q 3081 428 3442 575 
Q 3803 722 4122 1019 
L 4122 359 
Q 3791 134 3420 21 
Q 3050 -91 2638 -91 
Q 1578 -91 968 557 
Q 359 1206 359 2328 
Q 359 3453 968 4101 
Q 1578 4750 2638 4750 
Q 3056 4750 3426 4639 
Q 3797 4528 4122 4306 
z
" transform="scale(0.015625)"/>
       <path id="DejaVuSans-66" d="M 2375 4863 
L 2375 4384 
L 1825 4384 
Q 1516 4384 1395 4259 
Q 1275 4134 1275 3809 
L 1275 3500 
L 2222 3500 
L 2222 3053 
L 1275 3053 
L 1275 0 
L 697 0 
L 697 3053 
L 147 3053 
L 147 3500 
L 697 3500 
L 697 3744 
Q 697 4328 969 4595 
Q 1241 4863 1831 4863 
L 2375 4863 
z
" transform="scale(0.015625)"/>
       <path id="DejaVuSans-63" d="M 3122 3366 
L 3122 2828 
Q 2878 2963 2633 3030 
Q 2388 3097 2138 3097 
Q 1578 3097 1268 2742 
Q 959 2388 959 1747 
Q 959 1106 1268 751 
Q 1578 397 2138 397 
Q 2388 397 2633 464 
Q 2878 531 3122 666 
L 3122 134 
Q 2881 22 2623 -34 
Q 2366 -91 2075 -91 
Q 1284 -91 818 406 
Q 353 903 353 1747 
Q 353 2603 823 3093 
Q 1294 3584 2113 3584 
Q 2378 3584 2631 3529 
Q 2884 3475 3122 3366 
z
" transform="scale(0.015625)"/>
       <path id="DejaVuSans-6e" d="M 3513 2113 
L 3513 0 
L 2938 0 
L 2938 2094 
Q 2938 2591 2744 2837 
Q 2550 3084 2163 3084 
Q 1697 3084 1428 2787 
Q 1159 2491 1159 1978 
L 1159 0 
L 581 0 
L 581 3500 
L 1159 3500 
L 1159 2956 
Q 1366 3272 1645 3428 
Q 1925 3584 2291 3584 
Q 2894 3584 3203 3211 
Q 3513 2838 3513 2113 
z
" transform="scale(0.015625)"/>
       <path id="DejaVuSans-20" transform="scale(0.015625)"/>
       <path id="DejaVuSans-68" d="M 3513 2113 
L 3513 0 
L 2938 0 
L 2938 2094 
Q 2938 2591 2744 2837 
Q 2550 3084 2163 3084 
Q 1697 3084 1428 2787 
Q 1159 2491 1159 1978 
L 1159 0 
L 581 0 
L 581 4863 
L 1159 4863 
L 1159 2956 
Q 1366 3272 1645 3428 
Q 1925 3584 2291 3584 
Q 2894 3584 3203 3211 
Q 3513 2838 3513 2113 
z
" transform="scale(0.015625)"/>
       <path id="DejaVuSans-64" d="M 2906 2969 
L 2906 4863 
L 3481 4863 
L 3481 0 
L 2906 0 
L 2906 525 
Q 2725 213 2448 61 
Q 2172 -91 1784 -91 
Q 1150 -91 751 415 
Q 353 922 353 1747 
Q 353 2572 751 3078 
Q 1150 3584 1784 3584 
Q 2172 3584 2448 3432 
Q 2725 3281 2906 2969 
z
M 947 1747 
Q 947 1113 1208 752 
Q 1469 391 1925 391 
Q 2381 391 2643 752 
Q 2906 1113 2906 1747 
Q 2906 2381 2643 2742 
Q 2381 3103 1925 3103 
Q 1469 3103 1208 2742 
Q 947 2381 947 1747 
z
" transform="scale(0.015625)"/>
      </defs>
      <use xlink:href="#DejaVuSans-43"/>
      <use xlink:href="#DejaVuSans-6c" x="69.824219"/>
      <use xlink:href="#DejaVuSans-61" x="97.607422"/>
      <use xlink:href="#DejaVuSans-73" x="158.886719"/>
      <use xlink:href="#DejaVuSans-73" x="210.986328"/>
      <use xlink:href="#DejaVuSans-69" x="263.085938"/>
      <use xlink:href="#DejaVuSans-66" x="290.869141"/>
      <use xlink:href="#DejaVuSans-69" x="326.074219"/>
      <use xlink:href="#DejaVuSans-63" x="353.857422"/>
      <use xlink:href="#DejaVuSans-61" x="408.837891"/>
      <use xlink:href="#DejaVuSans-74" x="470.117188"/>
      <use xlink:href="#DejaVuSans-69" x="509.326172"/>
      <use xlink:href="#DejaVuSans-6f" x="537.109375"/>
      <use xlink:href="#DejaVuSans-6e" x="598.291016"/>
      <use xlink:href="#DejaVuSans-20" x="661.669922"/>
      <use xlink:href="#DejaVuSans-69" x="693.457031"/>
      <use xlink:href="#DejaVuSans-6e" x="721.240234"/>
      <use xlink:href="#DejaVuSans-20" x="784.619141"/>
      <use xlink:href="#DejaVuSans-74" x="816.40625"/>
      <use xlink:href="#DejaVuSans-68" x="855.615234"/>
      <use xlink:href="#DejaVuSans-65" x="918.994141"/>
      <use xlink:href="#DejaVuSans-20" x="980.517578"/>
      <use xlink:href="#DejaVuSans-63" x="1012.304688"/>
      <use xlink:href="#DejaVuSans-6f" x="1067.285156"/>
      <use xlink:href="#DejaVuSans-6e" x="1128.466797"/>
      <use xlink:href="#DejaVuSans-74" x="1191.845703"/>
      <use xlink:href="#DejaVuSans-72" x="1231.054688"/>
      <use xlink:href="#DejaVuSans-6f" x="1269.917969"/>
      <use xlink:href="#DejaVuSans-6c" x="1331.099609"/>
      <use xlink:href="#DejaVuSans-20" x="1358.882812"/>
      <use xlink:href="#DejaVuSans-63" x="1390.669922"/>
      <use xlink:href="#DejaVuSans-6f" x="1445.650391"/>
      <use xlink:href="#DejaVuSans-6e" x="1506.832031"/>
      <use xlink:href="#DejaVuSans-64" x="1570.210938"/>
      <use xlink:href="#DejaVuSans-69" x="1633.6875"/>
      <use xlink:href="#DejaVuSans-74" x="1661.470703"/>
      <use xlink:href="#DejaVuSans-69" x="1700.679688"/>
      <use xlink:href="#DejaVuSans-6f" x="1728.462891"/>
      <use xlink:href="#DejaVuSans-6e" x="1789.644531"/>
     </g>
    </g>
   </g>
   <g id="matplotlib.axis_2">
    <g id="ytick_1">
     <g id="line2d_3">
      <defs>
       <path id="m40b65cf992" d="M 0 0 
L -3.5 0 
" style="stroke: #000000; stroke-width: 0.8"/>
      </defs>
      <g>
       <use xlink:href="#m40b65cf992" x="48.982813" y="333.692178" style="stroke: #000000; stroke-width: 0.8"/>
      </g>
     </g>
     <g id="text_4">
      <!-- −10 -->
      <g transform="translate(20.878125 337.491397) scale(0.1 -0.1)">
       <defs>
        <path id="DejaVuSans-2212" d="M 678 2272 
L 4684 2272 
L 4684 1741 
L 678 1741 
L 678 2272 
z
" transform="scale(0.015625)"/>
        <path id="DejaVuSans-31" d="M 794 531 
L 1825 531 
L 1825 4091 
L 703 3866 
L 703 4441 
L 1819 4666 
L 2450 4666 
L 2450 531 
L 3481 531 
L 3481 0 
L 794 0 
L 794 531 
z
" transform="scale(0.015625)"/>
        <path id="DejaVuSans-30" d="M 2034 4250 
Q 1547 4250 1301 3770 
Q 1056 3291 1056 2328 
Q 1056 1369 1301 889 
Q 1547 409 2034 409 
Q 2525 409 2770 889 
Q 3016 1369 3016 2328 
Q 3016 3291 2770 3770 
Q 2525 4250 2034 4250 
z
M 2034 4750 
Q 2819 4750 3233 4129 
Q 3647 3509 3647 2328 
Q 3647 1150 3233 529 
Q 2819 -91 2034 -91 
Q 1250 -91 836 529 
Q 422 1150 422 2328 
Q 422 3509 836 4129 
Q 1250 4750 2034 4750 
z
" transform="scale(0.015625)"/>
       </defs>
       <use xlink:href="#DejaVuSans-2212"/>
       <use xlink:href="#DejaVuSans-31" x="83.789062"/>
       <use xlink:href="#DejaVuSans-30" x="147.412109"/>
      </g>
     </g>
    </g>
    <g id="ytick_2">
     <g id="line2d_4">
      <g>
       <use xlink:href="#m40b65cf992" x="48.982813" y="295.533547" style="stroke: #000000; stroke-width: 0.8"/>
      </g>
     </g>
     <g id="text_5">
      <!-- −9 -->
      <g transform="translate(27.240625 299.332766) scale(0.1 -0.1)">
       <defs>
        <path id="DejaVuSans-39" d="M 703 97 
L 703 672 
Q 941 559 1184 500 
Q 1428 441 1663 441 
Q 2288 441 2617 861 
Q 2947 1281 2994 2138 
Q 2813 1869 2534 1725 
Q 2256 1581 1919 1581 
Q 1219 1581 811 2004 
Q 403 2428 403 3163 
Q 403 3881 828 4315 
Q 1253 4750 1959 4750 
Q 2769 4750 3195 4129 
Q 3622 3509 3622 2328 
Q 3622 1225 3098 567 
Q 2575 -91 1691 -91 
Q 1453 -91 1209 -44 
Q 966 3 703 97 
z
M 1959 2075 
Q 2384 2075 2632 2365 
Q 2881 2656 2881 3163 
Q 2881 3666 2632 3958 
Q 2384 4250 1959 4250 
Q 1534 4250 1286 3958 
Q 1038 3666 1038 3163 
Q 1038 2656 1286 2365 
Q 1534 2075 1959 2075 
z
" transform="scale(0.015625)"/>
       </defs>
       <use xlink:href="#DejaVuSans-2212"/>
       <use xlink:href="#DejaVuSans-39" x="83.789062"/>
      </g>
     </g>
    </g>
    <g id="ytick_3">
     <g id="line2d_5">
      <g>
       <use xlink:href="#m40b65cf992" x="48.982813" y="257.374915" style="stroke: #000000; stroke-width: 0.8"/>
      </g>
     </g>
     <g id="text_6">
      <!-- −8 -->
      <g transform="translate(27.240625 261.174134) scale(0.1 -0.1)">
       <defs>
        <path id="DejaVuSans-38" d="M 2034 2216 
Q 1584 2216 1326 1975 
Q 1069 1734 1069 1313 
Q 1069 891 1326 650 
Q 1584 409 2034 409 
Q 2484 409 2743 651 
Q 3003 894 3003 1313 
Q 3003 1734 2745 1975 
Q 2488 2216 2034 2216 
z
M 1403 2484 
Q 997 2584 770 2862 
Q 544 3141 544 3541 
Q 544 4100 942 4425 
Q 1341 4750 2034 4750 
Q 2731 4750 3128 4425 
Q 3525 4100 3525 3541 
Q 3525 3141 3298 2862 
Q 3072 2584 2669 2484 
Q 3125 2378 3379 2068 
Q 3634 1759 3634 1313 
Q 3634 634 3220 271 
Q 2806 -91 2034 -91 
Q 1263 -91 848 271 
Q 434 634 434 1313 
Q 434 1759 690 2068 
Q 947 2378 1403 2484 
z
M 1172 3481 
Q 1172 3119 1398 2916 
Q 1625 2713 2034 2713 
Q 2441 2713 2670 2916 
Q 2900 3119 2900 3481 
Q 2900 3844 2670 4047 
Q 2441 4250 2034 4250 
Q 1625 4250 1398 4047 
Q 1172 3844 1172 3481 
z
" transform="scale(0.015625)"/>
       </defs>
       <use xlink:href="#DejaVuSans-2212"/>
       <use xlink:href="#DejaVuSans-38" x="83.789062"/>
      </g>
     </g>
    </g>
    <g id="ytick_4">
     <g id="line2d_6">
      <g>
       <use xlink:href="#m40b65cf992" x="48.982813" y="219.216284" style="stroke: #000000; stroke-width: 0.8"/>
      </g>
     </g>
     <g id="text_7">
      <!-- −7 -->
      <g transform="translate(27.240625 223.015503) scale(0.1 -0.1)">
       <defs>
        <path id="DejaVuSans-37" d="M 525 4666 
L 3525 4666 
L 3525 4397 
L 1831 0 
L 1172 0 
L 2766 4134 
L 525 4134 
L 525 4666 
z
" transform="scale(0.015625)"/>
       </defs>
       <use xlink:href="#DejaVuSans-2212"/>
       <use xlink:href="#DejaVuSans-37" x="83.789062"/>
      </g>
     </g>
    </g>
    <g id="ytick_5">
     <g id="line2d_7">
      <g>
       <use xlink:href="#m40b65cf992" x="48.982813" y="181.057652" style="stroke: #000000; stroke-width: 0.8"/>
      </g>
     </g>
     <g id="text_8">
      <!-- −6 -->
      <g transform="translate(27.240625 184.856871) scale(0.1 -0.1)">
       <defs>
        <path id="DejaVuSans-36" d="M 2113 2584 
Q 1688 2584 1439 2293 
Q 1191 2003 1191 1497 
Q 1191 994 1439 701 
Q 1688 409 2113 409 
Q 2538 409 2786 701 
Q 3034 994 3034 1497 
Q 3034 2003 2786 2293 
Q 2538 2584 2113 2584 
z
M 3366 4563 
L 3366 3988 
Q 3128 4100 2886 4159 
Q 2644 4219 2406 4219 
Q 1781 4219 1451 3797 
Q 1122 3375 1075 2522 
Q 1259 2794 1537 2939 
Q 1816 3084 2150 3084 
Q 2853 3084 3261 2657 
Q 3669 2231 3669 1497 
Q 3669 778 3244 343 
Q 2819 -91 2113 -91 
Q 1303 -91 875 529 
Q 447 1150 447 2328 
Q 447 3434 972 4092 
Q 1497 4750 2381 4750 
Q 2619 4750 2861 4703 
Q 3103 4656 3366 4563 
z
" transform="scale(0.015625)"/>
       </defs>
       <use xlink:href="#DejaVuSans-2212"/>
       <use xlink:href="#DejaVuSans-36" x="83.789062"/>
      </g>
     </g>
    </g>
    <g id="ytick_6">
     <g id="line2d_8">
      <g>
       <use xlink:href="#m40b65cf992" x="48.982813" y="142.899021" style="stroke: #000000; stroke-width: 0.8"/>
      </g>
     </g>
     <g id="text_9">
      <!-- −5 -->
      <g transform="translate(27.240625 146.69824) scale(0.1 -0.1)">
       <defs>
        <path id="DejaVuSans-35" d="M 691 4666 
L 3169 4666 
L 3169 4134 
L 1269 4134 
L 1269 2991 
Q 1406 3038 1543 3061 
Q 1681 3084 1819 3084 
Q 2600 3084 3056 2656 
Q 3513 2228 3513 1497 
Q 3513 744 3044 326 
Q 2575 -91 1722 -91 
Q 1428 -91 1123 -41 
Q 819 9 494 109 
L 494 744 
Q 775 591 1075 516 
Q 1375 441 1709 441 
Q 2250 441 2565 725 
Q 2881 1009 2881 1497 
Q 2881 1984 2565 2268 
Q 2250 2553 1709 2553 
Q 1456 2553 1204 2497 
Q 953 2441 691 2322 
L 691 4666 
z
" transform="scale(0.015625)"/>
       </defs>
       <use xlink:href="#DejaVuSans-2212"/>
       <use xlink:href="#DejaVuSans-35" x="83.789062"/>
      </g>
     </g>
    </g>
    <g id="ytick_7">
     <g id="line2d_9">
      <g>
       <use xlink:href="#m40b65cf992" x="48.982813" y="104.740389" style="stroke: #000000; stroke-width: 0.8"/>
      </g>
     </g>
     <g id="text_10">
      <!-- −4 -->
      <g transform="translate(27.240625 108.539608) scale(0.1 -0.1)">
       <defs>
        <path id="DejaVuSans-34" d="M 2419 4116 
L 825 1625 
L 2419 1625 
L 2419 4116 
z
M 2253 4666 
L 3047 4666 
L 3047 1625 
L 3713 1625 
L 3713 1100 
L 3047 1100 
L 3047 0 
L 2419 0 
L 2419 1100 
L 313 1100 
L 313 1709 
L 2253 4666 
z
" transform="scale(0.015625)"/>
       </defs>
       <use xlink:href="#DejaVuSans-2212"/>
       <use xlink:href="#DejaVuSans-34" x="83.789062"/>
      </g>
     </g>
    </g>
    <g id="ytick_8">
     <g id="line2d_10">
      <g>
       <use xlink:href="#m40b65cf992" x="48.982813" y="66.581758" style="stroke: #000000; stroke-width: 0.8"/>
      </g>
     </g>
     <g id="text_11">
      <!-- −3 -->
      <g transform="translate(27.240625 70.380977) scale(0.1 -0.1)">
       <defs>
        <path id="DejaVuSans-33" d="M 2597 2516 
Q 3050 2419 3304 2112 
Q 3559 1806 3559 1356 
Q 3559 666 3084 287 
Q 2609 -91 1734 -91 
Q 1441 -91 1130 -33 
Q 819 25 488 141 
L 488 750 
Q 750 597 1062 519 
Q 1375 441 1716 441 
Q 2309 441 2620 675 
Q 2931 909 2931 1356 
Q 2931 1769 2642 2001 
Q 2353 2234 1838 2234 
L 1294 2234 
L 1294 2753 
L 1863 2753 
Q 2328 2753 2575 2939 
Q 2822 3125 2822 3475 
Q 2822 3834 2567 4026 
Q 2313 4219 1838 4219 
Q 1578 4219 1281 4162 
Q 984 4106 628 3988 
L 628 4550 
Q 988 4650 1302 4700 
Q 1616 4750 1894 4750 
Q 2613 4750 3031 4423 
Q 3450 4097 3450 3541 
Q 3450 3153 3228 2886 
Q 3006 2619 2597 2516 
z
" transform="scale(0.015625)"/>
       </defs>
       <use xlink:href="#DejaVuSans-2212"/>
       <use xlink:href="#DejaVuSans-33" x="83.789062"/>
      </g>
     </g>
    </g>
    <g id="ytick_9">
     <g id="line2d_11">
      <g>
       <use xlink:href="#m40b65cf992" x="48.982813" y="28.423126" style="stroke: #000000; stroke-width: 0.8"/>
      </g>
     </g>
     <g id="text_12">
      <!-- −2 -->
      <g transform="translate(27.240625 32.222345) scale(0.1 -0.1)">
       <defs>
        <path id="DejaVuSans-32" d="M 1228 531 
L 3431 531 
L 3431 0 
L 469 0 
L 469 531 
Q 828 903 1448 1529 
Q 2069 2156 2228 2338 
Q 2531 2678 2651 2914 
Q 2772 3150 2772 3378 
Q 2772 3750 2511 3984 
Q 2250 4219 1831 4219 
Q 1534 4219 1204 4116 
Q 875 4013 500 3803 
L 500 4441 
Q 881 4594 1212 4672 
Q 1544 4750 1819 4750 
Q 2544 4750 2975 4387 
Q 3406 4025 3406 3419 
Q 3406 3131 3298 2873 
Q 3191 2616 2906 2266 
Q 2828 2175 2409 1742 
Q 1991 1309 1228 531 
z
" transform="scale(0.015625)"/>
       </defs>
       <use xlink:href="#DejaVuSans-2212"/>
       <use xlink:href="#DejaVuSans-32" x="83.789062"/>
      </g>
     </g>
    </g>
    <g id="text_13">
     <!-- Log2 Frequency of polymorphism -->
     <g transform="translate(14.798438 256.823906) rotate(-90) scale(0.1 -0.1)">
      <defs>
       <path id="DejaVuSans-4c" d="M 628 4666 
L 1259 4666 
L 1259 531 
L 3531 531 
L 3531 0 
L 628 0 
L 628 4666 
z
" transform="scale(0.015625)"/>
       <path id="DejaVuSans-67" d="M 2906 1791 
Q 2906 2416 2648 2759 
Q 2391 3103 1925 3103 
Q 1463 3103 1205 2759 
Q 947 2416 947 1791 
Q 947 1169 1205 825 
Q 1463 481 1925 481 
Q 2391 481 2648 825 
Q 2906 1169 2906 1791 
z
M 3481 434 
Q 3481 -459 3084 -895 
Q 2688 -1331 1869 -1331 
Q 1566 -1331 1297 -1286 
Q 1028 -1241 775 -1147 
L 775 -588 
Q 1028 -725 1275 -790 
Q 1522 -856 1778 -856 
Q 2344 -856 2625 -561 
Q 2906 -266 2906 331 
L 2906 616 
Q 2728 306 2450 153 
Q 2172 0 1784 0 
Q 1141 0 747 490 
Q 353 981 353 1791 
Q 353 2603 747 3093 
Q 1141 3584 1784 3584 
Q 2172 3584 2450 3431 
Q 2728 3278 2906 2969 
L 2906 3500 
L 3481 3500 
L 3481 434 
z
" transform="scale(0.015625)"/>
       <path id="DejaVuSans-46" d="M 628 4666 
L 3309 4666 
L 3309 4134 
L 1259 4134 
L 1259 2759 
L 3109 2759 
L 3109 2228 
L 1259 2228 
L 1259 0 
L 628 0 
L 628 4666 
z
" transform="scale(0.015625)"/>
       <path id="DejaVuSans-71" d="M 947 1747 
Q 947 1113 1208 752 
Q 1469 391 1925 391 
Q 2381 391 2643 752 
Q 2906 1113 2906 1747 
Q 2906 2381 2643 2742 
Q 2381 3103 1925 3103 
Q 1469 3103 1208 2742 
Q 947 2381 947 1747 
z
M 2906 525 
Q 2725 213 2448 61 
Q 2172 -91 1784 -91 
Q 1150 -91 751 415 
Q 353 922 353 1747 
Q 353 2572 751 3078 
Q 1150 3584 1784 3584 
Q 2172 3584 2448 3432 
Q 2725 3281 2906 2969 
L 2906 3500 
L 3481 3500 
L 3481 -1331 
L 2906 -1331 
L 2906 525 
z
" transform="scale(0.015625)"/>
       <path id="DejaVuSans-79" d="M 2059 -325 
Q 1816 -950 1584 -1140 
Q 1353 -1331 966 -1331 
L 506 -1331 
L 506 -850 
L 844 -850 
Q 1081 -850 1212 -737 
Q 1344 -625 1503 -206 
L 1606 56 
L 191 3500 
L 800 3500 
L 1894 763 
L 2988 3500 
L 3597 3500 
L 2059 -325 
z
" transform="scale(0.015625)"/>
       <path id="DejaVuSans-70" d="M 1159 525 
L 1159 -1331 
L 581 -1331 
L 581 3500 
L 1159 3500 
L 1159 2969 
Q 1341 3281 1617 3432 
Q 1894 3584 2278 3584 
Q 2916 3584 3314 3078 
Q 3713 2572 3713 1747 
Q 3713 922 3314 415 
Q 2916 -91 2278 -91 
Q 1894 -91 1617 61 
Q 1341 213 1159 525 
z
M 3116 1747 
Q 3116 2381 2855 2742 
Q 2594 3103 2138 3103 
Q 1681 3103 1420 2742 
Q 1159 2381 1159 1747 
Q 1159 1113 1420 752 
Q 1681 391 2138 391 
Q 2594 391 2855 752 
Q 3116 1113 3116 1747 
z
" transform="scale(0.015625)"/>
       <path id="DejaVuSans-6d" d="M 3328 2828 
Q 3544 3216 3844 3400 
Q 4144 3584 4550 3584 
Q 5097 3584 5394 3201 
Q 5691 2819 5691 2113 
L 5691 0 
L 5113 0 
L 5113 2094 
Q 5113 2597 4934 2840 
Q 4756 3084 4391 3084 
Q 3944 3084 3684 2787 
Q 3425 2491 3425 1978 
L 3425 0 
L 2847 0 
L 2847 2094 
Q 2847 2600 2669 2842 
Q 2491 3084 2119 3084 
Q 1678 3084 1418 2786 
Q 1159 2488 1159 1978 
L 1159 0 
L 581 0 
L 581 3500 
L 1159 3500 
L 1159 2956 
Q 1356 3278 1631 3431 
Q 1906 3584 2284 3584 
Q 2666 3584 2933 3390 
Q 3200 3197 3328 2828 
z
" transform="scale(0.015625)"/>
      </defs>
      <use xlink:href="#DejaVuSans-4c"/>
      <use xlink:href="#DejaVuSans-6f" x="53.962891"/>
      <use xlink:href="#DejaVuSans-67" x="115.144531"/>
      <use xlink:href="#DejaVuSans-32" x="178.621094"/>
      <use xlink:href="#DejaVuSans-20" x="242.244141"/>
      <use xlink:href="#DejaVuSans-46" x="274.03125"/>
      <use xlink:href="#DejaVuSans-72" x="324.300781"/>
      <use xlink:href="#DejaVuSans-65" x="363.164062"/>
      <use xlink:href="#DejaVuSans-71" x="424.6875"/>
      <use xlink:href="#DejaVuSans-75" x="488.164062"/>
      <use xlink:href="#DejaVuSans-65" x="551.542969"/>
      <use xlink:href="#DejaVuSans-6e" x="613.066406"/>
      <use xlink:href="#DejaVuSans-63" x="676.445312"/>
      <use xlink:href="#DejaVuSans-79" x="731.425781"/>
      <use xlink:href="#DejaVuSans-20" x="790.605469"/>
      <use xlink:href="#DejaVuSans-6f" x="822.392578"/>
      <use xlink:href="#DejaVuSans-66" x="883.574219"/>
      <use xlink:href="#DejaVuSans-20" x="918.779297"/>
      <use xlink:href="#DejaVuSans-70" x="950.566406"/>
      <use xlink:href="#DejaVuSans-6f" x="1014.042969"/>
      <use xlink:href="#DejaVuSans-6c" x="1075.224609"/>
      <use xlink:href="#DejaVuSans-79" x="1103.007812"/>
      <use xlink:href="#DejaVuSans-6d" x="1162.1875"/>
      <use xlink:href="#DejaVuSans-6f" x="1259.599609"/>
      <use xlink:href="#DejaVuSans-72" x="1320.78125"/>
      <use xlink:href="#DejaVuSans-70" x="1361.894531"/>
      <use xlink:href="#DejaVuSans-68" x="1425.371094"/>
      <use xlink:href="#DejaVuSans-69" x="1488.75"/>
      <use xlink:href="#DejaVuSans-73" x="1516.533203"/>
      <use xlink:href="#DejaVuSans-6d" x="1568.632812"/>
     </g>
    </g>
   </g>
   <g id="line2d_12">
    <path d="M 132.682813 324.72 
L 132.682813 22.32 
" clip-path="url(#pa3f2ca2a87)" style="fill: none; stroke: #363636; stroke-width: 1.5; stroke-linecap: square"/>
   </g>
   <g id="line2d_13">
    <path d="M 132.682813 286.561369 
L 132.682813 163.479821 
" clip-path="url(#pa3f2ca2a87)" style="fill: none; stroke: #363636; stroke-width: 4.5; stroke-linecap: square"/>
   </g>
   <g id="line2d_14">
    <path d="M 233.122813 324.72 
L 367.042812 324.72 
" clip-path="url(#pa3f2ca2a87)" style="fill: none; stroke: #363636; stroke-width: 1.5; stroke-linecap: square"/>
   </g>
   <g id="patch_3">
    <path d="M 48.982813 339.84 
L 48.982813 7.2 
" style="fill: none; stroke: #000000; stroke-width: 0.8; stroke-linejoin: miter; stroke-linecap: square"/>
   </g>
   <g id="patch_4">
    <path d="M 383.782813 339.84 
L 383.782813 7.2 
" style="fill: none; stroke: #000000; stroke-width: 0.8; stroke-linejoin: miter; stroke-linecap: square"/>
   </g>
   <g id="patch_5">
    <path d="M 48.982813 339.84 
L 383.782813 339.84 
" style="fill: none; stroke: #000000; stroke-width: 0.8; stroke-linejoin: miter; stroke-linecap: square"/>
   </g>
   <g id="patch_6">
    <path d="M 48.982813 7.2 
L 383.782813 7.2 
" style="fill: none; stroke: #000000; stroke-width: 0.8; stroke-linejoin: miter; stroke-linecap: square"/>
   </g>
   <g id="PathCollection_1">
    <defs>
     <path id="md578370cb3" d="M 0 1.5 
C 0.397805 1.5 0.77937 1.341951 1.06066 1.06066 
C 1.341951 0.77937 1.5 0.397805 1.5 0 
C 1.5 -0.397805 1.341951 -0.77937 1.06066 -1.06066 
C 0.77937 -1.341951 0.397805 -1.5 0 -1.5 
C -0.397805 -1.5 -0.77937 -1.341951 -1.06066 -1.06066 
C -1.341951 -0.77937 -1.5 -0.397805 -1.5 0 
C -1.5 0.397805 -1.341951 0.77937 -1.06066 1.06066 
C -0.77937 1.341951 -0.397805 1.5 0 1.5 
z
" style="stroke: #363636"/>
    </defs>
    <g clip-path="url(#pa3f2ca2a87)">
     <use xlink:href="#md578370cb3" x="132.682813" y="248.402737" style="fill: #ffffff; stroke: #363636"/>
    </g>
   </g>
   <g id="PathCollection_2">
    <defs>
     <path id="mb713af1c21" d="M 0 2.5 
C 0.663008 2.5 1.29895 2.236584 1.767767 1.767767 
C 2.236584 1.29895 2.5 0.663008 2.5 0 
C 2.5 -0.663008 2.236584 -1.29895 1.767767 -1.767767 
C 1.29895 -2.236584 0.663008 -2.5 0 -2.5 
C -0.663008 -2.5 -1.29895 -2.236584 -1.767767 -1.767767 
C -2.236584 -1.29895 -2.5 -0.663008 -2.5 0 
C -2.5 0.663008 -2.236584 1.29895 -1.767767 1.767767 
C -1.29895 2.236584 -0.663008 2.5 0 2.5 
z
"/>
    </defs>
    <g clip-path="url(#pa3f2ca2a87)">
     <use xlink:href="#mb713af1c21" x="147.562848" y="286.561369"/>
     <use xlink:href="#mb713af1c21" x="147.814814" y="165.601369"/>
     <use xlink:href="#mb713af1c21" x="135.497895" y="226.081369"/>
     <use xlink:href="#mb713af1c21" x="141.765515" y="22.32"/>
     <use xlink:href="#mb713af1c21" x="144.275772" y="125.934389"/>
     <use xlink:href="#mb713af1c21" x="129.475945" y="248.402737"/>
     <use xlink:href="#mb713af1c21" x="134.426065" y="109.358171"/>
     <use xlink:href="#mb713af1c21" x="120.307106" y="157.115178"/>
     <use xlink:href="#mb713af1c21" x="145.667385" y="93.246338"/>
     <use xlink:href="#mb713af1c21" x="135.286097" y="248.402737"/>
     <use xlink:href="#mb713af1c21" x="128.216537" y="248.402737"/>
     <use xlink:href="#mb713af1c21" x="123.875944" y="165.601369"/>
     <use xlink:href="#mb713af1c21" x="119.749663" y="264.24"/>
     <use xlink:href="#mb713af1c21" x="140.963746" y="324.72"/>
     <use xlink:href="#mb713af1c21" x="147.970336" y="324.72"/>
     <use xlink:href="#mb713af1c21" x="137.360239" y="286.561369"/>
     <use xlink:href="#mb713af1c21" x="121.724399" y="324.72"/>
     <use xlink:href="#mb713af1c21" x="131.514132" y="248.402737"/>
     <use xlink:href="#mb713af1c21" x="123.440051" y="165.601369"/>
     <use xlink:href="#mb713af1c21" x="125.138691" y="286.561369"/>
    </g>
   </g>
   <g id="PathCollection_3">
    <g clip-path="url(#pa3f2ca2a87)">
     <use xlink:href="#mb713af1c21" x="291.412468" y="324.72"/>
     <use xlink:href="#mb713af1c21" x="299.888991" y="324.72"/>
    </g>
   </g>
  </g>
 </g>
 <defs>
  <clipPath id="pa3f2ca2a87">
   <rect x="48.982813" y="7.2" width="334.8" height="332.64"/>
  </clipPath>
 </defs>
</svg>
