<?xml version="1.0" encoding="utf-8" standalone="no"?>
<!DOCTYPE svg PUBLIC "-//W3C//DTD SVG 1.1//EN"
  "http://www.w3.org/Graphics/SVG/1.1/DTD/svg11.dtd">
<svg xmlns:xlink="http://www.w3.org/1999/xlink" width="542.977503pt" height="210.794687pt" viewBox="0 0 542.977503 210.794687" xmlns="http://www.w3.org/2000/svg" version="1.1">
 <metadata>
  <rdf:RDF xmlns:dc="http://purl.org/dc/elements/1.1/" xmlns:cc="http://creativecommons.org/ns#" xmlns:rdf="http://www.w3.org/1999/02/22-rdf-syntax-ns#">
   <cc:Work>
    <dc:type rdf:resource="http://purl.org/dc/dcmitype/StillImage"/>
    <dc:date>2024-06-17T13:50:23.977387</dc:date>
    <dc:format>image/svg+xml</dc:format>
    <dc:creator>
     <cc:Agent>
      <dc:title>Matplotlib v3.7.2, https://matplotlib.org/</dc:title>
     </cc:Agent>
    </dc:creator>
   </cc:Work>
  </rdf:RDF>
 </metadata>
 <defs>
  <style type="text/css">*{stroke-linejoin: round; stroke-linecap: butt}</style>
 </defs>
 <g id="figure_1">
  <g id="patch_1">
   <path d="M 0 210.794687 
L 542.977503 210.794687 
L 542.977503 0 
L 0 0 
L 0 210.794687 
z
" style="fill: none"/>
  </g>
  <g id="axes_1">
   <g id="patch_2">
    <path d="M 50.14375 173.238437 
L 225.859662 173.238437 
L 225.859662 20.798437 
L 50.14375 20.798437 
L 50.14375 173.238437 
z
" style="fill: none"/>
   </g>
   <g id="PolyCollection_1">
    <defs>
     <path id="m0034ac1554" d="M 58.130837 -44.865198 
L 58.130837 -44.485341 
L 59.812329 -45.0799 
L 61.493821 -44.881301 
L 63.175313 -44.749589 
L 64.856805 -44.683527 
L 66.538297 -44.749589 
L 68.219789 -44.848683 
L 69.901281 -44.947776 
L 71.582773 -45.129447 
L 73.264265 -45.327633 
L 74.945757 -45.591881 
L 76.627249 -45.872645 
L 78.308741 -46.15341 
L 79.990233 -46.582813 
L 81.671725 -47.028733 
L 83.353217 -47.491167 
L 85.034709 -48.102242 
L 86.716201 -48.844202 
L 88.397692 -49.605155 
L 90.079184 -50.578333 
L 91.760676 -51.520957 
L 93.442168 -52.907436 
L 95.12366 -54.378144 
L 96.805152 -55.814582 
L 98.486644 -57.697765 
L 100.168136 -59.316287 
L 101.849628 -61.298151 
L 103.53112 -63.659872 
L 105.212612 -66.351904 
L 106.894104 -68.185127 
L 108.575596 -71.619119 
L 110.257088 -75.534539 
L 111.93858 -77.417309 
L 113.620072 -81.747681 
L 115.301564 -86.17054 
L 116.983056 -90.332454 
L 118.664548 -94.494368 
L 120.34604 -97.960978 
L 122.027532 -103.441244 
L 123.709024 -108.242309 
L 125.390516 -113.322073 
L 127.072008 -117.318418 
L 128.7535 -123.264422 
L 130.434992 -128.169535 
L 132.116484 -132.810399 
L 133.797976 -137.451263 
L 135.479468 -141.051649 
L 137.16096 -144.800674 
L 138.842452 -148.268936 
L 140.523944 -152.117055 
L 142.205436 -155.502738 
L 143.886928 -158.310379 
L 145.56842 -161.084988 
L 147.249912 -163.808399 
L 148.931404 -166.13874 
L 150.612896 -168.599554 
L 152.294388 -170.465809 
L 153.97588 -172.215217 
L 155.657372 -173.653307 
L 157.338864 -174.709888 
L 159.020356 -175.172735 
L 160.701848 -175.701232 
L 162.383339 -176.477462 
L 164.064831 -176.477462 
L 165.746323 -176.840804 
L 167.427815 -176.972928 
L 169.109307 -177.154599 
L 170.790799 -177.170289 
L 172.472291 -177.202081 
L 174.153783 -177.03899 
L 175.835275 -177.581938 
L 177.516767 -177.451053 
L 179.198259 -177.650065 
L 180.879751 -177.534456 
L 182.561243 -177.683096 
L 184.242735 -177.797879 
L 185.924227 -177.764022 
L 187.605719 -177.748745 
L 189.287211 -177.798292 
L 190.968703 -177.980376 
L 192.650195 -178.129015 
L 194.331687 -177.96386 
L 196.013179 -178.029922 
L 197.694671 -178.095984 
L 199.376163 -178.110848 
L 201.057655 -178.1125 
L 202.739147 -178.244624 
L 204.420639 -178.145531 
L 206.102131 -178.22687 
L 207.783623 -178.376748 
L 209.465115 -178.327202 
L 211.146607 -178.409779 
L 212.828099 -178.376748 
L 214.509591 -178.408954 
L 216.191083 -178.640997 
L 217.872575 -178.590624 
L 217.872575 -182.902004 
L 217.872575 -182.902004 
L 216.191083 -183.051056 
L 214.509591 -183.067159 
L 212.828099 -183.001097 
L 211.146607 -183.019264 
L 209.465115 -183.001097 
L 207.783623 -182.918519 
L 206.102131 -183.001097 
L 204.420639 -182.819839 
L 202.739147 -182.802911 
L 201.057655 -182.753364 
L 199.376163 -182.76988 
L 197.694671 -182.736848 
L 196.013179 -182.638168 
L 194.331687 -182.670786 
L 192.650195 -182.688128 
L 190.968703 -182.558068 
L 189.287211 -182.604724 
L 187.605719 -182.57417 
L 185.924227 -182.45691 
L 184.242735 -182.406538 
L 182.561243 -182.357404 
L 180.879751 -182.109258 
L 179.198259 -182.489116 
L 177.516767 -182.340476 
L 175.835275 -182.34254 
L 174.153783 -182.09522 
L 172.472291 -182.292994 
L 170.790799 -182.044022 
L 169.109307 -182.059712 
L 167.427815 -181.811979 
L 165.746323 -181.631134 
L 164.064831 -181.614205 
L 162.383339 -181.103462 
L 160.701848 -180.970925 
L 159.020356 -180.358612 
L 157.338864 -179.714506 
L 155.657372 -178.757018 
L 153.97588 -177.501425 
L 152.294388 -176.213214 
L 150.612896 -174.645064 
L 148.931404 -172.844046 
L 147.249912 -170.812635 
L 145.56842 -168.784941 
L 143.886928 -166.535113 
L 142.205436 -163.925659 
L 140.523944 -161.283174 
L 138.842452 -159.054403 
L 137.16096 -155.469707 
L 135.479468 -152.480396 
L 133.797976 -149.111228 
L 132.116484 -146.055855 
L 130.434992 -142.062399 
L 128.7535 -138.27704 
L 127.072008 -134.517279 
L 125.390516 -130.481709 
L 123.709024 -126.864808 
L 122.027532 -122.42213 
L 120.34604 -118.83826 
L 118.664548 -113.854286 
L 116.983056 -109.442162 
L 115.301564 -104.998658 
L 113.620072 -100.373897 
L 111.93858 -96.262355 
L 110.257088 -91.654522 
L 108.575596 -86.997143 
L 106.894104 -83.528056 
L 105.212612 -79.0028 
L 103.53112 -75.667902 
L 101.849628 -72.148855 
L 100.168136 -68.650865 
L 98.486644 -65.674767 
L 96.805152 -62.817993 
L 95.12366 -60.356766 
L 93.442168 -57.962014 
L 91.760676 -55.5012 
L 90.079184 -53.783585 
L 88.397692 -52.150612 
L 86.716201 -50.744727 
L 85.034709 -49.506062 
L 83.353217 -48.515543 
L 81.671725 -47.78886 
L 79.990233 -47.127826 
L 78.308741 -46.615844 
L 76.627249 -46.318565 
L 74.945757 -45.971739 
L 73.264265 -45.608397 
L 71.582773 -45.426726 
L 69.901281 -45.212024 
L 68.219789 -45.096416 
L 66.538297 -44.997322 
L 64.856805 -44.964291 
L 63.175313 -45.013838 
L 61.493821 -45.112931 
L 59.812329 -45.327633 
L 58.130837 -44.865198 
z
" style="stroke: #b85b36; stroke-opacity: 0.2"/>
    </defs>
    <g clip-path="url(#p027a253180)">
     <use xlink:href="#m0034ac1554" x="0" y="210.794687" style="fill: #b85b36; fill-opacity: 0.2; stroke: #b85b36; stroke-opacity: 0.2"/>
    </g>
   </g>
   <g id="PolyCollection_2">
    <defs>
     <path id="m8a1db7cc59" d="M 58.130837 -45.66455 
L 58.130837 -45.426726 
L 59.812329 -45.862736 
L 61.493821 -45.486182 
L 63.175313 -45.149265 
L 64.856805 -45.129447 
L 66.538297 -45.188903 
L 68.219789 -45.36727 
L 69.901281 -45.545638 
L 71.582773 -45.763643 
L 73.264265 -46.080741 
L 74.945757 -46.477114 
L 76.627249 -46.873487 
L 78.308741 -47.349134 
L 79.990233 -47.943693 
L 81.671725 -48.577889 
L 83.353217 -49.330998 
L 85.034709 -50.183199 
L 86.716201 -51.154312 
L 88.397692 -52.303793 
L 90.079184 -53.592005 
L 91.760676 -55.137858 
L 93.442168 -56.762986 
L 95.12366 -58.60612 
L 96.805152 -60.745542 
L 98.486644 -63.124769 
L 100.168136 -65.780466 
L 101.849628 -68.609081 
L 103.53112 -72.023337 
L 105.212612 -75.293412 
L 106.894104 -79.177865 
L 108.575596 -83.372479 
L 110.257088 -87.283687 
L 111.93858 -91.841478 
L 113.620072 -96.317517 
L 115.301564 -100.859453 
L 116.983056 -105.532193 
L 118.664548 -110.21385 
L 120.34604 -114.772137 
L 122.027532 -119.409698 
L 123.709024 -123.849072 
L 125.390516 -128.209172 
L 127.072008 -132.351267 
L 128.7535 -136.691549 
L 130.434992 -140.417453 
L 132.116484 -144.301905 
L 133.797976 -147.948535 
L 135.479468 -151.337521 
L 137.16096 -154.883076 
L 138.842452 -157.639848 
L 140.523944 -160.672099 
L 142.205436 -163.248522 
L 143.886928 -165.803145 
L 145.56842 -168.024814 
L 147.249912 -170.125589 
L 148.931404 -171.770536 
L 150.612896 -173.275762 
L 152.294388 -174.406415 
L 153.97588 -175.298253 
L 155.657372 -175.912631 
L 157.338864 -176.328823 
L 159.020356 -176.685063 
L 160.701848 -176.962523 
L 162.383339 -177.175574 
L 164.064831 -177.022475 
L 165.746323 -177.359392 
L 167.427815 -177.081931 
L 169.109307 -177.458485 
L 170.790799 -177.458485 
L 172.472291 -177.537759 
L 174.153783 -177.359392 
L 175.835275 -177.617034 
L 177.516767 -177.458485 
L 179.198259 -177.617034 
L 180.879751 -177.636853 
L 182.561243 -177.557578 
L 184.242735 -177.735946 
L 185.924227 -177.835039 
L 187.605719 -177.81522 
L 189.287211 -177.835039 
L 190.968703 -177.914314 
L 192.650195 -177.81522 
L 194.331687 -177.854858 
L 196.013179 -177.953951 
L 197.694671 -177.931655 
L 199.376163 -177.973769 
L 201.057655 -177.973769 
L 202.739147 -178.033225 
L 204.420639 -178.033225 
L 206.102131 -178.092681 
L 207.783623 -177.953951 
L 209.465115 -178.072863 
L 211.146607 -178.132319 
L 212.828099 -178.211593 
L 214.509591 -178.231412 
L 216.191083 -178.290868 
L 217.872575 -178.330505 
L 217.872575 -180.114182 
L 217.872575 -180.114182 
L 216.191083 -180.114182 
L 214.509591 -180.154315 
L 212.828099 -180.036394 
L 211.146607 -180.074545 
L 209.465115 -179.975452 
L 207.783623 -180.074545 
L 206.102131 -179.995766 
L 204.420639 -179.99527 
L 202.739147 -179.816903 
L 201.057655 -179.896177 
L 199.376163 -179.876359 
L 197.694671 -179.777265 
L 196.013179 -179.816903 
L 194.331687 -179.640517 
L 192.650195 -179.717809 
L 190.968703 -179.757447 
L 189.287211 -179.757447 
L 187.605719 -179.618716 
L 185.924227 -179.618716 
L 184.242735 -179.579079 
L 182.561243 -179.638535 
L 180.879751 -179.519623 
L 179.198259 -179.479986 
L 177.516767 -179.380893 
L 175.835275 -179.519623 
L 174.153783 -179.479986 
L 172.472291 -179.400711 
L 170.790799 -179.400711 
L 169.109307 -179.301618 
L 167.427815 -179.143069 
L 165.746323 -179.143069 
L 164.064831 -179.063794 
L 162.383339 -179.083613 
L 160.701848 -178.905245 
L 159.020356 -178.647603 
L 157.338864 -178.389961 
L 155.657372 -178.092681 
L 153.97588 -177.656671 
L 152.294388 -177.141387 
L 150.612896 -176.36846 
L 148.931404 -175.278435 
L 147.249912 -174.128954 
L 145.56842 -172.543463 
L 143.886928 -170.680511 
L 142.205436 -168.639191 
L 140.523944 -166.498779 
L 138.842452 -164.021449 
L 137.16096 -161.108109 
L 135.479468 -158.670417 
L 133.797976 -155.664425 
L 132.116484 -152.749599 
L 130.434992 -149.494388 
L 128.7535 -146.006308 
L 127.072008 -142.260586 
L 125.390516 -138.118491 
L 123.709024 -134.551136 
L 122.027532 -130.012668 
L 120.34604 -126.108397 
L 118.664548 -121.629385 
L 116.983056 -116.793637 
L 115.301564 -112.552449 
L 113.620072 -107.677065 
L 111.93858 -102.702587 
L 110.257088 -97.747927 
L 108.575596 -93.090548 
L 106.894104 -88.69081 
L 105.212612 -84.291073 
L 103.53112 -79.911154 
L 101.849628 -76.066339 
L 100.168136 -72.498984 
L 98.486644 -69.347821 
L 96.805152 -66.176839 
L 95.12366 -63.322955 
L 93.442168 -60.807475 
L 91.760676 -58.546664 
L 90.079184 -56.465707 
L 88.397692 -54.761304 
L 86.716201 -53.255583 
L 85.034709 -51.966876 
L 83.353217 -50.857033 
L 81.671725 -49.925557 
L 79.990233 -49.172449 
L 78.308741 -48.379703 
L 76.627249 -47.785144 
L 74.945757 -47.230222 
L 73.264265 -46.754575 
L 71.582773 -46.298746 
L 69.901281 -45.942011 
L 68.219789 -45.644731 
L 66.538297 -45.446545 
L 64.856805 -45.446545 
L 63.175313 -45.506001 
L 61.493821 -46.080741 
L 59.812329 -46.140197 
L 58.130837 -45.66455 
z
" style="stroke: #c9b54e; stroke-opacity: 0.2"/>
    </defs>
    <g clip-path="url(#p027a253180)">
     <use xlink:href="#m8a1db7cc59" x="0" y="210.794687" style="fill: #c9b54e; fill-opacity: 0.2; stroke: #c9b54e; stroke-opacity: 0.2"/>
    </g>
   </g>
   <g id="PolyCollection_3">
    <defs>
     <path id="m00fb6a5544" d="M 58.130837 -44.633981 
L 58.130837 -44.633981 
L 59.812329 -45.525819 
L 61.493821 -45.327633 
L 63.175313 -45.030353 
L 64.856805 -45.030353 
L 66.538297 -45.129447 
L 68.219789 -45.327633 
L 69.901281 -45.426726 
L 71.582773 -45.624913 
L 73.264265 -45.922192 
L 74.945757 -46.219472 
L 76.627249 -46.516751 
L 78.308741 -46.913124 
L 79.990233 -47.40859 
L 81.671725 -47.904056 
L 83.353217 -48.597708 
L 85.034709 -49.489547 
L 86.716201 -50.579572 
L 88.397692 -51.669597 
L 90.079184 -52.858715 
L 91.760676 -54.345113 
L 93.442168 -56.12879 
L 95.12366 -58.507026 
L 96.805152 -61.182542 
L 98.486644 -63.957152 
L 100.168136 -67.02904 
L 101.849628 -70.001836 
L 103.53112 -73.371004 
L 105.212612 -77.433825 
L 106.894104 -81.595738 
L 108.575596 -86.054932 
L 110.257088 -90.216845 
L 111.93858 -94.874225 
L 113.620072 -99.333418 
L 115.301564 -103.792612 
L 116.983056 -108.152712 
L 118.664548 -112.314626 
L 120.34604 -116.575632 
L 122.027532 -120.935733 
L 123.709024 -125.494019 
L 125.390516 -129.655933 
L 127.072008 -134.115126 
L 128.7535 -138.376133 
L 130.434992 -142.042581 
L 132.116484 -145.907215 
L 133.797976 -149.672756 
L 135.479468 -152.843738 
L 137.16096 -155.816533 
L 138.842452 -158.690236 
L 140.523944 -161.663031 
L 142.205436 -164.239454 
L 143.886928 -166.716784 
L 145.56842 -168.995927 
L 147.249912 -171.175977 
L 148.931404 -173.058747 
L 150.612896 -175.040611 
L 152.294388 -176.527009 
L 153.97588 -177.81522 
L 155.657372 -178.607966 
L 157.338864 -179.202525 
L 159.020356 -179.499804 
L 160.701848 -179.697991 
L 162.383339 -179.797084 
L 164.064831 -179.896177 
L 165.746323 -179.896177 
L 167.427815 -179.99527 
L 169.109307 -179.99527 
L 170.790799 -180.094364 
L 172.472291 -179.99527 
L 174.153783 -180.094364 
L 175.835275 -179.99527 
L 177.516767 -179.99527 
L 179.198259 -180.094364 
L 180.879751 -179.99527 
L 182.561243 -180.094364 
L 184.242735 -180.094364 
L 185.924227 -180.094364 
L 187.605719 -180.094364 
L 189.287211 -180.094364 
L 190.968703 -180.094364 
L 192.650195 -180.094364 
L 194.331687 -180.094364 
L 196.013179 -180.094364 
L 197.694671 -180.094364 
L 199.376163 -180.094364 
L 201.057655 -180.094364 
L 202.739147 -180.094364 
L 204.420639 -180.094364 
L 206.102131 -180.094364 
L 207.783623 -180.094364 
L 209.465115 -179.99527 
L 211.146607 -180.094364 
L 212.828099 -180.094364 
L 214.509591 -180.094364 
L 216.191083 -180.094364 
L 217.872575 -179.99527 
L 217.872575 -182.373507 
L 217.872575 -182.373507 
L 216.191083 -182.373507 
L 214.509591 -182.373507 
L 212.828099 -182.373507 
L 211.146607 -182.274414 
L 209.465115 -182.17532 
L 207.783623 -182.17532 
L 206.102131 -182.17532 
L 204.420639 -182.076227 
L 202.739147 -182.17532 
L 201.057655 -182.17532 
L 199.376163 -182.076227 
L 197.694671 -182.076227 
L 196.013179 -182.076227 
L 194.331687 -181.977134 
L 192.650195 -181.977134 
L 190.968703 -181.977134 
L 189.287211 -181.878041 
L 187.605719 -181.778948 
L 185.924227 -181.878041 
L 184.242735 -181.679855 
L 182.561243 -181.679855 
L 180.879751 -181.679855 
L 179.198259 -181.580761 
L 177.516767 -181.580761 
L 175.835275 -181.481668 
L 174.153783 -181.382575 
L 172.472291 -181.382575 
L 170.790799 -181.283482 
L 169.109307 -181.283482 
L 167.427815 -181.184389 
L 165.746323 -181.085295 
L 164.064831 -180.887109 
L 162.383339 -180.788016 
L 160.701848 -180.29255 
L 159.020356 -179.99527 
L 157.338864 -179.499804 
L 155.657372 -178.707059 
L 153.97588 -177.81522 
L 152.294388 -176.923382 
L 150.612896 -175.63517 
L 148.931404 -174.148773 
L 147.249912 -172.365095 
L 145.56842 -170.185045 
L 143.886928 -167.905902 
L 142.205436 -165.626759 
L 140.523944 -163.248522 
L 138.842452 -160.573006 
L 137.16096 -157.600211 
L 135.479468 -155.023788 
L 133.797976 -151.951899 
L 132.116484 -148.483638 
L 130.434992 -145.11447 
L 128.7535 -141.150742 
L 127.072008 -137.187015 
L 125.390516 -133.223287 
L 123.709024 -128.96228 
L 122.027532 -124.60218 
L 120.34604 -120.341173 
L 118.664548 -115.782887 
L 116.983056 -111.323694 
L 115.301564 -106.765407 
L 113.620072 -102.207121 
L 111.93858 -97.648834 
L 110.257088 -93.090548 
L 108.575596 -88.829541 
L 106.894104 -84.76672 
L 105.212612 -80.902086 
L 103.53112 -77.136545 
L 101.849628 -73.767377 
L 100.168136 -70.596395 
L 98.486644 -67.722693 
L 96.805152 -65.047177 
L 95.12366 -62.569847 
L 93.442168 -60.389797 
L 91.760676 -58.407933 
L 90.079184 -56.624256 
L 88.397692 -55.038765 
L 86.716201 -53.552367 
L 85.034709 -52.264156 
L 83.353217 -51.174131 
L 81.671725 -50.183199 
L 79.990233 -49.390454 
L 78.308741 -48.597708 
L 76.627249 -47.904056 
L 74.945757 -47.309497 
L 73.264265 -46.714938 
L 71.582773 -46.219472 
L 69.901281 -45.823099 
L 68.219789 -45.525819 
L 66.538297 -45.22854 
L 64.856805 -45.129447 
L 63.175313 -45.129447 
L 61.493821 -45.525819 
L 59.812329 -45.525819 
L 58.130837 -44.633981 
z
" style="stroke: #6c6c6c; stroke-opacity: 0.2"/>
    </defs>
    <g clip-path="url(#p027a253180)">
     <use xlink:href="#m00fb6a5544" x="0" y="210.794687" style="fill: #6c6c6c; fill-opacity: 0.2; stroke: #6c6c6c; stroke-opacity: 0.2"/>
    </g>
   </g>
   <g id="matplotlib.axis_1">
    <g id="xtick_1">
     <g id="line2d_1">
      <defs>
       <path id="m1348de444c" d="M 0 0 
L 0 3.5 
" style="stroke: #000000; stroke-width: 0.8"/>
      </defs>
      <g>
       <use xlink:href="#m1348de444c" x="58.130837" y="173.238437" style="stroke: #000000; stroke-width: 0.8"/>
      </g>
     </g>
     <g id="text_1">
      <!-- 0 -->
      <g transform="translate(54.949587 187.836875) scale(0.1 -0.1)">
       <defs>
        <path id="DejaVuSans-30" d="M 2034 4250 
Q 1547 4250 1301 3770 
Q 1056 3291 1056 2328 
Q 1056 1369 1301 889 
Q 1547 409 2034 409 
Q 2525 409 2770 889 
Q 3016 1369 3016 2328 
Q 3016 3291 2770 3770 
Q 2525 4250 2034 4250 
z
M 2034 4750 
Q 2819 4750 3233 4129 
Q 3647 3509 3647 2328 
Q 3647 1150 3233 529 
Q 2819 -91 2034 -91 
Q 1250 -91 836 529 
Q 422 1150 422 2328 
Q 422 3509 836 4129 
Q 1250 4750 2034 4750 
z
" transform="scale(0.015625)"/>
       </defs>
       <use xlink:href="#DejaVuSans-30"/>
      </g>
     </g>
    </g>
    <g id="xtick_2">
     <g id="line2d_2">
      <g>
       <use xlink:href="#m1348de444c" x="125.390516" y="173.238437" style="stroke: #000000; stroke-width: 0.8"/>
      </g>
     </g>
     <g id="text_2">
      <!-- 10 -->
      <g transform="translate(119.028016 187.836875) scale(0.1 -0.1)">
       <defs>
        <path id="DejaVuSans-31" d="M 794 531 
L 1825 531 
L 1825 4091 
L 703 3866 
L 703 4441 
L 1819 4666 
L 2450 4666 
L 2450 531 
L 3481 531 
L 3481 0 
L 794 0 
L 794 531 
z
" transform="scale(0.015625)"/>
       </defs>
       <use xlink:href="#DejaVuSans-31"/>
       <use xlink:href="#DejaVuSans-30" x="63.623047"/>
      </g>
     </g>
    </g>
    <g id="xtick_3">
     <g id="line2d_3">
      <g>
       <use xlink:href="#m1348de444c" x="192.650195" y="173.238437" style="stroke: #000000; stroke-width: 0.8"/>
      </g>
     </g>
     <g id="text_3">
      <!-- 20 -->
      <g transform="translate(186.287695 187.836875) scale(0.1 -0.1)">
       <defs>
        <path id="DejaVuSans-32" d="M 1228 531 
L 3431 531 
L 3431 0 
L 469 0 
L 469 531 
Q 828 903 1448 1529 
Q 2069 2156 2228 2338 
Q 2531 2678 2651 2914 
Q 2772 3150 2772 3378 
Q 2772 3750 2511 3984 
Q 2250 4219 1831 4219 
Q 1534 4219 1204 4116 
Q 875 4013 500 3803 
L 500 4441 
Q 881 4594 1212 4672 
Q 1544 4750 1819 4750 
Q 2544 4750 2975 4387 
Q 3406 4025 3406 3419 
Q 3406 3131 3298 2873 
Q 3191 2616 2906 2266 
Q 2828 2175 2409 1742 
Q 1991 1309 1228 531 
z
" transform="scale(0.015625)"/>
       </defs>
       <use xlink:href="#DejaVuSans-32"/>
       <use xlink:href="#DejaVuSans-30" x="63.623047"/>
      </g>
     </g>
    </g>
    <g id="text_4">
     <!-- time (h) -->
     <g transform="translate(118.046237 201.515) scale(0.1 -0.1)">
      <defs>
       <path id="DejaVuSans-74" d="M 1172 4494 
L 1172 3500 
L 2356 3500 
L 2356 3053 
L 1172 3053 
L 1172 1153 
Q 1172 725 1289 603 
Q 1406 481 1766 481 
L 2356 481 
L 2356 0 
L 1766 0 
Q 1100 0 847 248 
Q 594 497 594 1153 
L 594 3053 
L 172 3053 
L 172 3500 
L 594 3500 
L 594 4494 
L 1172 4494 
z
" transform="scale(0.015625)"/>
       <path id="DejaVuSans-69" d="M 603 3500 
L 1178 3500 
L 1178 0 
L 603 0 
L 603 3500 
z
M 603 4863 
L 1178 4863 
L 1178 4134 
L 603 4134 
L 603 4863 
z
" transform="scale(0.015625)"/>
       <path id="DejaVuSans-6d" d="M 3328 2828 
Q 3544 3216 3844 3400 
Q 4144 3584 4550 3584 
Q 5097 3584 5394 3201 
Q 5691 2819 5691 2113 
L 5691 0 
L 5113 0 
L 5113 2094 
Q 5113 2597 4934 2840 
Q 4756 3084 4391 3084 
Q 3944 3084 3684 2787 
Q 3425 2491 3425 1978 
L 3425 0 
L 2847 0 
L 2847 2094 
Q 2847 2600 2669 2842 
Q 2491 3084 2119 3084 
Q 1678 3084 1418 2786 
Q 1159 2488 1159 1978 
L 1159 0 
L 581 0 
L 581 3500 
L 1159 3500 
L 1159 2956 
Q 1356 3278 1631 3431 
Q 1906 3584 2284 3584 
Q 2666 3584 2933 3390 
Q 3200 3197 3328 2828 
z
" transform="scale(0.015625)"/>
       <path id="DejaVuSans-65" d="M 3597 1894 
L 3597 1613 
L 953 1613 
Q 991 1019 1311 708 
Q 1631 397 2203 397 
Q 2534 397 2845 478 
Q 3156 559 3463 722 
L 3463 178 
Q 3153 47 2828 -22 
Q 2503 -91 2169 -91 
Q 1331 -91 842 396 
Q 353 884 353 1716 
Q 353 2575 817 3079 
Q 1281 3584 2069 3584 
Q 2775 3584 3186 3129 
Q 3597 2675 3597 1894 
z
M 3022 2063 
Q 3016 2534 2758 2815 
Q 2500 3097 2075 3097 
Q 1594 3097 1305 2825 
Q 1016 2553 972 2059 
L 3022 2063 
z
" transform="scale(0.015625)"/>
       <path id="DejaVuSans-20" transform="scale(0.015625)"/>
       <path id="DejaVuSans-28" d="M 1984 4856 
Q 1566 4138 1362 3434 
Q 1159 2731 1159 2009 
Q 1159 1288 1364 580 
Q 1569 -128 1984 -844 
L 1484 -844 
Q 1016 -109 783 600 
Q 550 1309 550 2009 
Q 550 2706 781 3412 
Q 1013 4119 1484 4856 
L 1984 4856 
z
" transform="scale(0.015625)"/>
       <path id="DejaVuSans-68" d="M 3513 2113 
L 3513 0 
L 2938 0 
L 2938 2094 
Q 2938 2591 2744 2837 
Q 2550 3084 2163 3084 
Q 1697 3084 1428 2787 
Q 1159 2491 1159 1978 
L 1159 0 
L 581 0 
L 581 4863 
L 1159 4863 
L 1159 2956 
Q 1366 3272 1645 3428 
Q 1925 3584 2291 3584 
Q 2894 3584 3203 3211 
Q 3513 2838 3513 2113 
z
" transform="scale(0.015625)"/>
       <path id="DejaVuSans-29" d="M 513 4856 
L 1013 4856 
Q 1481 4119 1714 3412 
Q 1947 2706 1947 2009 
Q 1947 1309 1714 600 
Q 1481 -109 1013 -844 
L 513 -844 
Q 928 -128 1133 580 
Q 1338 1288 1338 2009 
Q 1338 2731 1133 3434 
Q 928 4138 513 4856 
z
" transform="scale(0.015625)"/>
      </defs>
      <use xlink:href="#DejaVuSans-74"/>
      <use xlink:href="#DejaVuSans-69" x="39.208984"/>
      <use xlink:href="#DejaVuSans-6d" x="66.992188"/>
      <use xlink:href="#DejaVuSans-65" x="164.404297"/>
      <use xlink:href="#DejaVuSans-20" x="225.927734"/>
      <use xlink:href="#DejaVuSans-28" x="257.714844"/>
      <use xlink:href="#DejaVuSans-68" x="296.728516"/>
      <use xlink:href="#DejaVuSans-29" x="360.107422"/>
     </g>
    </g>
   </g>
   <g id="matplotlib.axis_2">
    <g id="ytick_1">
     <g id="line2d_4">
      <defs>
       <path id="m1e7ad6367c" d="M 0 0 
L -3.5 0 
" style="stroke: #000000; stroke-width: 0.8"/>
      </defs>
      <g>
       <use xlink:href="#m1e7ad6367c" x="50.14375" y="158.926904" style="stroke: #000000; stroke-width: 0.8"/>
      </g>
     </g>
     <g id="text_5">
      <!-- 0.25 -->
      <g transform="translate(20.878125 162.726123) scale(0.1 -0.1)">
       <defs>
        <path id="DejaVuSans-2e" d="M 684 794 
L 1344 794 
L 1344 0 
L 684 0 
L 684 794 
z
" transform="scale(0.015625)"/>
        <path id="DejaVuSans-35" d="M 691 4666 
L 3169 4666 
L 3169 4134 
L 1269 4134 
L 1269 2991 
Q 1406 3038 1543 3061 
Q 1681 3084 1819 3084 
Q 2600 3084 3056 2656 
Q 3513 2228 3513 1497 
Q 3513 744 3044 326 
Q 2575 -91 1722 -91 
Q 1428 -91 1123 -41 
Q 819 9 494 109 
L 494 744 
Q 775 591 1075 516 
Q 1375 441 1709 441 
Q 2250 441 2565 725 
Q 2881 1009 2881 1497 
Q 2881 1984 2565 2268 
Q 2250 2553 1709 2553 
Q 1456 2553 1204 2497 
Q 953 2441 691 2322 
L 691 4666 
z
" transform="scale(0.015625)"/>
       </defs>
       <use xlink:href="#DejaVuSans-30"/>
       <use xlink:href="#DejaVuSans-2e" x="63.623047"/>
       <use xlink:href="#DejaVuSans-32" x="95.410156"/>
       <use xlink:href="#DejaVuSans-35" x="159.033203"/>
      </g>
     </g>
    </g>
    <g id="ytick_2">
     <g id="line2d_5">
      <g>
       <use xlink:href="#m1e7ad6367c" x="50.14375" y="134.153608" style="stroke: #000000; stroke-width: 0.8"/>
      </g>
     </g>
     <g id="text_6">
      <!-- 0.50 -->
      <g transform="translate(20.878125 137.952827) scale(0.1 -0.1)">
       <use xlink:href="#DejaVuSans-30"/>
       <use xlink:href="#DejaVuSans-2e" x="63.623047"/>
       <use xlink:href="#DejaVuSans-35" x="95.410156"/>
       <use xlink:href="#DejaVuSans-30" x="159.033203"/>
      </g>
     </g>
    </g>
    <g id="ytick_3">
     <g id="line2d_6">
      <g>
       <use xlink:href="#m1e7ad6367c" x="50.14375" y="109.380312" style="stroke: #000000; stroke-width: 0.8"/>
      </g>
     </g>
     <g id="text_7">
      <!-- 0.75 -->
      <g transform="translate(20.878125 113.179531) scale(0.1 -0.1)">
       <defs>
        <path id="DejaVuSans-37" d="M 525 4666 
L 3525 4666 
L 3525 4397 
L 1831 0 
L 1172 0 
L 2766 4134 
L 525 4134 
L 525 4666 
z
" transform="scale(0.015625)"/>
       </defs>
       <use xlink:href="#DejaVuSans-30"/>
       <use xlink:href="#DejaVuSans-2e" x="63.623047"/>
       <use xlink:href="#DejaVuSans-37" x="95.410156"/>
       <use xlink:href="#DejaVuSans-35" x="159.033203"/>
      </g>
     </g>
    </g>
    <g id="ytick_4">
     <g id="line2d_7">
      <g>
       <use xlink:href="#m1e7ad6367c" x="50.14375" y="84.607016" style="stroke: #000000; stroke-width: 0.8"/>
      </g>
     </g>
     <g id="text_8">
      <!-- 1.00 -->
      <g transform="translate(20.878125 88.406235) scale(0.1 -0.1)">
       <use xlink:href="#DejaVuSans-31"/>
       <use xlink:href="#DejaVuSans-2e" x="63.623047"/>
       <use xlink:href="#DejaVuSans-30" x="95.410156"/>
       <use xlink:href="#DejaVuSans-30" x="159.033203"/>
      </g>
     </g>
    </g>
    <g id="ytick_5">
     <g id="line2d_8">
      <g>
       <use xlink:href="#m1e7ad6367c" x="50.14375" y="59.83372" style="stroke: #000000; stroke-width: 0.8"/>
      </g>
     </g>
     <g id="text_9">
      <!-- 1.25 -->
      <g transform="translate(20.878125 63.632939) scale(0.1 -0.1)">
       <use xlink:href="#DejaVuSans-31"/>
       <use xlink:href="#DejaVuSans-2e" x="63.623047"/>
       <use xlink:href="#DejaVuSans-32" x="95.410156"/>
       <use xlink:href="#DejaVuSans-35" x="159.033203"/>
      </g>
     </g>
    </g>
    <g id="ytick_6">
     <g id="line2d_9">
      <g>
       <use xlink:href="#m1e7ad6367c" x="50.14375" y="35.060424" style="stroke: #000000; stroke-width: 0.8"/>
      </g>
     </g>
     <g id="text_10">
      <!-- 1.50 -->
      <g transform="translate(20.878125 38.859643) scale(0.1 -0.1)">
       <use xlink:href="#DejaVuSans-31"/>
       <use xlink:href="#DejaVuSans-2e" x="63.623047"/>
       <use xlink:href="#DejaVuSans-35" x="95.410156"/>
       <use xlink:href="#DejaVuSans-30" x="159.033203"/>
      </g>
     </g>
    </g>
    <g id="text_11">
     <!-- OD -->
     <g transform="translate(14.798438 104.804375) rotate(-90) scale(0.1 -0.1)">
      <defs>
       <path id="DejaVuSans-4f" d="M 2522 4238 
Q 1834 4238 1429 3725 
Q 1025 3213 1025 2328 
Q 1025 1447 1429 934 
Q 1834 422 2522 422 
Q 3209 422 3611 934 
Q 4013 1447 4013 2328 
Q 4013 3213 3611 3725 
Q 3209 4238 2522 4238 
z
M 2522 4750 
Q 3503 4750 4090 4092 
Q 4678 3434 4678 2328 
Q 4678 1225 4090 567 
Q 3503 -91 2522 -91 
Q 1538 -91 948 565 
Q 359 1222 359 2328 
Q 359 3434 948 4092 
Q 1538 4750 2522 4750 
z
" transform="scale(0.015625)"/>
       <path id="DejaVuSans-44" d="M 1259 4147 
L 1259 519 
L 2022 519 
Q 2988 519 3436 956 
Q 3884 1394 3884 2338 
Q 3884 3275 3436 3711 
Q 2988 4147 2022 4147 
L 1259 4147 
z
M 628 4666 
L 1925 4666 
Q 3281 4666 3915 4102 
Q 4550 3538 4550 2338 
Q 4550 1131 3912 565 
Q 3275 0 1925 0 
L 628 0 
L 628 4666 
z
" transform="scale(0.015625)"/>
      </defs>
      <use xlink:href="#DejaVuSans-4f"/>
      <use xlink:href="#DejaVuSans-44" x="78.710938"/>
     </g>
    </g>
   </g>
   <g id="line2d_10">
    <path d="M 58.130837 166.094645 
L 59.812329 165.582663 
L 61.493821 165.78085 
L 63.175313 165.896458 
L 64.856805 165.946005 
L 66.538297 165.896458 
L 68.219789 165.797365 
L 69.901281 165.681756 
L 71.582773 165.500086 
L 73.264265 165.318415 
L 74.945757 165.021135 
L 76.627249 164.723856 
L 78.308741 164.410061 
L 79.990233 163.947626 
L 81.671725 163.402613 
L 83.353217 162.808054 
L 85.034709 162.031824 
L 86.716201 161.073923 
L 88.397692 160.000414 
L 90.079184 158.79478 
L 91.760676 157.341413 
L 93.442168 155.656829 
L 95.12366 153.790574 
L 96.805152 151.709617 
L 98.486644 149.380928 
L 100.168136 146.870567 
L 101.849628 144.16202 
L 103.53112 141.238771 
L 105.212612 138.117336 
L 106.894104 134.830745 
L 108.575596 131.362484 
L 110.257088 127.613458 
L 111.93858 123.699277 
L 113.620072 119.570395 
L 115.301564 115.210295 
L 116.983056 110.833679 
L 118.664548 106.440548 
L 120.34604 102.063932 
L 122.027532 97.423068 
L 123.709024 92.963875 
L 125.390516 88.537712 
L 127.072008 84.11155 
L 128.7535 79.75145 
L 130.434992 75.68863 
L 132.116484 71.609294 
L 133.797976 67.629051 
L 135.479468 63.962603 
L 137.16096 60.510857 
L 138.842452 57.257297 
L 140.523944 54.152378 
L 142.205436 51.179582 
L 143.886928 48.487551 
L 145.56842 45.911128 
L 147.249912 43.532891 
L 148.931404 41.352841 
L 150.612896 39.255369 
L 152.294388 37.455176 
L 153.97588 35.952263 
L 155.657372 34.713598 
L 157.338864 33.722666 
L 159.020356 33.029014 
L 160.701848 32.467486 
L 162.383339 32.071113 
L 164.064831 31.790349 
L 165.746323 31.5261 
L 167.427815 31.377461 
L 169.109307 31.245336 
L 170.790799 31.162759 
L 172.472291 31.113212 
L 174.153783 31.04715 
L 175.835275 31.014119 
L 177.516767 30.931541 
L 179.198259 30.881995 
L 180.879751 30.881995 
L 182.561243 30.782902 
L 184.242735 30.749871 
L 185.924227 30.716839 
L 187.605719 30.700324 
L 189.287211 30.650777 
L 190.968703 30.617746 
L 192.650195 30.551684 
L 194.331687 30.535169 
L 196.013179 30.485622 
L 197.694671 30.452591 
L 199.376163 30.41956 
L 201.057655 30.403044 
L 202.739147 30.353498 
L 204.420639 30.303951 
L 206.102131 30.287436 
L 207.783623 30.237889 
L 209.465115 30.188342 
L 211.146607 30.12228 
L 212.828099 30.105765 
L 214.509591 30.089249 
L 216.191083 30.039703 
L 217.872575 30.006672 
" clip-path="url(#p027a253180)" style="fill: none; stroke: #b85b36; stroke-width: 1.5; stroke-linecap: square"/>
   </g>
   <g id="line2d_11">
    <path d="M 58.130837 165.24905 
L 59.812329 164.793221 
L 61.493821 165.031045 
L 63.175313 165.467055 
L 64.856805 165.506692 
L 66.538297 165.486873 
L 68.219789 165.288687 
L 69.901281 165.050863 
L 71.582773 164.753584 
L 73.264265 164.377029 
L 74.945757 163.941019 
L 76.627249 163.465372 
L 78.308741 162.930269 
L 79.990233 162.236617 
L 81.671725 161.542964 
L 83.353217 160.690763 
L 85.034709 159.71965 
L 86.716201 158.589988 
L 88.397692 157.24232 
L 90.079184 155.755922 
L 91.760676 153.952427 
L 93.442168 152.030019 
L 95.12366 149.83015 
L 96.805152 147.35282 
L 98.486644 144.558393 
L 100.168136 141.585597 
L 101.849628 138.454252 
L 103.53112 134.827442 
L 105.212612 131.002445 
L 106.894104 126.86035 
L 108.575596 122.698436 
L 110.257088 118.239243 
L 111.93858 113.720594 
L 113.620072 108.865028 
L 115.301564 104.088736 
L 116.983056 99.649362 
L 118.664548 94.952345 
L 120.34604 90.354421 
L 122.027532 85.974502 
L 123.709024 81.594583 
L 125.390516 77.452488 
L 127.072008 73.488761 
L 128.7535 69.584489 
L 130.434992 65.838767 
L 132.116484 62.271412 
L 133.797976 58.862607 
L 135.479468 55.711444 
L 137.16096 52.738648 
L 138.842452 49.964039 
L 140.523944 47.248886 
L 142.205436 44.850831 
L 143.886928 42.591506 
L 145.56842 40.510549 
L 147.249912 38.667416 
L 148.931404 37.200837 
L 150.612896 35.972081 
L 152.294388 35.020787 
L 153.97588 34.287497 
L 155.657372 33.792031 
L 157.338864 33.435296 
L 159.020356 33.138016 
L 160.701848 32.900193 
L 162.383339 32.682188 
L 164.064831 32.602913 
L 165.746323 32.523639 
L 167.427815 32.523639 
L 169.109307 32.444364 
L 170.790799 32.365089 
L 172.472291 32.285815 
L 174.153783 32.305634 
L 175.835275 32.226359 
L 177.516767 32.246178 
L 179.198259 32.226359 
L 180.879751 32.186722 
L 182.561243 32.107447 
L 184.242735 32.107447 
L 185.924227 32.06781 
L 187.605719 32.06781 
L 189.287211 32.047991 
L 190.968703 31.988535 
L 192.650195 32.047991 
L 194.331687 32.047991 
L 196.013179 31.948898 
L 197.694671 31.929079 
L 199.376163 31.889442 
L 201.057655 31.889442 
L 202.739147 31.869624 
L 204.420639 31.810168 
L 206.102131 31.790349 
L 207.783623 31.750712 
L 209.465115 31.750712 
L 211.146607 31.711074 
L 212.828099 31.671437 
L 214.509591 31.651619 
L 216.191083 31.611981 
L 217.872575 31.572344 
" clip-path="url(#p027a253180)" style="fill: none; stroke: #c9b54e; stroke-width: 1.5; stroke-linecap: square"/>
   </g>
   <g id="line2d_12">
    <path d="M 58.130837 166.160707 
L 59.812329 165.268868 
L 61.493821 165.367961 
L 63.175313 165.714787 
L 64.856805 165.714787 
L 66.538297 165.615694 
L 68.219789 165.367961 
L 69.901281 165.169775 
L 71.582773 164.872495 
L 73.264265 164.476123 
L 74.945757 164.030203 
L 76.627249 163.584284 
L 78.308741 163.039272 
L 79.990233 162.395166 
L 81.671725 161.75106 
L 83.353217 160.908768 
L 85.034709 159.917836 
L 86.716201 158.728718 
L 88.397692 157.440507 
L 90.079184 156.053202 
L 91.760676 154.418164 
L 93.442168 152.535394 
L 95.12366 150.256251 
L 96.805152 147.679828 
L 98.486644 144.954765 
L 100.168136 141.98197 
L 101.849628 138.910081 
L 103.53112 135.540913 
L 105.212612 131.626732 
L 106.894104 127.613458 
L 108.575596 123.352451 
L 110.257088 119.140991 
L 111.93858 114.533158 
L 113.620072 110.024418 
L 115.301564 105.515678 
L 116.983056 101.056485 
L 118.664548 96.745931 
L 120.34604 92.336285 
L 122.027532 88.025731 
L 123.709024 83.566538 
L 125.390516 79.355077 
L 127.072008 75.143617 
L 128.7535 71.03125 
L 130.434992 67.216162 
L 132.116484 63.599261 
L 133.797976 59.98236 
L 135.479468 56.860925 
L 137.16096 54.086315 
L 138.842452 51.163066 
L 140.523944 48.338911 
L 142.205436 45.861581 
L 143.886928 43.483345 
L 145.56842 41.204201 
L 147.249912 39.024151 
L 148.931404 37.190928 
L 150.612896 35.456797 
L 152.294388 34.069492 
L 153.97588 32.979467 
L 155.657372 32.137175 
L 157.338864 31.443523 
L 159.020356 31.04715 
L 160.701848 30.799417 
L 162.383339 30.502138 
L 164.064831 30.403044 
L 165.746323 30.303951 
L 167.427815 30.204858 
L 169.109307 30.155311 
L 170.790799 30.105765 
L 172.472291 30.105765 
L 174.153783 30.056218 
L 175.835275 30.056218 
L 177.516767 30.006672 
L 179.198259 29.957125 
L 180.879751 29.957125 
L 182.561243 29.907578 
L 184.242735 29.907578 
L 185.924227 29.808485 
L 187.605719 29.858032 
L 189.287211 29.808485 
L 190.968703 29.758939 
L 192.650195 29.758939 
L 194.331687 29.758939 
L 196.013179 29.709392 
L 197.694671 29.709392 
L 199.376163 29.709392 
L 201.057655 29.659846 
L 202.739147 29.659846 
L 204.420639 29.709392 
L 206.102131 29.659846 
L 207.783623 29.659846 
L 209.465115 29.709392 
L 211.146607 29.610299 
L 212.828099 29.560752 
L 214.509591 29.560752 
L 216.191083 29.560752 
L 217.872575 29.610299 
" clip-path="url(#p027a253180)" style="fill: none; stroke: #6c6c6c; stroke-width: 1.5; stroke-linecap: square"/>
   </g>
   <g id="patch_3">
    <path d="M 50.14375 173.238437 
L 50.14375 20.798437 
" style="fill: none; stroke: #000000; stroke-width: 0.8; stroke-linejoin: miter; stroke-linecap: square"/>
   </g>
   <g id="patch_4">
    <path d="M 50.14375 173.238437 
L 225.859662 173.238437 
" style="fill: none; stroke: #000000; stroke-width: 0.8; stroke-linejoin: miter; stroke-linecap: square"/>
   </g>
   <g id="text_12">
    <!-- concentrations = 0.0 -->
    <g transform="translate(85.448581 14.798437) scale(0.1 -0.1)">
     <defs>
      <path id="DejaVuSans-63" d="M 3122 3366 
L 3122 2828 
Q 2878 2963 2633 3030 
Q 2388 3097 2138 3097 
Q 1578 3097 1268 2742 
Q 959 2388 959 1747 
Q 959 1106 1268 751 
Q 1578 397 2138 397 
Q 2388 397 2633 464 
Q 2878 531 3122 666 
L 3122 134 
Q 2881 22 2623 -34 
Q 2366 -91 2075 -91 
Q 1284 -91 818 406 
Q 353 903 353 1747 
Q 353 2603 823 3093 
Q 1294 3584 2113 3584 
Q 2378 3584 2631 3529 
Q 2884 3475 3122 3366 
z
" transform="scale(0.015625)"/>
      <path id="DejaVuSans-6f" d="M 1959 3097 
Q 1497 3097 1228 2736 
Q 959 2375 959 1747 
Q 959 1119 1226 758 
Q 1494 397 1959 397 
Q 2419 397 2687 759 
Q 2956 1122 2956 1747 
Q 2956 2369 2687 2733 
Q 2419 3097 1959 3097 
z
M 1959 3584 
Q 2709 3584 3137 3096 
Q 3566 2609 3566 1747 
Q 3566 888 3137 398 
Q 2709 -91 1959 -91 
Q 1206 -91 779 398 
Q 353 888 353 1747 
Q 353 2609 779 3096 
Q 1206 3584 1959 3584 
z
" transform="scale(0.015625)"/>
      <path id="DejaVuSans-6e" d="M 3513 2113 
L 3513 0 
L 2938 0 
L 2938 2094 
Q 2938 2591 2744 2837 
Q 2550 3084 2163 3084 
Q 1697 3084 1428 2787 
Q 1159 2491 1159 1978 
L 1159 0 
L 581 0 
L 581 3500 
L 1159 3500 
L 1159 2956 
Q 1366 3272 1645 3428 
Q 1925 3584 2291 3584 
Q 2894 3584 3203 3211 
Q 3513 2838 3513 2113 
z
" transform="scale(0.015625)"/>
      <path id="DejaVuSans-72" d="M 2631 2963 
Q 2534 3019 2420 3045 
Q 2306 3072 2169 3072 
Q 1681 3072 1420 2755 
Q 1159 2438 1159 1844 
L 1159 0 
L 581 0 
L 581 3500 
L 1159 3500 
L 1159 2956 
Q 1341 3275 1631 3429 
Q 1922 3584 2338 3584 
Q 2397 3584 2469 3576 
Q 2541 3569 2628 3553 
L 2631 2963 
z
" transform="scale(0.015625)"/>
      <path id="DejaVuSans-61" d="M 2194 1759 
Q 1497 1759 1228 1600 
Q 959 1441 959 1056 
Q 959 750 1161 570 
Q 1363 391 1709 391 
Q 2188 391 2477 730 
Q 2766 1069 2766 1631 
L 2766 1759 
L 2194 1759 
z
M 3341 1997 
L 3341 0 
L 2766 0 
L 2766 531 
Q 2569 213 2275 61 
Q 1981 -91 1556 -91 
Q 1019 -91 701 211 
Q 384 513 384 1019 
Q 384 1609 779 1909 
Q 1175 2209 1959 2209 
L 2766 2209 
L 2766 2266 
Q 2766 2663 2505 2880 
Q 2244 3097 1772 3097 
Q 1472 3097 1187 3025 
Q 903 2953 641 2809 
L 641 3341 
Q 956 3463 1253 3523 
Q 1550 3584 1831 3584 
Q 2591 3584 2966 3190 
Q 3341 2797 3341 1997 
z
" transform="scale(0.015625)"/>
      <path id="DejaVuSans-73" d="M 2834 3397 
L 2834 2853 
Q 2591 2978 2328 3040 
Q 2066 3103 1784 3103 
Q 1356 3103 1142 2972 
Q 928 2841 928 2578 
Q 928 2378 1081 2264 
Q 1234 2150 1697 2047 
L 1894 2003 
Q 2506 1872 2764 1633 
Q 3022 1394 3022 966 
Q 3022 478 2636 193 
Q 2250 -91 1575 -91 
Q 1294 -91 989 -36 
Q 684 19 347 128 
L 347 722 
Q 666 556 975 473 
Q 1284 391 1588 391 
Q 1994 391 2212 530 
Q 2431 669 2431 922 
Q 2431 1156 2273 1281 
Q 2116 1406 1581 1522 
L 1381 1569 
Q 847 1681 609 1914 
Q 372 2147 372 2553 
Q 372 3047 722 3315 
Q 1072 3584 1716 3584 
Q 2034 3584 2315 3537 
Q 2597 3491 2834 3397 
z
" transform="scale(0.015625)"/>
      <path id="DejaVuSans-3d" d="M 678 2906 
L 4684 2906 
L 4684 2381 
L 678 2381 
L 678 2906 
z
M 678 1631 
L 4684 1631 
L 4684 1100 
L 678 1100 
L 678 1631 
z
" transform="scale(0.015625)"/>
     </defs>
     <use xlink:href="#DejaVuSans-63"/>
     <use xlink:href="#DejaVuSans-6f" x="54.980469"/>
     <use xlink:href="#DejaVuSans-6e" x="116.162109"/>
     <use xlink:href="#DejaVuSans-63" x="179.541016"/>
     <use xlink:href="#DejaVuSans-65" x="234.521484"/>
     <use xlink:href="#DejaVuSans-6e" x="296.044922"/>
     <use xlink:href="#DejaVuSans-74" x="359.423828"/>
     <use xlink:href="#DejaVuSans-72" x="398.632812"/>
     <use xlink:href="#DejaVuSans-61" x="439.746094"/>
     <use xlink:href="#DejaVuSans-74" x="501.025391"/>
     <use xlink:href="#DejaVuSans-69" x="540.234375"/>
     <use xlink:href="#DejaVuSans-6f" x="568.017578"/>
     <use xlink:href="#DejaVuSans-6e" x="629.199219"/>
     <use xlink:href="#DejaVuSans-73" x="692.578125"/>
     <use xlink:href="#DejaVuSans-20" x="744.677734"/>
     <use xlink:href="#DejaVuSans-3d" x="776.464844"/>
     <use xlink:href="#DejaVuSans-20" x="860.253906"/>
     <use xlink:href="#DejaVuSans-30" x="892.041016"/>
     <use xlink:href="#DejaVuSans-2e" x="955.664062"/>
     <use xlink:href="#DejaVuSans-30" x="987.451172"/>
    </g>
   </g>
  </g>
  <g id="axes_2">
   <g id="patch_5">
    <path d="M 239.854691 173.238437 
L 415.570603 173.238437 
L 415.570603 20.798437 
L 239.854691 20.798437 
L 239.854691 173.238437 
z
" style="fill: none"/>
   </g>
   <g id="PolyCollection_4">
    <defs>
     <path id="m743f5c96a5" d="M 247.841778 -44.980807 
L 247.841778 -44.683527 
L 249.52327 -45.013838 
L 251.204762 -44.914745 
L 252.886254 -44.766105 
L 254.567746 -44.683527 
L 256.249238 -44.733074 
L 257.93073 -44.848683 
L 259.612222 -44.964291 
L 261.293714 -45.212024 
L 262.975206 -45.443242 
L 264.656698 -45.723593 
L 266.33819 -46.103863 
L 268.019682 -46.500236 
L 269.701174 -46.962671 
L 271.382665 -47.491167 
L 273.064157 -48.168304 
L 274.745649 -48.911503 
L 276.427141 -49.753795 
L 278.108633 -50.711283 
L 279.790125 -51.818237 
L 281.471617 -52.974324 
L 283.153109 -54.163442 
L 284.834601 -55.418622 
L 286.516093 -56.673803 
L 288.197585 -57.912467 
L 289.879077 -59.200266 
L 291.560569 -60.307219 
L 293.242061 -61.41376 
L 294.923553 -62.618981 
L 296.605045 -63.527748 
L 298.286537 -64.254431 
L 299.968029 -65.311425 
L 301.649521 -66.219779 
L 303.331013 -67.078587 
L 305.012505 -68.085209 
L 306.693997 -68.895295 
L 308.375489 -69.787134 
L 310.056981 -70.778066 
L 311.738473 -71.7851 
L 313.419965 -72.693867 
L 315.101457 -73.8322 
L 316.782949 -74.824371 
L 318.464441 -75.947014 
L 320.145933 -77.037452 
L 321.827425 -78.160508 
L 323.508917 -79.234018 
L 325.190409 -80.489198 
L 326.871901 -81.48013 
L 328.553393 -82.402522 
L 330.234885 -83.47727 
L 331.916377 -84.501233 
L 333.597869 -85.42569 
L 335.279361 -86.335283 
L 336.960853 -87.260565 
L 338.642345 -88.201538 
L 340.323837 -89.225914 
L 342.005329 -90.101237 
L 343.686821 -90.860951 
L 345.368312 -91.933222 
L 347.049804 -92.908877 
L 348.731296 -93.782961 
L 350.412788 -94.494368 
L 352.09428 -95.270598 
L 353.775772 -96.162436 
L 355.457264 -97.020831 
L 357.138756 -97.846195 
L 358.820248 -98.539434 
L 360.50174 -99.250428 
L 362.183232 -99.942841 
L 363.864724 -100.488267 
L 365.546216 -101.463096 
L 367.227708 -102.108028 
L 368.9092 -102.818195 
L 370.590692 -103.526712 
L 372.272184 -104.337624 
L 373.953676 -104.980491 
L 375.635168 -105.642351 
L 377.31666 -106.170848 
L 378.998152 -106.765407 
L 380.679644 -107.293904 
L 382.361136 -107.954525 
L 384.042628 -108.697724 
L 385.72412 -109.275768 
L 387.405612 -109.952905 
L 389.087104 -110.265048 
L 390.768596 -110.877774 
L 392.450088 -111.505365 
L 394.13158 -112.066893 
L 395.813072 -112.793576 
L 397.494564 -113.470713 
L 399.176056 -113.982694 
L 400.857548 -114.362138 
L 402.53904 -115.055791 
L 404.220532 -115.452576 
L 405.902024 -116.195775 
L 407.583516 -116.591322 
L 407.583516 -123.363516 
L 407.583516 -123.363516 
L 405.902024 -122.522875 
L 404.220532 -122.291658 
L 402.53904 -121.579838 
L 400.857548 -120.904353 
L 399.176056 -120.342412 
L 397.494564 -119.862223 
L 395.813072 -119.366757 
L 394.13158 -118.871291 
L 392.450088 -118.111577 
L 390.768596 -117.467471 
L 389.087104 -116.889428 
L 387.405612 -116.17926 
L 385.72412 -115.617732 
L 384.042628 -114.925318 
L 382.361136 -114.760989 
L 380.679644 -113.605314 
L 378.998152 -112.942216 
L 377.31666 -112.463265 
L 375.635168 -111.918253 
L 373.953676 -111.175054 
L 372.272184 -110.333175 
L 370.590692 -109.523501 
L 368.9092 -108.879395 
L 367.227708 -108.005311 
L 365.546216 -107.065577 
L 363.864724 -106.535016 
L 362.183232 -105.923115 
L 360.50174 -105.014761 
L 358.820248 -103.792612 
L 357.138756 -103.198053 
L 355.457264 -102.537431 
L 353.775772 -101.449058 
L 352.09428 -100.935425 
L 350.412788 -100.17571 
L 348.731296 -98.953561 
L 347.049804 -98.065439 
L 345.368312 -97.188051 
L 343.686821 -96.327592 
L 342.005329 -95.154989 
L 340.323837 -94.478678 
L 338.642345 -93.091374 
L 336.960853 -92.066585 
L 335.279361 -91.307283 
L 333.597869 -90.249877 
L 331.916377 -89.192883 
L 330.234885 -88.218879 
L 328.553393 -86.948422 
L 326.871901 -86.039655 
L 325.190409 -84.502472 
L 323.508917 -83.215499 
L 321.827425 -82.207639 
L 320.145933 -80.885983 
L 318.464441 -79.828577 
L 316.782949 -78.606427 
L 315.101457 -77.3017 
L 313.419965 -76.294253 
L 311.738473 -75.155507 
L 310.056981 -74.147234 
L 308.375489 -73.271911 
L 306.693997 -72.214917 
L 305.012505 -71.109202 
L 303.331013 -70.117445 
L 301.649521 -69.143028 
L 299.968029 -68.187605 
L 298.286537 -67.078587 
L 296.605045 -66.088481 
L 294.923553 -64.99763 
L 293.242061 -63.891502 
L 291.560569 -62.454651 
L 289.879077 -61.248605 
L 288.197585 -59.795238 
L 286.516093 -58.341871 
L 284.834601 -56.938877 
L 283.153109 -55.5012 
L 281.471617 -54.130411 
L 279.790125 -52.825684 
L 278.108633 -51.636979 
L 276.427141 -50.596087 
L 274.745649 -49.770311 
L 273.064157 -48.96105 
L 271.382665 -48.250882 
L 269.701174 -47.639807 
L 268.019682 -47.127826 
L 266.33819 -46.648875 
L 264.656698 -46.285534 
L 262.975206 -45.955223 
L 261.293714 -45.657944 
L 259.612222 -45.476273 
L 257.93073 -45.278086 
L 256.249238 -45.178993 
L 254.567746 -45.063384 
L 252.886254 -45.145962 
L 251.204762 -45.344149 
L 249.52327 -45.525819 
L 247.841778 -44.980807 
z
" style="stroke: #b85b36; stroke-opacity: 0.2"/>
    </defs>
    <g clip-path="url(#p702730f2fb)">
     <use xlink:href="#m743f5c96a5" x="0" y="210.794687" style="fill: #b85b36; fill-opacity: 0.2; stroke: #b85b36; stroke-opacity: 0.2"/>
    </g>
   </g>
   <g id="PolyCollection_5">
    <defs>
     <path id="m057c263f09" d="M 247.841778 -45.625408 
L 247.841778 -45.129447 
L 249.52327 -45.506001 
L 251.204762 -45.387089 
L 252.886254 -44.951079 
L 254.567746 -45.069991 
L 256.249238 -45.14877 
L 257.93073 -45.327633 
L 259.612222 -45.565457 
L 261.293714 -45.842918 
L 262.975206 -46.23929 
L 264.656698 -46.615844 
L 266.33819 -47.131129 
L 268.019682 -47.606776 
L 269.701174 -48.28061 
L 271.382665 -48.974262 
L 273.064157 -49.846282 
L 274.745649 -50.797577 
L 276.427141 -52.006514 
L 278.108633 -53.334362 
L 279.790125 -54.781123 
L 281.471617 -56.406251 
L 283.153109 -58.348477 
L 284.834601 -60.409616 
L 286.516093 -62.649122 
L 288.197585 -65.027358 
L 289.879077 -67.956553 
L 291.560569 -71.052224 
L 293.242061 -74.540304 
L 294.923553 -77.830197 
L 296.605045 -81.318277 
L 298.286537 -84.707264 
L 299.968029 -88.234982 
L 301.649521 -91.660138 
L 303.331013 -94.9535 
L 305.012505 -98.00557 
L 306.693997 -101.117096 
L 308.375489 -104.070073 
L 310.056981 -107.003231 
L 311.738473 -109.817477 
L 313.419965 -112.294807 
L 315.101457 -115.108558 
L 316.782949 -117.665657 
L 318.464441 -120.123168 
L 320.145933 -122.481586 
L 321.827425 -124.879641 
L 323.508917 -127.020054 
L 325.190409 -129.319016 
L 326.871901 -131.518885 
L 328.553393 -133.678621 
L 330.234885 -135.641161 
L 331.916377 -137.603206 
L 333.597869 -139.58507 
L 335.279361 -141.487164 
L 336.960853 -143.350611 
L 338.642345 -144.950966 
L 340.323837 -146.69996 
L 342.005329 -148.60255 
L 343.686821 -150.006205 
L 345.368312 -151.555526 
L 347.049804 -153.10138 
L 348.731296 -154.508503 
L 350.412788 -156.01472 
L 352.09428 -157.382206 
L 353.775772 -158.76951 
L 355.457264 -160.097359 
L 357.138756 -161.266659 
L 358.820248 -162.535051 
L 360.50174 -163.704351 
L 362.183232 -164.814195 
L 363.864724 -165.706033 
L 365.546216 -166.756421 
L 367.227708 -167.549166 
L 368.9092 -168.024814 
L 370.590692 -168.877015 
L 372.272184 -169.313025 
L 373.953676 -169.511211 
L 375.635168 -169.96704 
L 377.31666 -170.125589 
L 378.998152 -170.303957 
L 380.679644 -170.363413 
L 382.361136 -170.462506 
L 384.042628 -170.462506 
L 385.72412 -170.502143 
L 387.405612 -170.521466 
L 389.087104 -170.561599 
L 390.768596 -170.62056 
L 392.450088 -170.621055 
L 394.13158 -170.581418 
L 395.813072 -170.601237 
L 397.494564 -170.581418 
L 399.176056 -170.621055 
L 400.857548 -170.601237 
L 402.53904 -170.621055 
L 404.220532 -170.601237 
L 405.902024 -170.502143 
L 407.583516 -170.541781 
L 407.583516 -172.88038 
L 407.583516 -172.88038 
L 405.902024 -172.801105 
L 404.220532 -172.920017 
L 402.53904 -172.979473 
L 400.857548 -172.920017 
L 399.176056 -172.921008 
L 397.494564 -172.979473 
L 395.813072 -172.940331 
L 394.13158 -173.038929 
L 392.450088 -173.01911 
L 390.768596 -173.01911 
L 389.087104 -173.01911 
L 387.405612 -172.939836 
L 385.72412 -172.999292 
L 384.042628 -172.920017 
L 382.361136 -172.939836 
L 380.679644 -172.88038 
L 378.998152 -172.801105 
L 377.31666 -172.563282 
L 375.635168 -172.5831 
L 373.953676 -172.5831 
L 372.272184 -172.226365 
L 370.590692 -172.107453 
L 368.9092 -171.750717 
L 367.227708 -171.27507 
L 365.546216 -170.543267 
L 363.864724 -169.731694 
L 362.183232 -168.939939 
L 360.50174 -168.283942 
L 358.820248 -167.291524 
L 357.138756 -166.142043 
L 355.457264 -164.893469 
L 353.775772 -163.882719 
L 352.09428 -162.634144 
L 350.412788 -161.068472 
L 348.731296 -159.661349 
L 347.049804 -158.690236 
L 345.368312 -156.893676 
L 343.686821 -155.420161 
L 342.005329 -154.176046 
L 340.323837 -152.66537 
L 338.642345 -150.683506 
L 336.960853 -149.633119 
L 335.279361 -147.492706 
L 333.597869 -145.629754 
L 331.916377 -144.321724 
L 330.234885 -141.963306 
L 328.553393 -140.199448 
L 326.871901 -138.574319 
L 325.190409 -135.898803 
L 323.508917 -134.610592 
L 321.827425 -131.855801 
L 320.145933 -130.309948 
L 318.464441 -127.317334 
L 316.782949 -125.020849 
L 315.101457 -123.254513 
L 313.419965 -120.235639 
L 311.738473 -117.629984 
L 310.056981 -115.00996 
L 308.375489 -112.274988 
L 306.693997 -109.440923 
L 305.012505 -106.569203 
L 303.331013 -103.931342 
L 301.649521 -101.037821 
L 299.968029 -97.450648 
L 298.286537 -93.804019 
L 296.605045 -90.315939 
L 294.923553 -86.51076 
L 293.242061 -82.923587 
L 291.560569 -79.316595 
L 289.879077 -75.570873 
L 288.197585 -72.816082 
L 286.516093 -68.63435 
L 284.834601 -65.58228 
L 283.153109 -63.124769 
L 281.471617 -61.162724 
L 279.790125 -58.289021 
L 278.108633 -56.366614 
L 276.427141 -54.543299 
L 274.745649 -53.136176 
L 273.064157 -51.808327 
L 271.382665 -50.678665 
L 269.701174 -49.767008 
L 268.019682 -48.914806 
L 266.33819 -48.300429 
L 264.656698 -47.686051 
L 262.975206 -47.131129 
L 261.293714 -46.6753 
L 259.612222 -46.259109 
L 257.93073 -45.882555 
L 256.249238 -45.704187 
L 254.567746 -45.66455 
L 252.886254 -45.625903 
L 251.204762 -45.882555 
L 249.52327 -46.041104 
L 247.841778 -45.625408 
z
" style="stroke: #c9b54e; stroke-opacity: 0.2"/>
    </defs>
    <g clip-path="url(#p702730f2fb)">
     <use xlink:href="#m057c263f09" x="0" y="210.794687" style="fill: #c9b54e; fill-opacity: 0.2; stroke: #c9b54e; stroke-opacity: 0.2"/>
    </g>
   </g>
   <g id="PolyCollection_6">
    <defs>
     <path id="me185d58f3e" d="M 247.841778 -45.327633 
L 247.841778 -45.327633 
L 249.52327 -45.724006 
L 251.204762 -45.426726 
L 252.886254 -45.129447 
L 254.567746 -45.129447 
L 256.249238 -45.129447 
L 257.93073 -45.327633 
L 259.612222 -45.525819 
L 261.293714 -45.724006 
L 262.975206 -45.922192 
L 264.656698 -46.219472 
L 266.33819 -46.516751 
L 268.019682 -46.814031 
L 269.701174 -47.210403 
L 271.382665 -47.606776 
L 273.064157 -48.102242 
L 274.745649 -48.597708 
L 276.427141 -49.093174 
L 278.108633 -49.58864 
L 279.790125 -49.985013 
L 281.471617 -50.381385 
L 283.153109 -50.777758 
L 284.834601 -51.075038 
L 286.516093 -51.372317 
L 288.197585 -51.669597 
L 289.879077 -51.966876 
L 291.560569 -52.165063 
L 293.242061 -52.462342 
L 294.923553 -52.660529 
L 296.605045 -52.858715 
L 298.286537 -53.155995 
L 299.968029 -53.354181 
L 301.649521 -53.65146 
L 303.331013 -53.94874 
L 305.012505 -54.24602 
L 306.693997 -54.642392 
L 308.375489 -54.939672 
L 310.056981 -55.336045 
L 311.738473 -55.732417 
L 313.419965 -56.12879 
L 315.101457 -56.525163 
L 316.782949 -56.921536 
L 318.464441 -57.317908 
L 320.145933 -57.714281 
L 321.827425 -58.011561 
L 323.508917 -58.407933 
L 325.190409 -58.705213 
L 326.871901 -59.002492 
L 328.553393 -59.299772 
L 330.234885 -59.696145 
L 331.916377 -59.894331 
L 333.597869 -60.191611 
L 335.279361 -60.48889 
L 336.960853 -60.687077 
L 338.642345 -60.885263 
L 340.323837 -61.182542 
L 342.005329 -61.479822 
L 343.686821 -61.678008 
L 345.368312 -61.876195 
L 347.049804 -62.074381 
L 348.731296 -62.272567 
L 350.412788 -62.470754 
L 352.09428 -62.66894 
L 353.775772 -62.867127 
L 355.457264 -63.065313 
L 357.138756 -63.164406 
L 358.820248 -63.362593 
L 360.50174 -63.560779 
L 362.183232 -63.758965 
L 363.864724 -63.858058 
L 365.546216 -64.056245 
L 367.227708 -64.254431 
L 368.9092 -64.353524 
L 370.590692 -64.551711 
L 372.272184 -64.749897 
L 373.953676 -64.84899 
L 375.635168 -65.047177 
L 377.31666 -65.14627 
L 378.998152 -65.344456 
L 380.679644 -65.443549 
L 382.361136 -65.641736 
L 384.042628 -65.740829 
L 385.72412 -65.939015 
L 387.405612 -66.038108 
L 389.087104 -66.236295 
L 390.768596 -66.335388 
L 392.450088 -66.434481 
L 394.13158 -66.632668 
L 395.813072 -66.731761 
L 397.494564 -66.929947 
L 399.176056 -67.02904 
L 400.857548 -67.128134 
L 402.53904 -67.32632 
L 404.220532 -67.425413 
L 405.902024 -67.623599 
L 407.583516 -67.722693 
L 407.583516 -75.650147 
L 407.583516 -75.650147 
L 405.902024 -75.451961 
L 404.220532 -75.253775 
L 402.53904 -75.154681 
L 400.857548 -74.857402 
L 399.176056 -74.659216 
L 397.494564 -74.560122 
L 395.813072 -74.461029 
L 394.13158 -74.16375 
L 392.450088 -73.965563 
L 390.768596 -73.86647 
L 389.087104 -73.668284 
L 387.405612 -73.470097 
L 385.72412 -73.271911 
L 384.042628 -73.073725 
L 382.361136 -72.875538 
L 380.679644 -72.677352 
L 378.998152 -72.578259 
L 377.31666 -72.280979 
L 375.635168 -71.9837 
L 373.953676 -71.785513 
L 372.272184 -71.587327 
L 370.590692 -71.38914 
L 368.9092 -71.190954 
L 367.227708 -70.893675 
L 365.546216 -70.695488 
L 363.864724 -70.497302 
L 362.183232 -70.200022 
L 360.50174 -69.902743 
L 358.820248 -69.704556 
L 357.138756 -69.407277 
L 355.457264 -69.20909 
L 353.775772 -68.911811 
L 352.09428 -68.614531 
L 350.412788 -68.416345 
L 348.731296 -68.019972 
L 347.049804 -67.821786 
L 345.368312 -67.425413 
L 343.686821 -67.128134 
L 342.005329 -66.830854 
L 340.323837 -66.533574 
L 338.642345 -66.137202 
L 336.960853 -65.839922 
L 335.279361 -65.443549 
L 333.597869 -65.047177 
L 331.916377 -64.749897 
L 330.234885 -64.353524 
L 328.553393 -63.957152 
L 326.871901 -63.461686 
L 325.190409 -63.065313 
L 323.508917 -62.569847 
L 321.827425 -62.173474 
L 320.145933 -61.678008 
L 318.464441 -61.182542 
L 316.782949 -60.687077 
L 315.101457 -60.191611 
L 313.419965 -59.696145 
L 311.738473 -59.200679 
L 310.056981 -58.705213 
L 308.375489 -58.30884 
L 306.693997 -57.813374 
L 305.012505 -57.417001 
L 303.331013 -57.020629 
L 301.649521 -56.624256 
L 299.968029 -56.326976 
L 298.286537 -55.930604 
L 296.605045 -55.633324 
L 294.923553 -55.336045 
L 293.242061 -55.038765 
L 291.560569 -54.741485 
L 289.879077 -54.345113 
L 288.197585 -54.047833 
L 286.516093 -53.552367 
L 284.834601 -53.056901 
L 283.153109 -52.561435 
L 281.471617 -51.966876 
L 279.790125 -51.372317 
L 278.108633 -50.678665 
L 276.427141 -50.084106 
L 274.745649 -49.489547 
L 273.064157 -48.795894 
L 271.382665 -48.201335 
L 269.701174 -47.705869 
L 268.019682 -47.210403 
L 266.33819 -46.814031 
L 264.656698 -46.516751 
L 262.975206 -46.120378 
L 261.293714 -45.922192 
L 259.612222 -45.624913 
L 257.93073 -45.426726 
L 256.249238 -45.22854 
L 254.567746 -45.129447 
L 252.886254 -45.22854 
L 251.204762 -45.525819 
L 249.52327 -45.823099 
L 247.841778 -45.327633 
z
" style="stroke: #6c6c6c; stroke-opacity: 0.2"/>
    </defs>
    <g clip-path="url(#p702730f2fb)">
     <use xlink:href="#me185d58f3e" x="0" y="210.794687" style="fill: #6c6c6c; fill-opacity: 0.2; stroke: #6c6c6c; stroke-opacity: 0.2"/>
    </g>
   </g>
   <g id="matplotlib.axis_3">
    <g id="xtick_4">
     <g id="line2d_13">
      <g>
       <use xlink:href="#m1348de444c" x="247.841778" y="173.238437" style="stroke: #000000; stroke-width: 0.8"/>
      </g>
     </g>
     <g id="text_13">
      <!-- 0 -->
      <g transform="translate(244.660528 187.836875) scale(0.1 -0.1)">
       <use xlink:href="#DejaVuSans-30"/>
      </g>
     </g>
    </g>
    <g id="xtick_5">
     <g id="line2d_14">
      <g>
       <use xlink:href="#m1348de444c" x="315.101457" y="173.238437" style="stroke: #000000; stroke-width: 0.8"/>
      </g>
     </g>
     <g id="text_14">
      <!-- 10 -->
      <g transform="translate(308.738957 187.836875) scale(0.1 -0.1)">
       <use xlink:href="#DejaVuSans-31"/>
       <use xlink:href="#DejaVuSans-30" x="63.623047"/>
      </g>
     </g>
    </g>
    <g id="xtick_6">
     <g id="line2d_15">
      <g>
       <use xlink:href="#m1348de444c" x="382.361136" y="173.238437" style="stroke: #000000; stroke-width: 0.8"/>
      </g>
     </g>
     <g id="text_15">
      <!-- 20 -->
      <g transform="translate(375.998636 187.836875) scale(0.1 -0.1)">
       <use xlink:href="#DejaVuSans-32"/>
       <use xlink:href="#DejaVuSans-30" x="63.623047"/>
      </g>
     </g>
    </g>
    <g id="text_16">
     <!-- time (h) -->
     <g transform="translate(307.757178 201.515) scale(0.1 -0.1)">
      <use xlink:href="#DejaVuSans-74"/>
      <use xlink:href="#DejaVuSans-69" x="39.208984"/>
      <use xlink:href="#DejaVuSans-6d" x="66.992188"/>
      <use xlink:href="#DejaVuSans-65" x="164.404297"/>
      <use xlink:href="#DejaVuSans-20" x="225.927734"/>
      <use xlink:href="#DejaVuSans-28" x="257.714844"/>
      <use xlink:href="#DejaVuSans-68" x="296.728516"/>
      <use xlink:href="#DejaVuSans-29" x="360.107422"/>
     </g>
    </g>
   </g>
   <g id="matplotlib.axis_4">
    <g id="ytick_7">
     <g id="line2d_16">
      <g>
       <use xlink:href="#m1e7ad6367c" x="239.854691" y="158.926904" style="stroke: #000000; stroke-width: 0.8"/>
      </g>
     </g>
    </g>
    <g id="ytick_8">
     <g id="line2d_17">
      <g>
       <use xlink:href="#m1e7ad6367c" x="239.854691" y="134.153608" style="stroke: #000000; stroke-width: 0.8"/>
      </g>
     </g>
    </g>
    <g id="ytick_9">
     <g id="line2d_18">
      <g>
       <use xlink:href="#m1e7ad6367c" x="239.854691" y="109.380312" style="stroke: #000000; stroke-width: 0.8"/>
      </g>
     </g>
    </g>
    <g id="ytick_10">
     <g id="line2d_19">
      <g>
       <use xlink:href="#m1e7ad6367c" x="239.854691" y="84.607016" style="stroke: #000000; stroke-width: 0.8"/>
      </g>
     </g>
    </g>
    <g id="ytick_11">
     <g id="line2d_20">
      <g>
       <use xlink:href="#m1e7ad6367c" x="239.854691" y="59.83372" style="stroke: #000000; stroke-width: 0.8"/>
      </g>
     </g>
    </g>
    <g id="ytick_12">
     <g id="line2d_21">
      <g>
       <use xlink:href="#m1e7ad6367c" x="239.854691" y="35.060424" style="stroke: #000000; stroke-width: 0.8"/>
      </g>
     </g>
    </g>
   </g>
   <g id="line2d_22">
    <path d="M 247.841778 165.946005 
L 249.52327 165.500086 
L 251.204762 165.648725 
L 252.886254 165.830396 
L 254.567746 165.896458 
L 256.249238 165.813881 
L 257.93073 165.714787 
L 259.612222 165.549632 
L 261.293714 165.351446 
L 262.975206 165.087197 
L 264.656698 164.773402 
L 266.33819 164.426576 
L 268.019682 164.013688 
L 269.701174 163.485191 
L 271.382665 162.923663 
L 273.064157 162.246526 
L 274.745649 161.486812 
L 276.427141 160.661035 
L 278.108633 159.686619 
L 279.790125 158.563563 
L 281.471617 157.357929 
L 283.153109 156.020171 
L 284.834601 154.698929 
L 286.516093 153.328139 
L 288.197585 151.95735 
L 289.879077 150.669139 
L 291.560569 149.430474 
L 293.242061 148.22484 
L 294.923553 147.068753 
L 296.605045 146.028275 
L 298.286537 145.070374 
L 299.968029 144.029896 
L 301.649521 143.121541 
L 303.331013 142.180156 
L 305.012505 141.255287 
L 306.693997 140.313901 
L 308.375489 139.339485 
L 310.056981 138.3981 
L 311.738473 137.357621 
L 313.419965 136.300627 
L 315.101457 135.210602 
L 316.782949 134.104062 
L 318.464441 133.014037 
L 320.145933 131.890981 
L 321.827425 130.668831 
L 323.508917 129.562291 
L 325.190409 128.45575 
L 326.871901 127.299663 
L 328.553393 126.209638 
L 330.234885 125.136129 
L 331.916377 124.079135 
L 333.597869 123.071687 
L 335.279361 122.06424 
L 336.960853 121.056792 
L 338.642345 120.131923 
L 340.323837 119.140991 
L 342.005329 118.232637 
L 343.686821 117.274736 
L 345.368312 116.333351 
L 347.049804 115.408481 
L 348.731296 114.549673 
L 350.412788 113.723897 
L 352.09428 112.799027 
L 353.775772 112.022797 
L 355.457264 111.180505 
L 357.138756 110.38776 
L 358.820248 109.595014 
L 360.50174 108.802269 
L 362.183232 108.026039 
L 363.864724 107.315871 
L 365.546216 106.539641 
L 367.227708 105.796442 
L 368.9092 105.086274 
L 370.590692 104.409137 
L 372.272184 103.682454 
L 373.953676 102.972286 
L 375.635168 102.328181 
L 377.31666 101.70059 
L 378.998152 101.023454 
L 380.679644 100.412379 
L 382.361136 99.751758 
L 384.042628 99.157199 
L 385.72412 98.546124 
L 387.405612 97.951565 
L 389.087104 97.373521 
L 390.768596 96.828509 
L 392.450088 96.200919 
L 394.13158 95.622875 
L 395.813072 94.995285 
L 397.494564 94.417241 
L 399.176056 93.888744 
L 400.857548 93.343732 
L 402.53904 92.798719 
L 404.220532 92.237191 
L 405.902024 91.741725 
L 407.583516 91.196713 
" clip-path="url(#p702730f2fb)" style="fill: none; stroke: #b85b36; stroke-width: 1.5; stroke-linecap: square"/>
   </g>
   <g id="line2d_23">
    <path d="M 247.841778 165.427417 
L 249.52327 165.011226 
L 251.204762 165.169775 
L 252.886254 165.506692 
L 254.567746 165.427417 
L 256.249238 165.38778 
L 257.93073 165.189594 
L 259.612222 164.912133 
L 261.293714 164.595035 
L 262.975206 164.139206 
L 264.656698 163.683377 
L 266.33819 163.128455 
L 268.019682 162.553715 
L 269.701174 161.820425 
L 271.382665 160.988043 
L 273.064157 160.016929 
L 274.745649 158.887267 
L 276.427141 157.559418 
L 278.108633 155.993746 
L 279.790125 154.269525 
L 281.471617 152.327298 
L 283.153109 150.147248 
L 284.834601 147.828468 
L 286.516093 145.192589 
L 288.197585 142.318887 
L 289.879077 139.187542 
L 291.560569 135.758918 
L 293.242061 132.310475 
L 294.923553 128.921488 
L 296.605045 125.334315 
L 298.286537 121.925509 
L 299.968029 118.437429 
L 301.649521 115.127717 
L 303.331013 111.87746 
L 305.012505 108.805572 
L 306.693997 105.793139 
L 308.375489 102.919437 
L 310.056981 100.085372 
L 311.738473 97.409856 
L 313.419965 94.813614 
L 315.101457 92.197554 
L 316.782949 89.740043 
L 318.464441 87.341988 
L 320.145933 84.963752 
L 321.827425 82.625152 
L 323.508917 80.464921 
L 325.190409 78.324508 
L 326.871901 76.184096 
L 328.553393 74.063501 
L 330.234885 72.141094 
L 331.916377 70.198867 
L 333.597869 68.256641 
L 335.279361 66.393689 
L 336.960853 64.62983 
L 338.642345 63.004702 
L 340.323837 61.300299 
L 342.005329 59.714808 
L 343.686821 58.129317 
L 345.368312 56.623101 
L 347.049804 55.136703 
L 348.731296 53.72958 
L 350.412788 52.263001 
L 352.09428 50.935152 
L 353.775772 49.686578 
L 355.457264 48.457823 
L 357.138756 47.209248 
L 358.820248 46.039949 
L 360.50174 44.949924 
L 362.183232 43.958992 
L 363.864724 43.106791 
L 365.546216 42.254589 
L 367.227708 41.580756 
L 368.9092 41.025834 
L 370.590692 40.530368 
L 372.272184 40.173632 
L 373.953676 39.91599 
L 375.635168 39.697985 
L 377.31666 39.579073 
L 378.998152 39.440343 
L 380.679644 39.361068 
L 382.361136 39.281794 
L 384.042628 39.301612 
L 385.72412 39.242156 
L 387.405612 39.261975 
L 389.087104 39.202519 
L 390.768596 39.182701 
L 392.450088 39.162882 
L 394.13158 39.182701 
L 395.813072 39.222338 
L 397.494564 39.202519 
L 399.176056 39.222338 
L 400.857548 39.222338 
L 402.53904 39.202519 
L 404.220532 39.222338 
L 405.902024 39.281794 
L 407.583516 39.281794 
" clip-path="url(#p702730f2fb)" style="fill: none; stroke: #c9b54e; stroke-width: 1.5; stroke-linecap: square"/>
   </g>
   <g id="line2d_24">
    <path d="M 247.841778 165.467055 
L 249.52327 165.021135 
L 251.204762 165.318415 
L 252.886254 165.615694 
L 254.567746 165.665241 
L 256.249238 165.615694 
L 257.93073 165.417508 
L 259.612222 165.219322 
L 261.293714 164.971589 
L 262.975206 164.773402 
L 264.656698 164.426576 
L 266.33819 164.129297 
L 268.019682 163.78247 
L 269.701174 163.336551 
L 271.382665 162.890632 
L 273.064157 162.345619 
L 274.745649 161.75106 
L 276.427141 161.206048 
L 278.108633 160.661035 
L 279.790125 160.116023 
L 281.471617 159.620557 
L 283.153109 159.125091 
L 284.834601 158.728718 
L 286.516093 158.332345 
L 288.197585 157.935973 
L 289.879077 157.638693 
L 291.560569 157.341413 
L 293.242061 157.044134 
L 294.923553 156.796401 
L 296.605045 156.548668 
L 298.286537 156.251388 
L 299.968029 155.954109 
L 301.649521 155.656829 
L 303.331013 155.310003 
L 305.012505 154.963177 
L 306.693997 154.566804 
L 308.375489 154.170432 
L 310.056981 153.774059 
L 311.738473 153.328139 
L 313.419965 152.88222 
L 315.101457 152.436301 
L 316.782949 151.990381 
L 318.464441 151.544462 
L 320.145933 151.098543 
L 321.827425 150.70217 
L 323.508917 150.305797 
L 325.190409 149.909425 
L 326.871901 149.562598 
L 328.553393 149.166226 
L 330.234885 148.769853 
L 331.916377 148.472573 
L 333.597869 148.175294 
L 335.279361 147.828468 
L 336.960853 147.531188 
L 338.642345 147.283455 
L 340.323837 146.936629 
L 342.005329 146.63935 
L 343.686821 146.391617 
L 345.368312 146.143884 
L 347.049804 145.846604 
L 348.731296 145.648418 
L 350.412788 145.351138 
L 352.09428 145.152952 
L 353.775772 144.905219 
L 355.457264 144.657486 
L 357.138756 144.508846 
L 358.820248 144.261113 
L 360.50174 144.062927 
L 362.183232 143.815194 
L 363.864724 143.617007 
L 365.546216 143.418821 
L 367.227708 143.220635 
L 368.9092 143.022448 
L 370.590692 142.824262 
L 372.272184 142.626076 
L 373.953676 142.477436 
L 375.635168 142.279249 
L 377.31666 142.081063 
L 378.998152 141.83333 
L 380.679644 141.734237 
L 382.361136 141.536051 
L 384.042628 141.387411 
L 385.72412 141.189224 
L 387.405612 141.040585 
L 389.087104 140.842398 
L 390.768596 140.693758 
L 392.450088 140.594665 
L 394.13158 140.396479 
L 395.813072 140.198293 
L 397.494564 140.049653 
L 399.176056 139.95056 
L 400.857548 139.80192 
L 402.53904 139.554187 
L 404.220532 139.455094 
L 405.902024 139.256907 
L 407.583516 139.108268 
" clip-path="url(#p702730f2fb)" style="fill: none; stroke: #6c6c6c; stroke-width: 1.5; stroke-linecap: square"/>
   </g>
   <g id="patch_6">
    <path d="M 239.854691 173.238437 
L 239.854691 20.798437 
" style="fill: none; stroke: #000000; stroke-width: 0.8; stroke-linejoin: miter; stroke-linecap: square"/>
   </g>
   <g id="patch_7">
    <path d="M 239.854691 173.238437 
L 415.570603 173.238437 
" style="fill: none; stroke: #000000; stroke-width: 0.8; stroke-linejoin: miter; stroke-linecap: square"/>
   </g>
   <g id="text_17">
    <!-- concentrations = 4.0 -->
    <g transform="translate(275.159522 14.798437) scale(0.1 -0.1)">
     <defs>
      <path id="DejaVuSans-34" d="M 2419 4116 
L 825 1625 
L 2419 1625 
L 2419 4116 
z
M 2253 4666 
L 3047 4666 
L 3047 1625 
L 3713 1625 
L 3713 1100 
L 3047 1100 
L 3047 0 
L 2419 0 
L 2419 1100 
L 313 1100 
L 313 1709 
L 2253 4666 
z
" transform="scale(0.015625)"/>
     </defs>
     <use xlink:href="#DejaVuSans-63"/>
     <use xlink:href="#DejaVuSans-6f" x="54.980469"/>
     <use xlink:href="#DejaVuSans-6e" x="116.162109"/>
     <use xlink:href="#DejaVuSans-63" x="179.541016"/>
     <use xlink:href="#DejaVuSans-65" x="234.521484"/>
     <use xlink:href="#DejaVuSans-6e" x="296.044922"/>
     <use xlink:href="#DejaVuSans-74" x="359.423828"/>
     <use xlink:href="#DejaVuSans-72" x="398.632812"/>
     <use xlink:href="#DejaVuSans-61" x="439.746094"/>
     <use xlink:href="#DejaVuSans-74" x="501.025391"/>
     <use xlink:href="#DejaVuSans-69" x="540.234375"/>
     <use xlink:href="#DejaVuSans-6f" x="568.017578"/>
     <use xlink:href="#DejaVuSans-6e" x="629.199219"/>
     <use xlink:href="#DejaVuSans-73" x="692.578125"/>
     <use xlink:href="#DejaVuSans-20" x="744.677734"/>
     <use xlink:href="#DejaVuSans-3d" x="776.464844"/>
     <use xlink:href="#DejaVuSans-20" x="860.253906"/>
     <use xlink:href="#DejaVuSans-34" x="892.041016"/>
     <use xlink:href="#DejaVuSans-2e" x="955.664062"/>
     <use xlink:href="#DejaVuSans-30" x="987.451172"/>
    </g>
   </g>
  </g>
  <g id="legend_1">
   <g id="text_18">
    <!-- Zygosity Erg11 H468T -->
    <g transform="translate(422.515003 86.139531) scale(0.1 -0.1)">
     <defs>
      <path id="DejaVuSans-5a" d="M 359 4666 
L 4025 4666 
L 4025 4184 
L 1075 531 
L 4097 531 
L 4097 0 
L 288 0 
L 288 481 
L 3238 4134 
L 359 4134 
L 359 4666 
z
" transform="scale(0.015625)"/>
      <path id="DejaVuSans-79" d="M 2059 -325 
Q 1816 -950 1584 -1140 
Q 1353 -1331 966 -1331 
L 506 -1331 
L 506 -850 
L 844 -850 
Q 1081 -850 1212 -737 
Q 1344 -625 1503 -206 
L 1606 56 
L 191 3500 
L 800 3500 
L 1894 763 
L 2988 3500 
L 3597 3500 
L 2059 -325 
z
" transform="scale(0.015625)"/>
      <path id="DejaVuSans-67" d="M 2906 1791 
Q 2906 2416 2648 2759 
Q 2391 3103 1925 3103 
Q 1463 3103 1205 2759 
Q 947 2416 947 1791 
Q 947 1169 1205 825 
Q 1463 481 1925 481 
Q 2391 481 2648 825 
Q 2906 1169 2906 1791 
z
M 3481 434 
Q 3481 -459 3084 -895 
Q 2688 -1331 1869 -1331 
Q 1566 -1331 1297 -1286 
Q 1028 -1241 775 -1147 
L 775 -588 
Q 1028 -725 1275 -790 
Q 1522 -856 1778 -856 
Q 2344 -856 2625 -561 
Q 2906 -266 2906 331 
L 2906 616 
Q 2728 306 2450 153 
Q 2172 0 1784 0 
Q 1141 0 747 490 
Q 353 981 353 1791 
Q 353 2603 747 3093 
Q 1141 3584 1784 3584 
Q 2172 3584 2450 3431 
Q 2728 3278 2906 2969 
L 2906 3500 
L 3481 3500 
L 3481 434 
z
" transform="scale(0.015625)"/>
      <path id="DejaVuSans-45" d="M 628 4666 
L 3578 4666 
L 3578 4134 
L 1259 4134 
L 1259 2753 
L 3481 2753 
L 3481 2222 
L 1259 2222 
L 1259 531 
L 3634 531 
L 3634 0 
L 628 0 
L 628 4666 
z
" transform="scale(0.015625)"/>
      <path id="DejaVuSans-48" d="M 628 4666 
L 1259 4666 
L 1259 2753 
L 3553 2753 
L 3553 4666 
L 4184 4666 
L 4184 0 
L 3553 0 
L 3553 2222 
L 1259 2222 
L 1259 0 
L 628 0 
L 628 4666 
z
" transform="scale(0.015625)"/>
      <path id="DejaVuSans-36" d="M 2113 2584 
Q 1688 2584 1439 2293 
Q 1191 2003 1191 1497 
Q 1191 994 1439 701 
Q 1688 409 2113 409 
Q 2538 409 2786 701 
Q 3034 994 3034 1497 
Q 3034 2003 2786 2293 
Q 2538 2584 2113 2584 
z
M 3366 4563 
L 3366 3988 
Q 3128 4100 2886 4159 
Q 2644 4219 2406 4219 
Q 1781 4219 1451 3797 
Q 1122 3375 1075 2522 
Q 1259 2794 1537 2939 
Q 1816 3084 2150 3084 
Q 2853 3084 3261 2657 
Q 3669 2231 3669 1497 
Q 3669 778 3244 343 
Q 2819 -91 2113 -91 
Q 1303 -91 875 529 
Q 447 1150 447 2328 
Q 447 3434 972 4092 
Q 1497 4750 2381 4750 
Q 2619 4750 2861 4703 
Q 3103 4656 3366 4563 
z
" transform="scale(0.015625)"/>
      <path id="DejaVuSans-38" d="M 2034 2216 
Q 1584 2216 1326 1975 
Q 1069 1734 1069 1313 
Q 1069 891 1326 650 
Q 1584 409 2034 409 
Q 2484 409 2743 651 
Q 3003 894 3003 1313 
Q 3003 1734 2745 1975 
Q 2488 2216 2034 2216 
z
M 1403 2484 
Q 997 2584 770 2862 
Q 544 3141 544 3541 
Q 544 4100 942 4425 
Q 1341 4750 2034 4750 
Q 2731 4750 3128 4425 
Q 3525 4100 3525 3541 
Q 3525 3141 3298 2862 
Q 3072 2584 2669 2484 
Q 3125 2378 3379 2068 
Q 3634 1759 3634 1313 
Q 3634 634 3220 271 
Q 2806 -91 2034 -91 
Q 1263 -91 848 271 
Q 434 634 434 1313 
Q 434 1759 690 2068 
Q 947 2378 1403 2484 
z
M 1172 3481 
Q 1172 3119 1398 2916 
Q 1625 2713 2034 2713 
Q 2441 2713 2670 2916 
Q 2900 3119 2900 3481 
Q 2900 3844 2670 4047 
Q 2441 4250 2034 4250 
Q 1625 4250 1398 4047 
Q 1172 3844 1172 3481 
z
" transform="scale(0.015625)"/>
      <path id="DejaVuSans-54" d="M -19 4666 
L 3928 4666 
L 3928 4134 
L 2272 4134 
L 2272 0 
L 1638 0 
L 1638 4134 
L -19 4134 
L -19 4666 
z
" transform="scale(0.015625)"/>
     </defs>
     <use xlink:href="#DejaVuSans-5a"/>
     <use xlink:href="#DejaVuSans-79" x="68.505859"/>
     <use xlink:href="#DejaVuSans-67" x="127.685547"/>
     <use xlink:href="#DejaVuSans-6f" x="191.162109"/>
     <use xlink:href="#DejaVuSans-73" x="252.34375"/>
     <use xlink:href="#DejaVuSans-69" x="304.443359"/>
     <use xlink:href="#DejaVuSans-74" x="332.226562"/>
     <use xlink:href="#DejaVuSans-79" x="371.435547"/>
     <use xlink:href="#DejaVuSans-20" x="430.615234"/>
     <use xlink:href="#DejaVuSans-45" x="462.402344"/>
     <use xlink:href="#DejaVuSans-72" x="525.585938"/>
     <use xlink:href="#DejaVuSans-67" x="564.949219"/>
     <use xlink:href="#DejaVuSans-31" x="628.425781"/>
     <use xlink:href="#DejaVuSans-31" x="692.048828"/>
     <use xlink:href="#DejaVuSans-20" x="755.671875"/>
     <use xlink:href="#DejaVuSans-48" x="787.458984"/>
     <use xlink:href="#DejaVuSans-34" x="862.654297"/>
     <use xlink:href="#DejaVuSans-36" x="926.277344"/>
     <use xlink:href="#DejaVuSans-38" x="989.900391"/>
     <use xlink:href="#DejaVuSans-54" x="1053.523438"/>
    </g>
   </g>
   <g id="line2d_25">
    <path d="M 429.779846 97.317656 
L 439.779846 97.317656 
L 449.779846 97.317656 
" style="fill: none; stroke: #b85b36; stroke-width: 1.5; stroke-linecap: square"/>
   </g>
   <g id="text_19">
    <!-- Heterozygous -->
    <g transform="translate(457.779846 100.817656) scale(0.1 -0.1)">
     <defs>
      <path id="DejaVuSans-7a" d="M 353 3500 
L 3084 3500 
L 3084 2975 
L 922 459 
L 3084 459 
L 3084 0 
L 275 0 
L 275 525 
L 2438 3041 
L 353 3041 
L 353 3500 
z
" transform="scale(0.015625)"/>
      <path id="DejaVuSans-75" d="M 544 1381 
L 544 3500 
L 1119 3500 
L 1119 1403 
Q 1119 906 1312 657 
Q 1506 409 1894 409 
Q 2359 409 2629 706 
Q 2900 1003 2900 1516 
L 2900 3500 
L 3475 3500 
L 3475 0 
L 2900 0 
L 2900 538 
Q 2691 219 2414 64 
Q 2138 -91 1772 -91 
Q 1169 -91 856 284 
Q 544 659 544 1381 
z
M 1991 3584 
L 1991 3584 
z
" transform="scale(0.015625)"/>
     </defs>
     <use xlink:href="#DejaVuSans-48"/>
     <use xlink:href="#DejaVuSans-65" x="75.195312"/>
     <use xlink:href="#DejaVuSans-74" x="136.71875"/>
     <use xlink:href="#DejaVuSans-65" x="175.927734"/>
     <use xlink:href="#DejaVuSans-72" x="237.451172"/>
     <use xlink:href="#DejaVuSans-6f" x="276.314453"/>
     <use xlink:href="#DejaVuSans-7a" x="337.496094"/>
     <use xlink:href="#DejaVuSans-79" x="389.986328"/>
     <use xlink:href="#DejaVuSans-67" x="449.166016"/>
     <use xlink:href="#DejaVuSans-6f" x="512.642578"/>
     <use xlink:href="#DejaVuSans-75" x="573.824219"/>
     <use xlink:href="#DejaVuSans-73" x="637.203125"/>
    </g>
   </g>
   <g id="line2d_26">
    <path d="M 429.779846 111.995781 
L 439.779846 111.995781 
L 449.779846 111.995781 
" style="fill: none; stroke: #c9b54e; stroke-width: 1.5; stroke-linecap: square"/>
   </g>
   <g id="text_20">
    <!-- Homozygous -->
    <g transform="translate(457.779846 115.495781) scale(0.1 -0.1)">
     <use xlink:href="#DejaVuSans-48"/>
     <use xlink:href="#DejaVuSans-6f" x="75.195312"/>
     <use xlink:href="#DejaVuSans-6d" x="136.376953"/>
     <use xlink:href="#DejaVuSans-6f" x="233.789062"/>
     <use xlink:href="#DejaVuSans-7a" x="294.970703"/>
     <use xlink:href="#DejaVuSans-79" x="347.460938"/>
     <use xlink:href="#DejaVuSans-67" x="406.640625"/>
     <use xlink:href="#DejaVuSans-6f" x="470.117188"/>
     <use xlink:href="#DejaVuSans-75" x="531.298828"/>
     <use xlink:href="#DejaVuSans-73" x="594.677734"/>
    </g>
   </g>
   <g id="line2d_27">
    <path d="M 429.779846 126.673906 
L 439.779846 126.673906 
L 449.779846 126.673906 
" style="fill: none; stroke: #6c6c6c; stroke-width: 1.5; stroke-linecap: square"/>
   </g>
   <g id="text_21">
    <!-- Wild-type -->
    <g transform="translate(457.779846 130.173906) scale(0.1 -0.1)">
     <defs>
      <path id="DejaVuSans-57" d="M 213 4666 
L 850 4666 
L 1831 722 
L 2809 4666 
L 3519 4666 
L 4500 722 
L 5478 4666 
L 6119 4666 
L 4947 0 
L 4153 0 
L 3169 4050 
L 2175 0 
L 1381 0 
L 213 4666 
z
" transform="scale(0.015625)"/>
      <path id="DejaVuSans-6c" d="M 603 4863 
L 1178 4863 
L 1178 0 
L 603 0 
L 603 4863 
z
" transform="scale(0.015625)"/>
      <path id="DejaVuSans-64" d="M 2906 2969 
L 2906 4863 
L 3481 4863 
L 3481 0 
L 2906 0 
L 2906 525 
Q 2725 213 2448 61 
Q 2172 -91 1784 -91 
Q 1150 -91 751 415 
Q 353 922 353 1747 
Q 353 2572 751 3078 
Q 1150 3584 1784 3584 
Q 2172 3584 2448 3432 
Q 2725 3281 2906 2969 
z
M 947 1747 
Q 947 1113 1208 752 
Q 1469 391 1925 391 
Q 2381 391 2643 752 
Q 2906 1113 2906 1747 
Q 2906 2381 2643 2742 
Q 2381 3103 1925 3103 
Q 1469 3103 1208 2742 
Q 947 2381 947 1747 
z
" transform="scale(0.015625)"/>
      <path id="DejaVuSans-2d" d="M 313 2009 
L 1997 2009 
L 1997 1497 
L 313 1497 
L 313 2009 
z
" transform="scale(0.015625)"/>
      <path id="DejaVuSans-70" d="M 1159 525 
L 1159 -1331 
L 581 -1331 
L 581 3500 
L 1159 3500 
L 1159 2969 
Q 1341 3281 1617 3432 
Q 1894 3584 2278 3584 
Q 2916 3584 3314 3078 
Q 3713 2572 3713 1747 
Q 3713 922 3314 415 
Q 2916 -91 2278 -91 
Q 1894 -91 1617 61 
Q 1341 213 1159 525 
z
M 3116 1747 
Q 3116 2381 2855 2742 
Q 2594 3103 2138 3103 
Q 1681 3103 1420 2742 
Q 1159 2381 1159 1747 
Q 1159 1113 1420 752 
Q 1681 391 2138 391 
Q 2594 391 2855 752 
Q 3116 1113 3116 1747 
z
" transform="scale(0.015625)"/>
     </defs>
     <use xlink:href="#DejaVuSans-57"/>
     <use xlink:href="#DejaVuSans-69" x="96.626953"/>
     <use xlink:href="#DejaVuSans-6c" x="124.410156"/>
     <use xlink:href="#DejaVuSans-64" x="152.193359"/>
     <use xlink:href="#DejaVuSans-2d" x="215.669922"/>
     <use xlink:href="#DejaVuSans-74" x="251.753906"/>
     <use xlink:href="#DejaVuSans-79" x="290.962891"/>
     <use xlink:href="#DejaVuSans-70" x="350.142578"/>
     <use xlink:href="#DejaVuSans-65" x="413.619141"/>
    </g>
   </g>
  </g>
 </g>
 <defs>
  <clipPath id="p027a253180">
   <rect x="50.14375" y="20.798437" width="175.715912" height="152.44"/>
  </clipPath>
  <clipPath id="p702730f2fb">
   <rect x="239.854691" y="20.798437" width="175.715912" height="152.44"/>
  </clipPath>
 </defs>
</svg>
