<?xml version="1.0" encoding="utf-8" standalone="no"?>
<!DOCTYPE svg PUBLIC "-//W3C//DTD SVG 1.1//EN"
  "http://www.w3.org/Graphics/SVG/1.1/DTD/svg11.dtd">
<svg height="576pt" version="1.1" viewBox="0 0 576 576" width="576pt" xmlns="http://www.w3.org/2000/svg" xmlns:xlink="http://www.w3.org/1999/xlink">
 <metadata>
  <rdf:RDF xmlns:cc="http://creativecommons.org/ns#" xmlns:dc="http://purl.org/dc/elements/1.1/" xmlns:rdf="http://www.w3.org/1999/02/22-rdf-syntax-ns#">
   <cc:Work>
    <dc:type rdf:resource="http://purl.org/dc/dcmitype/StillImage"/>
    <dc:date>2023-10-13T09:29:49.807798</dc:date>
    <dc:format>image/svg+xml</dc:format>
    <dc:creator>
     <cc:Agent>
      <dc:title>Matplotlib v3.4.3, https://matplotlib.org/</dc:title>
     </cc:Agent>
    </dc:creator>
   </cc:Work>
  </rdf:RDF>
 </metadata>
 <defs>
  <style type="text/css">*{stroke-linecap:butt;stroke-linejoin:round;}</style>
 </defs>
 <g id="figure_1">
  <g id="patch_1">
   <path d="M 0 576 
L 576 576 
L 576 0 
L 0 0 
z
" style="fill:none;"/>
  </g>
  <g id="axes_1">
   <g id="patch_2">
    <path d="M 72 504 
L 518.4 504 
L 518.4 69.12 
L 72 69.12 
z
" style="fill:#ffffff;"/>
   </g>
   <g id="PolyCollection_1">
    <defs>
     <path d="M 92.290909 -107.607464 
L 92.290909 -107.607661 
L 100.572913 -107.609472 
L 108.854917 -107.611938 
L 117.13692 -107.615299 
L 125.418924 -107.619878 
L 133.700928 -107.626117 
L 141.982931 -107.634617 
L 150.264935 -107.646198 
L 158.546939 -107.661975 
L 166.828942 -107.68347 
L 175.110946 -107.712752 
L 183.39295 -107.752642 
L 191.674954 -107.806979 
L 199.956957 -107.880989 
L 208.238961 -107.981781 
L 216.520965 -108.119025 
L 224.802968 -108.305862 
L 233.084972 -108.560134 
L 241.366976 -108.906038 
L 249.64898 -109.376326 
L 257.930983 -110.015235 
L 266.212987 -110.882316 
L 274.494991 -112.057387 
L 282.776994 -113.646786 
L 291.058998 -115.791024 
L 299.341002 -118.673662 
L 307.623006 -122.530763 
L 315.905009 -127.659338 
L 324.187013 -134.421708 
L 332.469017 -143.240656 
L 340.75102 -154.577843 
L 349.033024 -168.886614 
L 357.315028 -186.53224 
L 365.597032 -207.681552 
L 373.879035 -232.181432 
L 382.161039 -259.46759 
L 390.443043 -288.556672 
L 398.725046 -318.157287 
L 407.00705 -346.885417 
L 415.289054 -373.513647 
L 423.571058 -397.163838 
L 431.853061 -417.385615 
L 440.135065 -434.121581 
L 448.417069 -447.603015 
L 456.699072 -458.228154 
L 464.981076 -466.4589 
L 473.26308 -472.75001 
L 481.545083 -477.509524 
L 489.827087 -481.082459 
L 498.109091 -483.749028 
L 498.109091 -487.112727 
L 498.109091 -487.112727 
L 489.827087 -485.541576 
L 481.545083 -483.394074 
L 473.26308 -480.469535 
L 464.981076 -476.50661 
L 456.699072 -471.172747 
L 448.417069 -464.058544 
L 440.135065 -454.683769 
L 431.853061 -442.524962 
L 423.571058 -427.076437 
L 415.289054 -407.953126 
L 407.00705 -385.030239 
L 398.725046 -358.588939 
L 390.443043 -329.408136 
L 382.161039 -298.734083 
L 373.879035 -268.096821 
L 365.597032 -239.019154 
L 357.315028 -212.72849 
L 349.033024 -189.980055 
L 340.75102 -171.033362 
L 332.469017 -155.748115 
L 324.187013 -143.730741 
L 315.905009 -134.472774 
L 307.623006 -127.451719 
L 299.341002 -122.19024 
L 291.058998 -118.282509 
L 282.776994 -115.399472 
L 274.494991 -113.282864 
L 266.212987 -111.734538 
L 257.930983 -110.604908 
L 249.64898 -109.782338 
L 241.366976 -109.184205 
L 233.084972 -108.749714 
L 224.802968 -108.43433 
L 216.520965 -108.205525 
L 208.238961 -108.039596 
L 199.956957 -107.9193 
L 191.674954 -107.832104 
L 183.39295 -107.76891 
L 175.110946 -107.723116 
L 166.828942 -107.689934 
L 158.546939 -107.665891 
L 150.264935 -107.648472 
L 141.982931 -107.635851 
L 133.700928 -107.626708 
L 125.418924 -107.620084 
L 117.13692 -107.615285 
L 108.854917 -107.611808 
L 100.572913 -107.609289 
L 92.290909 -107.607464 
z
" id="mb002a54b64" style="stroke:#d3d3d3;"/>
    </defs>
    <g clip-path="url(#p2482be56e4)">
     <use style="fill:#d3d3d3;stroke:#d3d3d3;" x="0" xlink:href="#mb002a54b64" y="576"/>
    </g>
   </g>
   <g id="matplotlib.axis_1">
    <g id="xtick_1">
     <g id="line2d_1">
      <defs>
       <path d="M 0 0 
L 0 3.5 
" id="m653259058a" style="stroke:#000000;stroke-width:0.8;"/>
      </defs>
      <g>
       <use style="stroke:#000000;stroke-width:0.8;" x="74.919372" xlink:href="#m653259058a" y="504"/>
      </g>
     </g>
     <g id="text_1">
      <!-- $\mathdefault{2^{-4}}$ -->
      <g transform="translate(67.769372 521.0125)">
       <text>
        <tspan style="font-family:Arial;font-size:10px;font-style:regular;font-weight:regular;" x="0" y="-0.02125000000000199">2</tspan>
        <tspan style="font-family:Arial;font-size:7px;font-style:regular;font-weight:regular;" x="5.735758 9.823648" y="-6.9906250000000005">−4</tspan>
       </text>
      </g>
     </g>
    </g>
    <g id="xtick_2">
     <g id="line2d_2">
      <g>
       <use style="stroke:#000000;stroke-width:0.8;" x="156.083009" xlink:href="#m653259058a" y="504"/>
      </g>
     </g>
     <g id="text_2">
      <!-- $\mathdefault{2^{-3}}$ -->
      <g transform="translate(148.933009 521.1125)">
       <text>
        <tspan style="font-family:Arial;font-size:10px;font-style:regular;font-weight:regular;" x="0" y="-0.9993750000000006">2</tspan>
        <tspan style="font-family:Arial;font-size:7px;font-style:regular;font-weight:regular;" x="5.735758 9.823648" y="-7.968749999999999">−3</tspan>
       </text>
      </g>
     </g>
    </g>
    <g id="xtick_3">
     <g id="line2d_3">
      <g>
       <use style="stroke:#000000;stroke-width:0.8;" x="237.246645" xlink:href="#m653259058a" y="504"/>
      </g>
     </g>
     <g id="text_3">
      <!-- $\mathdefault{2^{-2}}$ -->
      <g transform="translate(230.096645 521.1125)">
       <text>
        <tspan style="font-family:Arial;font-size:10px;font-style:regular;font-weight:regular;" x="0" y="-0.9993750000000006">2</tspan>
        <tspan style="font-family:Arial;font-size:7px;font-style:regular;font-weight:regular;" x="5.735758 9.823648" y="-7.968749999999999">−2</tspan>
       </text>
      </g>
     </g>
    </g>
    <g id="xtick_4">
     <g id="line2d_4">
      <g>
       <use style="stroke:#000000;stroke-width:0.8;" x="318.410281" xlink:href="#m653259058a" y="504"/>
      </g>
     </g>
     <g id="text_4">
      <!-- $\mathdefault{2^{-1}}$ -->
      <g transform="translate(311.260281 521.1125)">
       <text>
        <tspan style="font-family:Arial;font-size:10px;font-style:regular;font-weight:regular;" x="0" y="-0.9993750000000006">2</tspan>
        <tspan style="font-family:Arial;font-size:7px;font-style:regular;font-weight:regular;" x="5.735758 9.823648" y="-7.968749999999999">−1</tspan>
       </text>
      </g>
     </g>
    </g>
    <g id="xtick_5">
     <g id="line2d_5">
      <g>
       <use style="stroke:#000000;stroke-width:0.8;" x="399.573918" xlink:href="#m653259058a" y="504"/>
      </g>
     </g>
     <g id="text_5">
      <!-- $\mathdefault{2^{0}}$ -->
      <g transform="translate(394.473918 521.1125)">
       <text>
        <tspan style="font-family:Arial;font-size:10px;font-style:regular;font-weight:regular;" x="0" y="-0.9993750000000006">2</tspan>
        <tspan style="font-family:Arial;font-size:7px;font-style:regular;font-weight:regular;" x="5.735758" y="-7.968749999999999">0</tspan>
       </text>
      </g>
     </g>
    </g>
    <g id="xtick_6">
     <g id="line2d_6">
      <g>
       <use style="stroke:#000000;stroke-width:0.8;" x="480.737554" xlink:href="#m653259058a" y="504"/>
      </g>
     </g>
     <g id="text_6">
      <!-- $\mathdefault{2^{1}}$ -->
      <g transform="translate(475.637554 521.1125)">
       <text>
        <tspan style="font-family:Arial;font-size:10px;font-style:regular;font-weight:regular;" x="0" y="-0.9993750000000006">2</tspan>
        <tspan style="font-family:Arial;font-size:7px;font-style:regular;font-weight:regular;" x="5.735758" y="-7.968749999999999">1</tspan>
       </text>
      </g>
     </g>
    </g>
    <g id="text_7">
     <text style="font-family:Arial;font-size:14px;font-stretch:normal;font-style:normal;font-weight:normal;text-anchor:middle;" transform="rotate(-0, 295.2, 537.291563)" x="295.2" y="537.291563">Clotrimazole concentration (μM)</text>
    </g>
   </g>
   <g id="matplotlib.axis_2">
    <g id="ytick_1">
     <g id="line2d_7">
      <defs>
       <path d="M 0 0 
L -3.5 0 
" id="m5f31f3ff40" style="stroke:#000000;stroke-width:0.8;"/>
      </defs>
      <g>
       <use style="stroke:#000000;stroke-width:0.8;" x="72" xlink:href="#m5f31f3ff40" y="468.397333"/>
      </g>
     </g>
     <g id="text_8">
      <text style="font-family:Arial;font-size:10px;font-stretch:normal;font-style:normal;font-weight:normal;text-anchor:end;" transform="rotate(-0, 65, 471.976239)" x="65" y="471.976239">0.0</text>
     </g>
    </g>
    <g id="ytick_2">
     <g id="line2d_8">
      <g>
       <use style="stroke:#000000;stroke-width:0.8;" x="72" xlink:href="#m5f31f3ff40" y="391.656576"/>
      </g>
     </g>
     <g id="text_9">
      <text style="font-family:Arial;font-size:10px;font-stretch:normal;font-style:normal;font-weight:normal;text-anchor:end;" transform="rotate(-0, 65, 395.235483)" x="65" y="395.235483">0.2</text>
     </g>
    </g>
    <g id="ytick_3">
     <g id="line2d_9">
      <g>
       <use style="stroke:#000000;stroke-width:0.8;" x="72" xlink:href="#m5f31f3ff40" y="314.91582"/>
      </g>
     </g>
     <g id="text_10">
      <text style="font-family:Arial;font-size:10px;font-stretch:normal;font-style:normal;font-weight:normal;text-anchor:end;" transform="rotate(-0, 65, 318.494726)" x="65" y="318.494726">0.4</text>
     </g>
    </g>
    <g id="ytick_4">
     <g id="line2d_10">
      <g>
       <use style="stroke:#000000;stroke-width:0.8;" x="72" xlink:href="#m5f31f3ff40" y="238.175063"/>
      </g>
     </g>
     <g id="text_11">
      <text style="font-family:Arial;font-size:10px;font-stretch:normal;font-style:normal;font-weight:normal;text-anchor:end;" transform="rotate(-0, 65, 241.753969)" x="65" y="241.753969">0.6</text>
     </g>
    </g>
    <g id="ytick_5">
     <g id="line2d_11">
      <g>
       <use style="stroke:#000000;stroke-width:0.8;" x="72" xlink:href="#m5f31f3ff40" y="161.434306"/>
      </g>
     </g>
     <g id="text_12">
      <text style="font-family:Arial;font-size:10px;font-stretch:normal;font-style:normal;font-weight:normal;text-anchor:end;" transform="rotate(-0, 65, 165.013213)" x="65" y="165.013213">0.8</text>
     </g>
    </g>
    <g id="ytick_6">
     <g id="line2d_12">
      <g>
       <use style="stroke:#000000;stroke-width:0.8;" x="72" xlink:href="#m5f31f3ff40" y="84.69355"/>
      </g>
     </g>
     <g id="text_13">
      <text style="font-family:Arial;font-size:10px;font-stretch:normal;font-style:normal;font-weight:normal;text-anchor:end;" transform="rotate(-0, 65, 88.272456)" x="65" y="88.272456">1.0</text>
     </g>
    </g>
    <g id="text_14">
     <text style="font-family:Arial;font-size:14px;font-stretch:normal;font-style:normal;font-weight:normal;text-anchor:middle;" transform="rotate(-90, 44.3175, 286.56)" x="44.3175" y="286.56">Relative inhibition</text>
    </g>
   </g>
   <g id="line2d_13">
    <path clip-path="url(#p2482be56e4)" d="M 92.290909 468.392484 
L 100.572913 468.390683 
L 108.854917 468.388213 
L 117.13692 468.384826 
L 125.418924 468.380182 
L 133.700928 468.373812 
L 141.982931 468.365077 
L 150.264935 468.353098 
L 158.546939 468.336672 
L 166.828942 468.314148 
L 175.110946 468.283262 
L 183.39295 468.240913 
L 191.674954 468.182852 
L 199.956957 468.103254 
L 208.238961 467.994148 
L 216.520965 467.844621 
L 224.802968 467.639748 
L 233.084972 467.359143 
L 241.366976 466.974988 
L 249.64898 466.44941 
L 257.930983 465.730979 
L 266.212987 464.750108 
L 274.494991 463.413123 
L 282.776994 461.594805 
L 291.058998 459.129369 
L 299.341002 455.800252 
L 307.623006 451.329801 
L 315.905009 445.371312 
L 324.187013 437.507899 
L 332.469017 427.265361 
L 340.75102 414.148743 
L 349.033024 397.712409 
L 357.315028 377.667599 
L 365.597032 354.015616 
L 373.879035 327.170067 
L 382.161039 298.009978 
L 390.443043 267.809756 
L 398.725046 238.037217 
L 407.00705 210.079476 
L 415.289054 184.9995 
L 423.571058 163.407447 
L 431.853061 145.466616 
L 440.135065 130.994164 
L 448.417069 119.59568 
L 456.699072 110.786315 
L 464.981076 104.076887 
L 473.26308 99.023572 
L 481.545083 95.249505 
L 489.827087 92.448538 
L 498.109091 90.379467 
" style="fill:none;stroke:#000000;stroke-linecap:square;stroke-width:1.5;"/>
   </g>
   <g id="patch_3">
    <path d="M 72 504 
L 72 69.12 
" style="fill:none;stroke:#000000;stroke-linecap:square;stroke-linejoin:miter;stroke-width:0.8;"/>
   </g>
   <g id="patch_4">
    <path d="M 518.4 504 
L 518.4 69.12 
" style="fill:none;stroke:#000000;stroke-linecap:square;stroke-linejoin:miter;stroke-width:0.8;"/>
   </g>
   <g id="patch_5">
    <path d="M 72 504 
L 518.4 504 
" style="fill:none;stroke:#000000;stroke-linecap:square;stroke-linejoin:miter;stroke-width:0.8;"/>
   </g>
   <g id="patch_6">
    <path d="M 72 69.12 
L 518.4 69.12 
" style="fill:none;stroke:#000000;stroke-linecap:square;stroke-linejoin:miter;stroke-width:0.8;"/>
   </g>
   <g id="text_15">
    <text style="font-family:Arial;font-size:16px;font-stretch:normal;font-style:normal;font-weight:normal;text-anchor:start;" transform="rotate(-0, 92.290909, 123.063928)" x="92.290909" y="123.063928">IC50 = 0.31±0.01 μg/mL</text>
   </g>
   <g id="text_16">
    <text style="font-family:Arial;font-size:14px;font-stretch:normal;font-style:normal;font-weight:normal;text-anchor:middle;" transform="rotate(-0, 295.2, 63.12)" x="295.2" y="63.12">Clotrimazole</text>
   </g>
   <g id="line2d_14">
    <defs>
     <path d="M 0 1.5 
C 0.397805 1.5 0.77937 1.341951 1.06066 1.06066 
C 1.341951 0.77937 1.5 0.397805 1.5 0 
C 1.5 -0.397805 1.341951 -0.77937 1.06066 -1.06066 
C 0.77937 -1.341951 0.397805 -1.5 0 -1.5 
C -0.397805 -1.5 -0.77937 -1.341951 -1.06066 -1.06066 
C -1.341951 -0.77937 -1.5 -0.397805 -1.5 0 
C -1.5 0.397805 -1.341951 0.77937 -1.06066 1.06066 
C -0.77937 1.341951 -0.397805 1.5 0 1.5 
z
" id="m615fb62f1a" style="stroke:#1da3de;"/>
    </defs>
    <g clip-path="url(#p2482be56e4)">
     <use style="fill:#1da3de;stroke:#1da3de;" x="92.290909" xlink:href="#m615fb62f1a" y="475.949598"/>
     <use style="fill:#1da3de;stroke:#1da3de;" x="92.290909" xlink:href="#m615fb62f1a" y="474.000626"/>
     <use style="fill:#1da3de;stroke:#1da3de;" x="454.234595" xlink:href="#m615fb62f1a" y="112.953638"/>
     <use style="fill:#1da3de;stroke:#1da3de;" x="454.234595" xlink:href="#m615fb62f1a" y="111.102115"/>
     <use style="fill:#1da3de;stroke:#1da3de;" x="173.454545" xlink:href="#m615fb62f1a" y="484.232727"/>
     <use style="fill:#1da3de;stroke:#1da3de;" x="173.454545" xlink:href="#m615fb62f1a" y="482.868447"/>
     <use style="fill:#1da3de;stroke:#1da3de;" x="464.423138" xlink:href="#m615fb62f1a" y="113.928124"/>
     <use style="fill:#1da3de;stroke:#1da3de;" x="464.423138" xlink:href="#m615fb62f1a" y="107.788863"/>
     <use style="fill:#1da3de;stroke:#1da3de;" x="220.932229" xlink:href="#m615fb62f1a" y="454.51091"/>
     <use style="fill:#1da3de;stroke:#1da3de;" x="220.932229" xlink:href="#m615fb62f1a" y="473.026141"/>
     <use style="fill:#1da3de;stroke:#1da3de;" x="473.795689" xlink:href="#m615fb62f1a" y="115.58475"/>
     <use style="fill:#1da3de;stroke:#1da3de;" x="473.795689" xlink:href="#m615fb62f1a" y="111.199563"/>
     <use style="fill:#1da3de;stroke:#1da3de;" x="254.618182" xlink:href="#m615fb62f1a" y="448.469098"/>
     <use style="fill:#1da3de;stroke:#1da3de;" x="254.618182" xlink:href="#m615fb62f1a" y="457.434368"/>
     <use style="fill:#1da3de;stroke:#1da3de;" x="482.473316" xlink:href="#m615fb62f1a" y="115.292404"/>
     <use style="fill:#1da3de;stroke:#1da3de;" x="482.473316" xlink:href="#m615fb62f1a" y="106.327134"/>
     <use style="fill:#1da3de;stroke:#1da3de;" x="302.095866" xlink:href="#m615fb62f1a" y="424.789094"/>
     <use style="fill:#1da3de;stroke:#1da3de;" x="302.095866" xlink:href="#m615fb62f1a" y="433.26712"/>
     <use style="fill:#1da3de;stroke:#1da3de;" x="490.551993" xlink:href="#m615fb62f1a" y="111.102115"/>
     <use style="fill:#1da3de;stroke:#1da3de;" x="490.551993" xlink:href="#m615fb62f1a" y="104.670509"/>
     <use style="fill:#1da3de;stroke:#1da3de;" x="335.781818" xlink:href="#m615fb62f1a" y="406.761106"/>
     <use style="fill:#1da3de;stroke:#1da3de;" x="335.781818" xlink:href="#m615fb62f1a" y="407.833041"/>
     <use style="fill:#1da3de;stroke:#1da3de;" x="498.109091" xlink:href="#m615fb62f1a" y="108.276106"/>
     <use style="fill:#1da3de;stroke:#1da3de;" x="498.109091" xlink:href="#m615fb62f1a" y="105.157751"/>
     <use style="fill:#1da3de;stroke:#1da3de;" x="361.910673" xlink:href="#m615fb62f1a" y="397.308594"/>
     <use style="fill:#1da3de;stroke:#1da3de;" x="361.910673" xlink:href="#m615fb62f1a" y="404.032546"/>
     <use style="fill:#1da3de;stroke:#1da3de;" x="383.259502" xlink:href="#m615fb62f1a" y="263.80404"/>
     <use style="fill:#1da3de;stroke:#1da3de;" x="383.259502" xlink:href="#m615fb62f1a" y="279.103467"/>
     <use style="fill:#1da3de;stroke:#1da3de;" x="401.309679" xlink:href="#m615fb62f1a" y="243.534735"/>
     <use style="fill:#1da3de;stroke:#1da3de;" x="401.309679" xlink:href="#m615fb62f1a" y="258.152022"/>
     <use style="fill:#1da3de;stroke:#1da3de;" x="416.945455" xlink:href="#m615fb62f1a" y="170.4483"/>
     <use style="fill:#1da3de;stroke:#1da3de;" x="416.945455" xlink:href="#m615fb62f1a" y="166.745254"/>
     <use style="fill:#1da3de;stroke:#1da3de;" x="430.737186" xlink:href="#m615fb62f1a" y="140.629035"/>
     <use style="fill:#1da3de;stroke:#1da3de;" x="430.737186" xlink:href="#m615fb62f1a" y="137.803026"/>
     <use style="fill:#1da3de;stroke:#1da3de;" x="443.074309" xlink:href="#m615fb62f1a" y="102.721537"/>
     <use style="fill:#1da3de;stroke:#1da3de;" x="443.074309" xlink:href="#m615fb62f1a" y="103.013883"/>
     <use style="fill:#1da3de;stroke:#1da3de;" x="-1" xlink:href="#m615fb62f1a" y="105.004224"/>
    </g>
   </g>
  </g>
 </g>
 <defs>
  <clipPath id="p2482be56e4">
   <rect height="434.88" width="446.4" x="72" y="69.12"/>
  </clipPath>
 </defs>
</svg>
