<?xml version="1.0" encoding="utf-8" standalone="no"?>
<!DOCTYPE svg PUBLIC "-//W3C//DTD SVG 1.1//EN"
  "http://www.w3.org/Graphics/SVG/1.1/DTD/svg11.dtd">
<svg height="576pt" version="1.1" viewBox="0 0 576 576" width="576pt" xmlns="http://www.w3.org/2000/svg" xmlns:xlink="http://www.w3.org/1999/xlink">
 <metadata>
  <rdf:RDF xmlns:cc="http://creativecommons.org/ns#" xmlns:dc="http://purl.org/dc/elements/1.1/" xmlns:rdf="http://www.w3.org/1999/02/22-rdf-syntax-ns#">
   <cc:Work>
    <dc:type rdf:resource="http://purl.org/dc/dcmitype/StillImage"/>
    <dc:date>2023-11-08T11:49:31.196092</dc:date>
    <dc:format>image/svg+xml</dc:format>
    <dc:creator>
     <cc:Agent>
      <dc:title>Matplotlib v3.4.3, https://matplotlib.org/</dc:title>
     </cc:Agent>
    </dc:creator>
   </cc:Work>
  </rdf:RDF>
 </metadata>
 <defs>
  <style type="text/css">*{stroke-linecap:butt;stroke-linejoin:round;}</style>
 </defs>
 <g id="figure_1">
  <g id="patch_1">
   <path d="M 0 576 
L 576 576 
L 576 0 
L 0 0 
z
" style="fill:none;"/>
  </g>
  <g id="axes_1">
   <g id="patch_2">
    <path d="M 72 504 
L 518.4 504 
L 518.4 69.12 
L 72 69.12 
z
" style="fill:#ffffff;"/>
   </g>
   <g id="PolyCollection_1">
    <defs>
     <path d="M 92.290909 -108.44464 
L 92.290909 -108.439162 
L 100.572913 -108.443235 
L 108.854917 -108.449295 
L 117.13692 -108.458314 
L 125.418924 -108.471735 
L 133.700928 -108.491708 
L 141.982931 -108.521428 
L 150.264935 -108.565651 
L 158.546939 -108.631446 
L 166.828942 -108.729324 
L 175.110946 -108.874896 
L 183.39295 -109.091336 
L 191.674954 -109.412994 
L 199.956957 -109.890688 
L 208.238961 -110.599384 
L 216.520965 -111.649181 
L 224.802968 -113.200747 
L 233.084972 -115.486264 
L 241.366976 -118.836416 
L 249.64898 -123.711921 
L 257.930983 -130.733492 
L 266.212987 -140.694999 
L 274.494991 -154.530315 
L 282.776994 -173.18941 
L 291.058998 -197.38112 
L 299.341002 -227.191415 
L 307.623006 -261.707309 
L 315.905009 -298.90411 
L 324.187013 -336.014536 
L 332.469017 -370.296454 
L 340.75102 -399.786249 
L 349.033024 -423.637633 
L 357.315028 -441.98535 
L 365.597032 -455.562396 
L 373.879035 -465.323543 
L 382.161039 -472.196655 
L 390.443043 -476.965562 
L 398.725046 -480.240799 
L 407.00705 -482.474429 
L 415.289054 -483.99041 
L 423.571058 -485.015966 
L 431.853061 -485.708221 
L 440.135065 -486.1748 
L 448.417069 -486.488958 
L 456.699072 -486.700344 
L 464.981076 -486.842513 
L 473.26308 -486.938102 
L 481.545083 -487.002358 
L 489.827087 -487.045545 
L 498.109091 -487.07457 
L 498.109091 -487.112727 
L 498.109091 -487.112727 
L 489.827087 -487.101987 
L 481.545083 -487.085834 
L 473.26308 -487.061539 
L 464.981076 -487.025001 
L 456.699072 -486.970055 
L 448.417069 -486.887436 
L 440.135065 -486.76323 
L 431.853061 -486.576556 
L 423.571058 -486.296111 
L 415.289054 -485.875056 
L 407.00705 -485.243478 
L 398.725046 -484.297444 
L 390.443043 -482.883355 
L 382.161039 -480.77624 
L 373.879035 -477.651053 
L 365.597032 -473.047789 
L 357.315028 -466.335863 
L 349.033024 -456.692793 
L 340.75102 -443.128438 
L 332.469017 -424.605124 
L 324.187013 -400.307467 
L 315.905009 -370.06412 
L 307.623006 -334.78498 
L 299.341002 -296.616085 
L 291.058998 -258.541743 
L 282.776994 -223.51737 
L 274.494991 -193.619566 
L 266.212987 -169.684053 
L 257.930983 -151.487178 
L 249.64898 -138.189402 
L 241.366976 -128.749964 
L 233.084972 -122.186686 
L 224.802968 -117.688646 
L 216.520965 -114.636413 
L 208.238961 -112.579178 
L 199.956957 -111.198876 
L 191.674954 -110.275586 
L 183.39295 -109.659255 
L 175.110946 -109.248392 
L 166.828942 -108.974748 
L 158.546939 -108.792607 
L 150.264935 -108.671419 
L 141.982931 -108.590808 
L 133.700928 -108.537198 
L 125.418924 -108.501549 
L 117.13692 -108.477845 
L 108.854917 -108.462085 
L 100.572913 -108.451607 
L 92.290909 -108.44464 
z
" id="m13f8b9864d" style="stroke:#d3d3d3;"/>
    </defs>
    <g clip-path="url(#p4f0bcec3c1)">
     <use style="fill:#d3d3d3;stroke:#d3d3d3;" x="0" xlink:href="#m13f8b9864d" y="576"/>
    </g>
   </g>
   <g id="matplotlib.axis_1">
    <g id="xtick_1">
     <g id="line2d_1">
      <defs>
       <path d="M 0 0 
L 0 3.5 
" id="m2cf9d0046d" style="stroke:#000000;stroke-width:0.8;"/>
      </defs>
      <g>
       <use style="stroke:#000000;stroke-width:0.8;" x="76.78888" xlink:href="#m2cf9d0046d" y="504"/>
      </g>
     </g>
     <g id="text_1">
      <!-- $\mathdefault{2^{-5}}$ -->
      <g transform="translate(69.63888 521.0125)">
       <text>
        <tspan style="font-family:Arial;font-size:10px;font-style:regular;font-weight:regular;" x="0" y="-0.0868750000000027">2</tspan>
        <tspan style="font-family:Arial;font-size:7px;font-style:regular;font-weight:regular;" x="5.735758 9.823648" y="-7.056250000000001">−5</tspan>
       </text>
      </g>
     </g>
    </g>
    <g id="xtick_2">
     <g id="line2d_2">
      <g>
       <use style="stroke:#000000;stroke-width:0.8;" x="157.952516" xlink:href="#m2cf9d0046d" y="504"/>
      </g>
     </g>
     <g id="text_2">
      <!-- $\mathdefault{2^{-4}}$ -->
      <g transform="translate(150.802516 521.0125)">
       <text>
        <tspan style="font-family:Arial;font-size:10px;font-style:regular;font-weight:regular;" x="0" y="-0.02125000000000199">2</tspan>
        <tspan style="font-family:Arial;font-size:7px;font-style:regular;font-weight:regular;" x="5.735758 9.823648" y="-6.9906250000000005">−4</tspan>
       </text>
      </g>
     </g>
    </g>
    <g id="xtick_3">
     <g id="line2d_3">
      <g>
       <use style="stroke:#000000;stroke-width:0.8;" x="239.116152" xlink:href="#m2cf9d0046d" y="504"/>
      </g>
     </g>
     <g id="text_3">
      <!-- $\mathdefault{2^{-3}}$ -->
      <g transform="translate(231.966152 521.1125)">
       <text>
        <tspan style="font-family:Arial;font-size:10px;font-style:regular;font-weight:regular;" x="0" y="-0.9993750000000006">2</tspan>
        <tspan style="font-family:Arial;font-size:7px;font-style:regular;font-weight:regular;" x="5.735758 9.823648" y="-7.968749999999999">−3</tspan>
       </text>
      </g>
     </g>
    </g>
    <g id="xtick_4">
     <g id="line2d_4">
      <g>
       <use style="stroke:#000000;stroke-width:0.8;" x="320.279789" xlink:href="#m2cf9d0046d" y="504"/>
      </g>
     </g>
     <g id="text_4">
      <!-- $\mathdefault{2^{-2}}$ -->
      <g transform="translate(313.129789 521.1125)">
       <text>
        <tspan style="font-family:Arial;font-size:10px;font-style:regular;font-weight:regular;" x="0" y="-0.9993750000000006">2</tspan>
        <tspan style="font-family:Arial;font-size:7px;font-style:regular;font-weight:regular;" x="5.735758 9.823648" y="-7.968749999999999">−2</tspan>
       </text>
      </g>
     </g>
    </g>
    <g id="xtick_5">
     <g id="line2d_5">
      <g>
       <use style="stroke:#000000;stroke-width:0.8;" x="401.443425" xlink:href="#m2cf9d0046d" y="504"/>
      </g>
     </g>
     <g id="text_5">
      <!-- $\mathdefault{2^{-1}}$ -->
      <g transform="translate(394.293425 521.1125)">
       <text>
        <tspan style="font-family:Arial;font-size:10px;font-style:regular;font-weight:regular;" x="0" y="-0.9993750000000006">2</tspan>
        <tspan style="font-family:Arial;font-size:7px;font-style:regular;font-weight:regular;" x="5.735758 9.823648" y="-7.968749999999999">−1</tspan>
       </text>
      </g>
     </g>
    </g>
    <g id="xtick_6">
     <g id="line2d_6">
      <g>
       <use style="stroke:#000000;stroke-width:0.8;" x="482.607062" xlink:href="#m2cf9d0046d" y="504"/>
      </g>
     </g>
     <g id="text_6">
      <!-- $\mathdefault{2^{0}}$ -->
      <g transform="translate(477.507062 521.1125)">
       <text>
        <tspan style="font-family:Arial;font-size:10px;font-style:regular;font-weight:regular;" x="0" y="-0.9993750000000006">2</tspan>
        <tspan style="font-family:Arial;font-size:7px;font-style:regular;font-weight:regular;" x="5.735758" y="-7.968749999999999">0</tspan>
       </text>
      </g>
     </g>
    </g>
    <g id="text_7">
     <text style="font-family:Arial;font-size:14px;font-stretch:normal;font-style:normal;font-weight:normal;text-anchor:middle;" transform="rotate(-0, 295.2, 537.291563)" x="295.2" y="537.291563">Posaconazole concentration (μM)</text>
    </g>
   </g>
   <g id="matplotlib.axis_2">
    <g id="ytick_1">
     <g id="line2d_7">
      <defs>
       <path d="M 0 0 
L -3.5 0 
" id="mcf1a700320" style="stroke:#000000;stroke-width:0.8;"/>
      </defs>
      <g>
       <use style="stroke:#000000;stroke-width:0.8;" x="72" xlink:href="#mcf1a700320" y="467.569178"/>
      </g>
     </g>
     <g id="text_8">
      <text style="font-family:Arial;font-size:10px;font-stretch:normal;font-style:normal;font-weight:normal;text-anchor:end;" transform="rotate(-0, 65, 471.148085)" x="65" y="471.148085">0.0</text>
     </g>
    </g>
    <g id="ytick_2">
     <g id="line2d_8">
      <g>
       <use style="stroke:#000000;stroke-width:0.8;" x="72" xlink:href="#mcf1a700320" y="391.828536"/>
      </g>
     </g>
     <g id="text_9">
      <text style="font-family:Arial;font-size:10px;font-stretch:normal;font-style:normal;font-weight:normal;text-anchor:end;" transform="rotate(-0, 65, 395.407443)" x="65" y="395.407443">0.2</text>
     </g>
    </g>
    <g id="ytick_3">
     <g id="line2d_9">
      <g>
       <use style="stroke:#000000;stroke-width:0.8;" x="72" xlink:href="#mcf1a700320" y="316.087895"/>
      </g>
     </g>
     <g id="text_10">
      <text style="font-family:Arial;font-size:10px;font-stretch:normal;font-style:normal;font-weight:normal;text-anchor:end;" transform="rotate(-0, 65, 319.666801)" x="65" y="319.666801">0.4</text>
     </g>
    </g>
    <g id="ytick_4">
     <g id="line2d_10">
      <g>
       <use style="stroke:#000000;stroke-width:0.8;" x="72" xlink:href="#mcf1a700320" y="240.347253"/>
      </g>
     </g>
     <g id="text_11">
      <text style="font-family:Arial;font-size:10px;font-stretch:normal;font-style:normal;font-weight:normal;text-anchor:end;" transform="rotate(-0, 65, 243.926159)" x="65" y="243.926159">0.6</text>
     </g>
    </g>
    <g id="ytick_5">
     <g id="line2d_11">
      <g>
       <use style="stroke:#000000;stroke-width:0.8;" x="72" xlink:href="#mcf1a700320" y="164.606611"/>
      </g>
     </g>
     <g id="text_12">
      <text style="font-family:Arial;font-size:10px;font-stretch:normal;font-style:normal;font-weight:normal;text-anchor:end;" transform="rotate(-0, 65, 168.185517)" x="65" y="168.185517">0.8</text>
     </g>
    </g>
    <g id="ytick_6">
     <g id="line2d_12">
      <g>
       <use style="stroke:#000000;stroke-width:0.8;" x="72" xlink:href="#mcf1a700320" y="88.865969"/>
      </g>
     </g>
     <g id="text_13">
      <text style="font-family:Arial;font-size:10px;font-stretch:normal;font-style:normal;font-weight:normal;text-anchor:end;" transform="rotate(-0, 65, 92.444876)" x="65" y="92.444876">1.0</text>
     </g>
    </g>
    <g id="text_14">
     <text style="font-family:Arial;font-size:14px;font-stretch:normal;font-style:normal;font-weight:normal;text-anchor:middle;" transform="rotate(-90, 44.3175, 286.56)" x="44.3175" y="286.56">Relative inhibition</text>
    </g>
   </g>
   <g id="line2d_13">
    <path clip-path="url(#p4f0bcec3c1)" d="M 92.290909 467.55864 
L 100.572913 467.553411 
L 108.854917 467.545588 
L 117.13692 467.533884 
L 125.418924 467.516374 
L 133.700928 467.490178 
L 141.982931 467.450991 
L 150.264935 467.392375 
L 158.546939 467.304709 
L 166.828942 467.173618 
L 175.110946 466.977651 
L 183.39295 466.684826 
L 191.674954 466.24755 
L 199.956957 465.595187 
L 208.238961 464.623329 
L 216.520965 463.178571 
L 224.802968 461.037564 
L 233.084972 457.879557 
L 241.366976 453.2534 
L 249.64898 446.544398 
L 257.930983 436.955416 
L 266.212987 423.53154 
L 274.494991 405.274816 
L 282.776994 381.398206 
L 291.058998 351.720725 
L 299.341002 317.08029 
L 307.623006 279.493137 
L 315.905009 241.805185 
L 324.187013 206.892422 
L 332.469017 176.843738 
L 340.75102 152.575524 
L 349.033024 133.963162 
L 357.315028 120.246589 
L 365.597032 110.43229 
L 373.879035 103.557581 
L 382.161039 98.813288 
L 390.443043 95.57282 
L 398.725046 93.375068 
L 407.00705 91.891635 
L 415.289054 90.893587 
L 423.571058 90.223566 
L 431.853061 89.774418 
L 440.135065 89.473627 
L 448.417069 89.272322 
L 456.699072 89.137657 
L 464.981076 89.047599 
L 473.26308 88.987383 
L 481.545083 88.947127 
L 489.827087 88.920216 
L 498.109091 88.902227 
" style="fill:none;stroke:#000000;stroke-linecap:square;stroke-width:1.5;"/>
   </g>
   <g id="patch_3">
    <path d="M 72 504 
L 72 69.12 
" style="fill:none;stroke:#000000;stroke-linecap:square;stroke-linejoin:miter;stroke-width:0.8;"/>
   </g>
   <g id="patch_4">
    <path d="M 518.4 504 
L 518.4 69.12 
" style="fill:none;stroke:#000000;stroke-linecap:square;stroke-linejoin:miter;stroke-width:0.8;"/>
   </g>
   <g id="patch_5">
    <path d="M 72 504 
L 518.4 504 
" style="fill:none;stroke:#000000;stroke-linecap:square;stroke-linejoin:miter;stroke-width:0.8;"/>
   </g>
   <g id="patch_6">
    <path d="M 72 69.12 
L 518.4 69.12 
" style="fill:none;stroke:#000000;stroke-linecap:square;stroke-linejoin:miter;stroke-width:0.8;"/>
   </g>
   <g id="text_15">
    <text style="font-family:Arial;font-size:16px;font-stretch:normal;font-style:normal;font-weight:normal;text-anchor:start;" transform="rotate(-0, 92.290909, 126.73629)" x="92.290909" y="126.73629">IC50 = 0.15±0.01 μg/mL</text>
   </g>
   <g id="text_16">
    <text style="font-family:Arial;font-size:14px;font-stretch:normal;font-style:normal;font-weight:normal;text-anchor:middle;" transform="rotate(-0, 295.2, 63.12)" x="295.2" y="63.12">Posaconazole</text>
   </g>
   <g id="line2d_14">
    <defs>
     <path d="M 0 1.5 
C 0.397805 1.5 0.77937 1.341951 1.06066 1.06066 
C 1.341951 0.77937 1.5 0.397805 1.5 0 
C 1.5 -0.397805 1.341951 -0.77937 1.06066 -1.06066 
C 0.77937 -1.341951 0.397805 -1.5 0 -1.5 
C -0.397805 -1.5 -0.77937 -1.341951 -1.06066 -1.06066 
C -1.341951 -0.77937 -1.5 -0.397805 -1.5 0 
C -1.5 0.397805 -1.341951 0.77937 -1.06066 1.06066 
C -0.77937 1.341951 -0.397805 1.5 0 1.5 
z
" id="ma9f7e3ba3c" style="stroke:#e9d40d;"/>
    </defs>
    <g clip-path="url(#p4f0bcec3c1)">
     <use style="fill:#e9d40d;stroke:#e9d40d;" x="92.290909" xlink:href="#ma9f7e3ba3c" y="483.52364"/>
     <use style="fill:#e9d40d;stroke:#e9d40d;" x="92.290909" xlink:href="#ma9f7e3ba3c" y="484.232727"/>
     <use style="fill:#e9d40d;stroke:#e9d40d;" x="173.454545" xlink:href="#ma9f7e3ba3c" y="452.728996"/>
     <use style="fill:#e9d40d;stroke:#e9d40d;" x="173.454545" xlink:href="#ma9f7e3ba3c" y="458.908185"/>
     <use style="fill:#e9d40d;stroke:#e9d40d;" x="220.932229" xlink:href="#ma9f7e3ba3c" y="421.123967"/>
     <use style="fill:#e9d40d;stroke:#e9d40d;" x="220.932229" xlink:href="#ma9f7e3ba3c" y="424.872"/>
     <use style="fill:#e9d40d;stroke:#e9d40d;" x="254.618182" xlink:href="#ma9f7e3ba3c" y="405.118856"/>
     <use style="fill:#e9d40d;stroke:#e9d40d;" x="254.618182" xlink:href="#ma9f7e3ba3c" y="410.99415"/>
     <use style="fill:#e9d40d;stroke:#e9d40d;" x="302.095866" xlink:href="#ma9f7e3ba3c" y="332.285472"/>
     <use style="fill:#e9d40d;stroke:#e9d40d;" x="302.095866" xlink:href="#ma9f7e3ba3c" y="342.415289"/>
     <use style="fill:#e9d40d;stroke:#e9d40d;" x="335.781818" xlink:href="#ma9f7e3ba3c" y="135.969618"/>
     <use style="fill:#e9d40d;stroke:#e9d40d;" x="335.781818" xlink:href="#ma9f7e3ba3c" y="130.600815"/>
     <use style="fill:#e9d40d;stroke:#e9d40d;" x="361.910673" xlink:href="#ma9f7e3ba3c" y="103.554204"/>
     <use style="fill:#e9d40d;stroke:#e9d40d;" x="361.910673" xlink:href="#ma9f7e3ba3c" y="105.782764"/>
     <use style="fill:#e9d40d;stroke:#e9d40d;" x="383.259502" xlink:href="#ma9f7e3ba3c" y="126.852783"/>
     <use style="fill:#e9d40d;stroke:#e9d40d;" x="383.259502" xlink:href="#ma9f7e3ba3c" y="108.923007"/>
     <use style="fill:#e9d40d;stroke:#e9d40d;" x="401.309679" xlink:href="#ma9f7e3ba3c" y="102.541222"/>
     <use style="fill:#e9d40d;stroke:#e9d40d;" x="401.309679" xlink:href="#ma9f7e3ba3c" y="105.276273"/>
     <use style="fill:#e9d40d;stroke:#e9d40d;" x="416.945455" xlink:href="#ma9f7e3ba3c" y="104.769782"/>
     <use style="fill:#e9d40d;stroke:#e9d40d;" x="416.945455" xlink:href="#ma9f7e3ba3c" y="105.580167"/>
     <use style="fill:#e9d40d;stroke:#e9d40d;" x="430.737186" xlink:href="#ma9f7e3ba3c" y="103.047713"/>
     <use style="fill:#e9d40d;stroke:#e9d40d;" x="430.737186" xlink:href="#ma9f7e3ba3c" y="103.554204"/>
     <use style="fill:#e9d40d;stroke:#e9d40d;" x="443.074309" xlink:href="#ma9f7e3ba3c" y="104.87108"/>
     <use style="fill:#e9d40d;stroke:#e9d40d;" x="443.074309" xlink:href="#ma9f7e3ba3c" y="103.250309"/>
     <use style="fill:#e9d40d;stroke:#e9d40d;" x="454.234595" xlink:href="#ma9f7e3ba3c" y="101.832135"/>
     <use style="fill:#e9d40d;stroke:#e9d40d;" x="454.234595" xlink:href="#ma9f7e3ba3c" y="100.312663"/>
     <use style="fill:#e9d40d;stroke:#e9d40d;" x="464.423138" xlink:href="#ma9f7e3ba3c" y="102.845117"/>
     <use style="fill:#e9d40d;stroke:#e9d40d;" x="464.423138" xlink:href="#ma9f7e3ba3c" y="100.008768"/>
     <use style="fill:#e9d40d;stroke:#e9d40d;" x="473.795689" xlink:href="#ma9f7e3ba3c" y="101.325644"/>
     <use style="fill:#e9d40d;stroke:#e9d40d;" x="473.795689" xlink:href="#ma9f7e3ba3c" y="100.211364"/>
     <use style="fill:#e9d40d;stroke:#e9d40d;" x="482.473316" xlink:href="#ma9f7e3ba3c" y="103.7568"/>
     <use style="fill:#e9d40d;stroke:#e9d40d;" x="482.473316" xlink:href="#ma9f7e3ba3c" y="99.704874"/>
     <use style="fill:#e9d40d;stroke:#e9d40d;" x="490.551993" xlink:href="#ma9f7e3ba3c" y="102.845117"/>
     <use style="fill:#e9d40d;stroke:#e9d40d;" x="490.551993" xlink:href="#ma9f7e3ba3c" y="100.312663"/>
     <use style="fill:#e9d40d;stroke:#e9d40d;" x="498.109091" xlink:href="#ma9f7e3ba3c" y="98.691892"/>
     <use style="fill:#e9d40d;stroke:#e9d40d;" x="498.109091" xlink:href="#ma9f7e3ba3c" y="98.995786"/>
     <use style="fill:#e9d40d;stroke:#e9d40d;" x="-1" xlink:href="#ma9f7e3ba3c" y="101.275256"/>
    </g>
   </g>
  </g>
 </g>
 <defs>
  <clipPath id="p4f0bcec3c1">
   <rect height="434.88" width="446.4" x="72" y="69.12"/>
  </clipPath>
 </defs>
</svg>
