<?xml version="1.0" encoding="utf-8" standalone="no"?>
<!DOCTYPE svg PUBLIC "-//W3C//DTD SVG 1.1//EN"
  "http://www.w3.org/Graphics/SVG/1.1/DTD/svg11.dtd">
<svg height="576pt" version="1.1" viewBox="0 0 576 576" width="576pt" xmlns="http://www.w3.org/2000/svg" xmlns:xlink="http://www.w3.org/1999/xlink">
 <metadata>
  <rdf:RDF xmlns:cc="http://creativecommons.org/ns#" xmlns:dc="http://purl.org/dc/elements/1.1/" xmlns:rdf="http://www.w3.org/1999/02/22-rdf-syntax-ns#">
   <cc:Work>
    <dc:type rdf:resource="http://purl.org/dc/dcmitype/StillImage"/>
    <dc:date>2023-10-13T09:20:06.689847</dc:date>
    <dc:format>image/svg+xml</dc:format>
    <dc:creator>
     <cc:Agent>
      <dc:title>Matplotlib v3.4.3, https://matplotlib.org/</dc:title>
     </cc:Agent>
    </dc:creator>
   </cc:Work>
  </rdf:RDF>
 </metadata>
 <defs>
  <style type="text/css">*{stroke-linecap:butt;stroke-linejoin:round;}</style>
 </defs>
 <g id="figure_1">
  <g id="patch_1">
   <path d="M 0 576 
L 576 576 
L 576 0 
L 0 0 
z
" style="fill:none;"/>
  </g>
  <g id="axes_1">
   <g id="patch_2">
    <path d="M 72 504 
L 518.4 504 
L 518.4 69.12 
L 72 69.12 
z
" style="fill:#ffffff;"/>
   </g>
   <g id="PolyCollection_1">
    <defs>
     <path d="M 92.290909 -106.753996 
L 92.290909 -106.754173 
L 100.572913 -106.754272 
L 108.854917 -106.754421 
L 117.13692 -106.754647 
L 125.418924 -106.754991 
L 133.700928 -106.755512 
L 141.982931 -106.756304 
L 150.264935 -106.757505 
L 158.546939 -106.759328 
L 166.828942 -106.762094 
L 175.110946 -106.766292 
L 183.39295 -106.772664 
L 191.674954 -106.782333 
L 199.956957 -106.797007 
L 208.238961 -106.819274 
L 216.520965 -106.853064 
L 224.802968 -106.904333 
L 233.084972 -106.982117 
L 241.366976 -107.100104 
L 249.64898 -107.279028 
L 257.930983 -107.550252 
L 266.212987 -107.961137 
L 274.494991 -108.583024 
L 282.776994 -109.522948 
L 291.058998 -110.940549 
L 299.341002 -113.071766 
L 307.623006 -116.260493 
L 315.905009 -120.997378 
L 324.187013 -127.959631 
L 332.469017 -138.034409 
L 340.75102 -152.289058 
L 349.033024 -171.829095 
L 357.315028 -197.482885 
L 365.597032 -229.319952 
L 373.879035 -266.181905 
L 382.161039 -305.58373 
L 390.443043 -344.260908 
L 398.725046 -379.178674 
L 407.00705 -408.399582 
L 415.289054 -431.340129 
L 423.571058 -448.463547 
L 431.853061 -460.769326 
L 440.135065 -469.373917 
L 448.417069 -475.2759 
L 456.699072 -479.270919 
L 464.981076 -481.950961 
L 473.26308 -483.738045 
L 481.545083 -484.924907 
L 489.827087 -485.711036 
L 498.109091 -486.230813 
L 498.109091 -487.112727 
L 498.109091 -487.112727 
L 489.827087 -487.027903 
L 481.545083 -486.886133 
L 473.26308 -486.64928 
L 464.981076 -486.253841 
L 456.699072 -485.594369 
L 448.417069 -484.496612 
L 440.135065 -482.674937 
L 431.853061 -479.66742 
L 423.571058 -474.743939 
L 415.289054 -466.794429 
L 407.00705 -454.240846 
L 398.725046 -435.095341 
L 390.443043 -407.394042 
L 382.161039 -370.221183 
L 373.879035 -325.076853 
L 365.597032 -276.450262 
L 357.315028 -230.396332 
L 349.033024 -191.798339 
L 340.75102 -162.628408 
L 332.469017 -142.261203 
L 324.187013 -128.813671 
L 315.905009 -120.259692 
L 307.623006 -114.946831 
L 299.341002 -111.695793 
L 291.058998 -109.72452 
L 282.776994 -108.53585 
L 274.494991 -107.821486 
L 266.212987 -107.393032 
L 257.930983 -107.13637 
L 249.64898 -106.982729 
L 241.366976 -106.890798 
L 233.084972 -106.835806 
L 224.802968 -106.802914 
L 216.520965 -106.783244 
L 208.238961 -106.771481 
L 199.956957 -106.764446 
L 191.674954 -106.76024 
L 183.39295 -106.757725 
L 175.110946 -106.75622 
L 166.828942 -106.755321 
L 158.546939 -106.754783 
L 150.264935 -106.754462 
L 141.982931 -106.754269 
L 133.700928 -106.754154 
L 125.418924 -106.754086 
L 117.13692 -106.754045 
L 108.854917 -106.75402 
L 100.572913 -106.754005 
L 92.290909 -106.753996 
z
" id="m5bfd4feec2" style="stroke:#d3d3d3;"/>
    </defs>
    <g clip-path="url(#p6e002a2d8d)">
     <use style="fill:#d3d3d3;stroke:#d3d3d3;" x="0" xlink:href="#m5bfd4feec2" y="576"/>
    </g>
   </g>
   <g id="matplotlib.axis_1">
    <g id="xtick_1">
     <g id="line2d_1">
      <defs>
       <path d="M 0 0 
L 0 3.5 
" id="mf87258a415" style="stroke:#000000;stroke-width:0.8;"/>
      </defs>
      <g>
       <use style="stroke:#000000;stroke-width:0.8;" x="111.09155" xlink:href="#mf87258a415" y="504"/>
      </g>
     </g>
     <g id="text_1">
      <!-- $\mathdefault{2^{1}}$ -->
      <g transform="translate(105.99155 521.1125)">
       <text>
        <tspan style="font-family:Arial;font-size:10px;font-style:regular;font-weight:regular;" x="0" y="-0.9993750000000006">2</tspan>
        <tspan style="font-family:Arial;font-size:7px;font-style:regular;font-weight:regular;" x="5.735758" y="-7.968749999999999">1</tspan>
       </text>
      </g>
     </g>
    </g>
    <g id="xtick_2">
     <g id="line2d_2">
      <g>
       <use style="stroke:#000000;stroke-width:0.8;" x="175.283704" xlink:href="#mf87258a415" y="504"/>
      </g>
     </g>
     <g id="text_2">
      <!-- $\mathdefault{2^{2}}$ -->
      <g transform="translate(170.183704 521.1125)">
       <text>
        <tspan style="font-family:Arial;font-size:10px;font-style:regular;font-weight:regular;" x="0" y="-0.9993750000000006">2</tspan>
        <tspan style="font-family:Arial;font-size:7px;font-style:regular;font-weight:regular;" x="5.735758" y="-7.968749999999999">2</tspan>
       </text>
      </g>
     </g>
    </g>
    <g id="xtick_3">
     <g id="line2d_3">
      <g>
       <use style="stroke:#000000;stroke-width:0.8;" x="239.475858" xlink:href="#mf87258a415" y="504"/>
      </g>
     </g>
     <g id="text_3">
      <!-- $\mathdefault{2^{3}}$ -->
      <g transform="translate(234.375858 521.1125)">
       <text>
        <tspan style="font-family:Arial;font-size:10px;font-style:regular;font-weight:regular;" x="0" y="-0.9993750000000006">2</tspan>
        <tspan style="font-family:Arial;font-size:7px;font-style:regular;font-weight:regular;" x="5.735758" y="-7.968749999999999">3</tspan>
       </text>
      </g>
     </g>
    </g>
    <g id="xtick_4">
     <g id="line2d_4">
      <g>
       <use style="stroke:#000000;stroke-width:0.8;" x="303.668012" xlink:href="#mf87258a415" y="504"/>
      </g>
     </g>
     <g id="text_4">
      <!-- $\mathdefault{2^{4}}$ -->
      <g transform="translate(298.568012 521.0125)">
       <text>
        <tspan style="font-family:Arial;font-size:10px;font-style:regular;font-weight:regular;" x="0" y="-0.02125000000000199">2</tspan>
        <tspan style="font-family:Arial;font-size:7px;font-style:regular;font-weight:regular;" x="5.735758" y="-6.9906250000000005">4</tspan>
       </text>
      </g>
     </g>
    </g>
    <g id="xtick_5">
     <g id="line2d_5">
      <g>
       <use style="stroke:#000000;stroke-width:0.8;" x="367.860166" xlink:href="#mf87258a415" y="504"/>
      </g>
     </g>
     <g id="text_5">
      <!-- $\mathdefault{2^{5}}$ -->
      <g transform="translate(362.760166 521.0125)">
       <text>
        <tspan style="font-family:Arial;font-size:10px;font-style:regular;font-weight:regular;" x="0" y="-0.0868750000000027">2</tspan>
        <tspan style="font-family:Arial;font-size:7px;font-style:regular;font-weight:regular;" x="5.735758" y="-7.056250000000001">5</tspan>
       </text>
      </g>
     </g>
    </g>
    <g id="xtick_6">
     <g id="line2d_6">
      <g>
       <use style="stroke:#000000;stroke-width:0.8;" x="432.05232" xlink:href="#mf87258a415" y="504"/>
      </g>
     </g>
     <g id="text_6">
      <!-- $\mathdefault{2^{6}}$ -->
      <g transform="translate(426.95232 521.1125)">
       <text>
        <tspan style="font-family:Arial;font-size:10px;font-style:regular;font-weight:regular;" x="0" y="-0.9993750000000006">2</tspan>
        <tspan style="font-family:Arial;font-size:7px;font-style:regular;font-weight:regular;" x="5.735758" y="-7.968749999999999">6</tspan>
       </text>
      </g>
     </g>
    </g>
    <g id="xtick_7">
     <g id="line2d_7">
      <g>
       <use style="stroke:#000000;stroke-width:0.8;" x="496.244474" xlink:href="#mf87258a415" y="504"/>
      </g>
     </g>
     <g id="text_7">
      <!-- $\mathdefault{2^{7}}$ -->
      <g transform="translate(491.144474 521.0125)">
       <text>
        <tspan style="font-family:Arial;font-size:10px;font-style:regular;font-weight:regular;" x="0" y="-0.0868750000000027">2</tspan>
        <tspan style="font-family:Arial;font-size:7px;font-style:regular;font-weight:regular;" x="5.735758" y="-7.056250000000001">7</tspan>
       </text>
      </g>
     </g>
    </g>
    <g id="text_8">
     <text style="font-family:Arial;font-size:14px;font-stretch:normal;font-style:normal;font-weight:normal;text-anchor:middle;" transform="rotate(-0, 295.2, 537.291563)" x="295.2" y="537.291563">Fluconazole concentration (μM)</text>
    </g>
   </g>
   <g id="matplotlib.axis_2">
    <g id="ytick_1">
     <g id="line2d_8">
      <defs>
       <path d="M 0 0 
L -3.5 0 
" id="m43bc3ccc9c" style="stroke:#000000;stroke-width:0.8;"/>
      </defs>
      <g>
       <use style="stroke:#000000;stroke-width:0.8;" x="72" xlink:href="#m43bc3ccc9c" y="469.246017"/>
      </g>
     </g>
     <g id="text_9">
      <text style="font-family:Arial;font-size:10px;font-stretch:normal;font-style:normal;font-weight:normal;text-anchor:end;" transform="rotate(-0, 65, 472.824923)" x="65" y="472.824923">0.0</text>
     </g>
    </g>
    <g id="ytick_2">
     <g id="line2d_9">
      <g>
       <use style="stroke:#000000;stroke-width:0.8;" x="72" xlink:href="#m43bc3ccc9c" y="393.149021"/>
      </g>
     </g>
     <g id="text_10">
      <text style="font-family:Arial;font-size:10px;font-stretch:normal;font-style:normal;font-weight:normal;text-anchor:end;" transform="rotate(-0, 65, 396.727928)" x="65" y="396.727928">0.2</text>
     </g>
    </g>
    <g id="ytick_3">
     <g id="line2d_10">
      <g>
       <use style="stroke:#000000;stroke-width:0.8;" x="72" xlink:href="#m43bc3ccc9c" y="317.052026"/>
      </g>
     </g>
     <g id="text_11">
      <text style="font-family:Arial;font-size:10px;font-stretch:normal;font-style:normal;font-weight:normal;text-anchor:end;" transform="rotate(-0, 65, 320.630932)" x="65" y="320.630932">0.4</text>
     </g>
    </g>
    <g id="ytick_4">
     <g id="line2d_11">
      <g>
       <use style="stroke:#000000;stroke-width:0.8;" x="72" xlink:href="#m43bc3ccc9c" y="240.955031"/>
      </g>
     </g>
     <g id="text_12">
      <text style="font-family:Arial;font-size:10px;font-stretch:normal;font-style:normal;font-weight:normal;text-anchor:end;" transform="rotate(-0, 65, 244.533937)" x="65" y="244.533937">0.6</text>
     </g>
    </g>
    <g id="ytick_5">
     <g id="line2d_12">
      <g>
       <use style="stroke:#000000;stroke-width:0.8;" x="72" xlink:href="#m43bc3ccc9c" y="164.858036"/>
      </g>
     </g>
     <g id="text_13">
      <text style="font-family:Arial;font-size:10px;font-stretch:normal;font-style:normal;font-weight:normal;text-anchor:end;" transform="rotate(-0, 65, 168.436942)" x="65" y="168.436942">0.8</text>
     </g>
    </g>
    <g id="ytick_6">
     <g id="line2d_13">
      <g>
       <use style="stroke:#000000;stroke-width:0.8;" x="72" xlink:href="#m43bc3ccc9c" y="88.76104"/>
      </g>
     </g>
     <g id="text_14">
      <text style="font-family:Arial;font-size:10px;font-stretch:normal;font-style:normal;font-weight:normal;text-anchor:end;" transform="rotate(-0, 65, 92.339947)" x="65" y="92.339947">1.0</text>
     </g>
    </g>
    <g id="text_15">
     <text style="font-family:Arial;font-size:14px;font-stretch:normal;font-style:normal;font-weight:normal;text-anchor:middle;" transform="rotate(-90, 44.3175, 286.56)" x="44.3175" y="286.56">Relative inhibition</text>
    </g>
   </g>
   <g id="line2d_14">
    <path clip-path="url(#p6e002a2d8d)" d="M 92.290909 469.245969 
L 100.572913 469.245941 
L 108.854917 469.245895 
L 117.13692 469.245824 
L 125.418924 469.245709 
L 133.700928 469.245527 
L 141.982931 469.245236 
L 150.264935 469.244773 
L 158.546939 469.244035 
L 166.828942 469.24286 
L 175.110946 469.240988 
L 183.39295 469.238006 
L 191.674954 469.233255 
L 199.956957 469.225686 
L 208.238961 469.213629 
L 216.520965 469.194421 
L 224.802968 469.163826 
L 233.084972 469.115093 
L 241.366976 469.037482 
L 249.64898 468.913904 
L 257.930983 468.717194 
L 266.212987 468.404231 
L 274.494991 467.906706 
L 282.776994 467.116776 
L 291.058998 465.865098 
L 299.341002 463.888038 
L 307.623006 460.780804 
L 315.905009 455.935543 
L 324.187013 448.471849 
L 332.469017 437.188378 
L 340.75102 420.605026 
L 349.033024 397.216557 
L 357.315028 366.078326 
L 365.597032 327.657991 
L 373.879035 284.463395 
L 382.161039 240.697958 
L 390.443043 200.786261 
L 398.725046 167.735971 
L 407.00705 142.485057 
L 415.289054 124.354609 
L 423.571058 111.909265 
L 431.853061 103.627878 
L 440.135065 98.230682 
L 448.417069 94.76071 
L 456.699072 92.549261 
L 464.981076 91.147746 
L 473.26308 90.262678 
L 481.545083 89.705003 
L 489.827087 89.354112 
L 498.109091 89.133526 
" style="fill:none;stroke:#000000;stroke-linecap:square;stroke-width:1.5;"/>
   </g>
   <g id="patch_3">
    <path d="M 72 504 
L 72 69.12 
" style="fill:none;stroke:#000000;stroke-linecap:square;stroke-linejoin:miter;stroke-width:0.8;"/>
   </g>
   <g id="patch_4">
    <path d="M 518.4 504 
L 518.4 69.12 
" style="fill:none;stroke:#000000;stroke-linecap:square;stroke-linejoin:miter;stroke-width:0.8;"/>
   </g>
   <g id="patch_5">
    <path d="M 72 504 
L 518.4 504 
" style="fill:none;stroke:#000000;stroke-linecap:square;stroke-linejoin:miter;stroke-width:0.8;"/>
   </g>
   <g id="patch_6">
    <path d="M 72 69.12 
L 518.4 69.12 
" style="fill:none;stroke:#000000;stroke-linecap:square;stroke-linejoin:miter;stroke-width:0.8;"/>
   </g>
   <g id="text_16">
    <text style="font-family:Arial;font-size:16px;font-stretch:normal;font-style:normal;font-weight:normal;text-anchor:start;" transform="rotate(-0, 92.290909, 126.809538)" x="92.290909" y="126.809538">IC50 = 10.58±0.64 μg/mL</text>
   </g>
   <g id="text_17">
    <text style="font-family:Arial;font-size:14px;font-stretch:normal;font-style:normal;font-weight:normal;text-anchor:middle;" transform="rotate(-0, 295.2, 63.12)" x="295.2" y="63.12">Fluconazole</text>
   </g>
   <g id="line2d_15">
    <defs>
     <path d="M 0 1.5 
C 0.397805 1.5 0.77937 1.341951 1.06066 1.06066 
C 1.341951 0.77937 1.5 0.397805 1.5 0 
C 1.5 -0.397805 1.341951 -0.77937 1.06066 -1.06066 
C 0.77937 -1.341951 0.397805 -1.5 0 -1.5 
C -0.397805 -1.5 -0.77937 -1.341951 -1.06066 -1.06066 
C -1.341951 -0.77937 -1.5 -0.397805 -1.5 0 
C -1.5 0.397805 -1.341951 0.77937 -1.06066 1.06066 
C -0.77937 1.341951 -0.397805 1.5 0 1.5 
z
" id="m04f8a44ecc" style="stroke:#6c44a6;"/>
    </defs>
    <g clip-path="url(#p6e002a2d8d)">
     <use style="fill:#6c44a6;stroke:#6c44a6;" x="-1" xlink:href="#m04f8a44ecc" y="484.205664"/>
     <use style="fill:#6c44a6;stroke:#6c44a6;" x="92.290909" xlink:href="#m04f8a44ecc" y="484.232727"/>
     <use style="fill:#6c44a6;stroke:#6c44a6;" x="92.290909" xlink:href="#m04f8a44ecc" y="465.203549"/>
     <use style="fill:#6c44a6;stroke:#6c44a6;" x="92.290909" xlink:href="#m04f8a44ecc" y="480.880437"/>
     <use style="fill:#6c44a6;stroke:#6c44a6;" x="156.483063" xlink:href="#m04f8a44ecc" y="477.133759"/>
     <use style="fill:#6c44a6;stroke:#6c44a6;" x="156.483063" xlink:href="#m04f8a44ecc" y="479.204291"/>
     <use style="fill:#6c44a6;stroke:#6c44a6;" x="156.483063" xlink:href="#m04f8a44ecc" y="476.936566"/>
     <use style="fill:#6c44a6;stroke:#6c44a6;" x="194.033066" xlink:href="#m04f8a44ecc" y="471.513743"/>
     <use style="fill:#6c44a6;stroke:#6c44a6;" x="194.033066" xlink:href="#m04f8a44ecc" y="469.837597"/>
     <use style="fill:#6c44a6;stroke:#6c44a6;" x="194.033066" xlink:href="#m04f8a44ecc" y="463.527403"/>
     <use style="fill:#6c44a6;stroke:#6c44a6;" x="220.675217" xlink:href="#m04f8a44ecc" y="451.104209"/>
     <use style="fill:#6c44a6;stroke:#6c44a6;" x="220.675217" xlink:href="#m04f8a44ecc" y="454.555096"/>
     <use style="fill:#6c44a6;stroke:#6c44a6;" x="220.675217" xlink:href="#m04f8a44ecc" y="430.891869"/>
     <use style="fill:#6c44a6;stroke:#6c44a6;" x="258.22522" xlink:href="#m04f8a44ecc" y="465.597936"/>
     <use style="fill:#6c44a6;stroke:#6c44a6;" x="258.22522" xlink:href="#m04f8a44ecc" y="428.131159"/>
     <use style="fill:#6c44a6;stroke:#6c44a6;" x="258.22522" xlink:href="#m04f8a44ecc" y="431.680643"/>
     <use style="fill:#6c44a6;stroke:#6c44a6;" x="284.867371" xlink:href="#m04f8a44ecc" y="430.694675"/>
     <use style="fill:#6c44a6;stroke:#6c44a6;" x="284.867371" xlink:href="#m04f8a44ecc" y="422.511143"/>
     <use style="fill:#6c44a6;stroke:#6c44a6;" x="284.867371" xlink:href="#m04f8a44ecc" y="397.861947"/>
     <use style="fill:#6c44a6;stroke:#6c44a6;" x="305.532629" xlink:href="#m04f8a44ecc" y="427.638175"/>
     <use style="fill:#6c44a6;stroke:#6c44a6;" x="305.532629" xlink:href="#m04f8a44ecc" y="421.820965"/>
     <use style="fill:#6c44a6;stroke:#6c44a6;" x="305.532629" xlink:href="#m04f8a44ecc" y="435.821708"/>
     <use style="fill:#6c44a6;stroke:#6c44a6;" x="322.417374" xlink:href="#m04f8a44ecc" y="428.919933"/>
     <use style="fill:#6c44a6;stroke:#6c44a6;" x="322.417374" xlink:href="#m04f8a44ecc" y="424.976062"/>
     <use style="fill:#6c44a6;stroke:#6c44a6;" x="322.417374" xlink:href="#m04f8a44ecc" y="390.762979"/>
     <use style="fill:#6c44a6;stroke:#6c44a6;" x="349.059525" xlink:href="#m04f8a44ecc" y="419.553239"/>
     <use style="fill:#6c44a6;stroke:#6c44a6;" x="349.059525" xlink:href="#m04f8a44ecc" y="414.426207"/>
     <use style="fill:#6c44a6;stroke:#6c44a6;" x="349.059525" xlink:href="#m04f8a44ecc" y="378.438382"/>
     <use style="fill:#6c44a6;stroke:#6c44a6;" x="369.724783" xlink:href="#m04f8a44ecc" y="348.366364"/>
     <use style="fill:#6c44a6;stroke:#6c44a6;" x="369.724783" xlink:href="#m04f8a44ecc" y="373.409946"/>
     <use style="fill:#6c44a6;stroke:#6c44a6;" x="369.724783" xlink:href="#m04f8a44ecc" y="279.545811"/>
     <use style="fill:#6c44a6;stroke:#6c44a6;" x="386.609528" xlink:href="#m04f8a44ecc" y="223.83863"/>
     <use style="fill:#6c44a6;stroke:#6c44a6;" x="386.609528" xlink:href="#m04f8a44ecc" y="222.655468"/>
     <use style="fill:#6c44a6;stroke:#6c44a6;" x="386.609528" xlink:href="#m04f8a44ecc" y="183.906934"/>
     <use style="fill:#6c44a6;stroke:#6c44a6;" x="407.274786" xlink:href="#m04f8a44ecc" y="112.917252"/>
     <use style="fill:#6c44a6;stroke:#6c44a6;" x="407.274786" xlink:href="#m04f8a44ecc" y="125.734833"/>
     <use style="fill:#6c44a6;stroke:#6c44a6;" x="407.274786" xlink:href="#m04f8a44ecc" y="113.213042"/>
     <use style="fill:#6c44a6;stroke:#6c44a6;" x="418.866107" xlink:href="#m04f8a44ecc" y="105.719687"/>
     <use style="fill:#6c44a6;stroke:#6c44a6;" x="418.866107" xlink:href="#m04f8a44ecc" y="106.212671"/>
     <use style="fill:#6c44a6;stroke:#6c44a6;" x="418.866107" xlink:href="#m04f8a44ecc" y="105.719687"/>
     <use style="fill:#6c44a6;stroke:#6c44a6;" x="433.916937" xlink:href="#m04f8a44ecc" y="108.480396"/>
     <use style="fill:#6c44a6;stroke:#6c44a6;" x="433.916937" xlink:href="#m04f8a44ecc" y="107.297235"/>
     <use style="fill:#6c44a6;stroke:#6c44a6;" x="433.916937" xlink:href="#m04f8a44ecc" y="107.987413"/>
     <use style="fill:#6c44a6;stroke:#6c44a6;" x="454.582195" xlink:href="#m04f8a44ecc" y="106.015477"/>
     <use style="fill:#6c44a6;stroke:#6c44a6;" x="454.582195" xlink:href="#m04f8a44ecc" y="106.705654"/>
     <use style="fill:#6c44a6;stroke:#6c44a6;" x="454.582195" xlink:href="#m04f8a44ecc" y="105.226703"/>
     <use style="fill:#6c44a6;stroke:#6c44a6;" x="461.709534" xlink:href="#m04f8a44ecc" y="105.522493"/>
     <use style="fill:#6c44a6;stroke:#6c44a6;" x="461.709534" xlink:href="#m04f8a44ecc" y="105.719687"/>
     <use style="fill:#6c44a6;stroke:#6c44a6;" x="461.709534" xlink:href="#m04f8a44ecc" y="110.156542"/>
     <use style="fill:#6c44a6;stroke:#6c44a6;" x="471.46694" xlink:href="#m04f8a44ecc" y="105.818283"/>
     <use style="fill:#6c44a6;stroke:#6c44a6;" x="471.46694" xlink:href="#m04f8a44ecc" y="107.494429"/>
     <use style="fill:#6c44a6;stroke:#6c44a6;" x="471.46694" xlink:href="#m04f8a44ecc" y="111.241106"/>
     <use style="fill:#6c44a6;stroke:#6c44a6;" x="483.058261" xlink:href="#m04f8a44ecc" y="105.029509"/>
     <use style="fill:#6c44a6;stroke:#6c44a6;" x="483.058261" xlink:href="#m04f8a44ecc" y="107.691622"/>
     <use style="fill:#6c44a6;stroke:#6c44a6;" x="483.058261" xlink:href="#m04f8a44ecc" y="110.748122"/>
     <use style="fill:#6c44a6;stroke:#6c44a6;" x="488.351685" xlink:href="#m04f8a44ecc" y="105.226703"/>
     <use style="fill:#6c44a6;stroke:#6c44a6;" x="488.351685" xlink:href="#m04f8a44ecc" y="108.283203"/>
     <use style="fill:#6c44a6;stroke:#6c44a6;" x="488.351685" xlink:href="#m04f8a44ecc" y="112.128477"/>
     <use style="fill:#6c44a6;stroke:#6c44a6;" x="493.358834" xlink:href="#m04f8a44ecc" y="103.057574"/>
     <use style="fill:#6c44a6;stroke:#6c44a6;" x="493.358834" xlink:href="#m04f8a44ecc" y="104.536525"/>
     <use style="fill:#6c44a6;stroke:#6c44a6;" x="493.358834" xlink:href="#m04f8a44ecc" y="106.212671"/>
     <use style="fill:#6c44a6;stroke:#6c44a6;" x="498.109091" xlink:href="#m04f8a44ecc" y="103.846348"/>
     <use style="fill:#6c44a6;stroke:#6c44a6;" x="498.109091" xlink:href="#m04f8a44ecc" y="106.607058"/>
     <use style="fill:#6c44a6;stroke:#6c44a6;" x="498.109091" xlink:href="#m04f8a44ecc" y="110.945316"/>
    </g>
   </g>
  </g>
 </g>
 <defs>
  <clipPath id="p6e002a2d8d">
   <rect height="434.88" width="446.4" x="72" y="69.12"/>
  </clipPath>
 </defs>
</svg>
